<?xml version="1.0" standalone="no"?>
<!DOCTYPE svg PUBLIC "-//W3C//DTD SVG 1.1//EN" "http://www.w3.org/Graphics/SVG/1.1/DTD/svg11.dtd" >
<svg>
<metadata>
Created by FontForge 20090622 at Mon Sep  5 15:40:59 2016
 By deploy user
Copyright (C) 2002, 2007 Hoefler &#38; Frere-Jones. http://www.typography.com
</metadata>
<defs>
<font id="ChronicleDisplay-Bold" horiz-adv-x="706" >
  <font-face 
    font-family="Chronicle Display Bold"
    font-weight="400"
    font-stretch="normal"
    units-per-em="1000"
    panose-1="0 0 0 0 0 0 0 0 0 0"
    ascent="800"
    descent="-200"
    x-height="462"
    cap-height="697"
    bbox="-105 -320 1229 1158"
    underline-thickness="50"
    underline-position="-50"
    unicode-range="U+0020-U+FB04"
  />
<missing-glyph horiz-adv-x="500" 
d="M0 -200v1000h500v-1000h-500zM71 750l179 -390l179 390h-358zM50 -76l172 376l-172 376v-752zM450 676l-172 -376l172 -376v752zM250 240l-179 -390h358z" />
    <glyph glyph-name="f_f" unicode="ff" horiz-adv-x="669" 
d="M322 720q104 0 143 -49l1 1q50 51 152 51q72 0 109.5 -24.5t37.5 -63.5q0 -32 -17.5 -50.5t-49.5 -18.5q-31 0 -50.5 17.5t-19.5 51.5t21 59q-15 10 -35 10q-26 0 -42 -16q-27 -27 -27 -131v-100h125v-32h-125v-376q0 -21 18.5 -28t75.5 -9v-12h-290v12q36 1 49.5 8.5
t13.5 28.5v376h-180v-376q0 -20 15 -28t47 -9v-12h-264v12q43 1 56 8.5t13 28.5v375h-86v16l86 19v37q0 112 55 169q55 55 168 55zM412 499q0 27 3 53q-29 1 -48 19t-19 50q0 34 25 61q-17 19 -53 19t-55 -21q-33 -33 -33 -121v-102h180v42z" />
    <glyph glyph-name="fi" unicode="fi" horiz-adv-x="625" 
d="M30 0v12q43 1 56 8.5t13 28.5v375h-86v16l86 19v31q0 120 53 173q60 60 178 60q101 0 150.5 -32t49.5 -82q0 -32 -19 -53t-51 -21t-53.5 18t-21.5 51q0 42 35 62q-27 38 -81 38q-53 0 -75 -24q-32 -32 -32 -129v-94h145l164 7v-415q0 -22 13 -29t57 -8v-12h-264v12
q32 1 46.5 9t14.5 28v376h-176v-376q0 -20 15 -28t47 -9v-12h-264z" />
    <glyph glyph-name="fl" unicode="fl" horiz-adv-x="629" 
d="M413 425h-181v-376q0 -20 15 -28t47 -9v-12h-264v12q43 1 56 8.5t13 28.5v375h-86v16l86 19v36q0 118 53 171q57 57 169 57q79 0 119 -23l106 21v-672q0 -21 13.5 -28.5t55.5 -8.5v-12h-262v12q31 1 45.5 9t14.5 28v376zM413 551q-28 2 -45.5 19.5t-17.5 47.5q0 41 29 61
q-21 25 -54 25q-40 0 -62 -22q-31 -31 -31 -126v-99h181v94z" />
    <glyph glyph-name="f_f_i" unicode="ffi" horiz-adv-x="938" 
d="M322 720q109 0 147 -53q61 56 174 56q101 0 150.5 -32t49.5 -82q0 -32 -19.5 -53t-51.5 -21q-31 0 -52.5 18t-21.5 50q0 43 35 64q-28 37 -81 37q-52 0 -75 -24q-32 -32 -32 -129v-94h145l164 8v-416q0 -21 13 -28.5t57 -8.5v-12h-264v12q31 1 46 9t15 28v376h-176v-376
q0 -20 15 -28t47 -9v-12h-258v12q35 1 49 9t14 28v376h-180v-376q0 -20 15 -28t47 -9v-12h-264v12q42 1 55.5 8.5t13.5 28.5v375h-86v16l86 19v37q0 112 55 169q55 55 168 55zM412 457v33q0 37 4 62q-31 0 -50.5 18.5t-19.5 50.5q0 34 27 61q-17 19 -52 19q-37 0 -56 -21
q-33 -33 -33 -121v-102h180z" />
    <glyph glyph-name="f_f_l" unicode="ffl" horiz-adv-x="942" 
d="M349 0v12q35 1 49 9t14 28v376h-180v-376q0 -20 15 -28t47 -9v-12h-264v12q42 1 55.5 8.5t13.5 28.5v375h-86v16l86 19v37q0 112 55 169q55 55 168 55q109 0 146 -51q57 54 166 54q79 0 119 -23l106 21v-672q0 -21 13.5 -28.5t55.5 -8.5v-12h-262v12q60 2 60 37v376h-181
v-376q0 -20 15 -28t47 -9v-12h-258zM726 457v94q-28 2 -45.5 19.5t-17.5 47.5q0 40 29 62q-22 24 -54 24q-40 0 -62 -22q-31 -31 -31 -126v-99h181zM412 495q0 30 3 57q-29 0 -48 18t-19 51q0 36 25 61q-17 19 -52 19q-37 0 -56 -21q-33 -33 -33 -121v-102h180v38z" />
    <glyph glyph-name="f_b" unicode="fb" horiz-adv-x="910" 
d="M413 551q-28 2 -45.5 19.5t-17.5 47.5q0 41 29 61q-21 25 -54 25q-40 0 -62 -22q-31 -31 -31 -126v-99h181v94zM232 425v-376q0 -20 19 -28t75 -9v-12h-296v12q42 1 55.5 8.5t13.5 28.5v375h-86v16l86 19v36q0 118 53 171q57 57 169 57q79 0 119 -23l106 21v-313
q65 62 150 62q87 0 135 -63.5t48 -160.5q0 -111 -60 -182.5t-160 -71.5q-98 0 -164 44l-66 -55h-18l2 95v349h-181zM638 11q50 0 74.5 61.5t24.5 168.5q0 83 -28.5 135t-79.5 52q-37 0 -83 -37v-310q32 -70 92 -70z" />
    <glyph glyph-name="f_h" unicode="fh" horiz-adv-x="918" 
d="M413 551q-28 2 -45.5 19.5t-17.5 47.5q0 41 29 61q-21 25 -54 25q-40 0 -62 -22q-31 -31 -31 -126v-99h181v94zM615 0h-262v12q31 1 45.5 9t14.5 28v376h-181v-376q0 -20 15 -28t47 -9v-12h-264v12q43 1 56 8.5t13 28.5v375h-86v16l86 19v36q0 118 53 171q57 57 169 57
q79 0 119 -23l106 21v-357q33 48 79 75.5t94 27.5q126 0 126 -144v-274q0 -21 13 -28.5t56 -8.5v-12h-256v12q30 1 42 8.5t12 28.5v264q0 95 -74 95q-49 0 -92 -66v-293q0 -21 13.5 -28.5t55.5 -8.5v-12z" />
    <glyph glyph-name="f_j" unicode="fj" horiz-adv-x="619" 
d="M232 425v-376q0 -20 19 -28t75 -9v-12h-296v12q42 1 55.5 8.5t13.5 28.5v375h-86v16l86 19v31q0 120 53 173q60 60 178 60q101 0 150.5 -32t49.5 -82q0 -32 -19 -53t-51 -21t-53.5 18t-21.5 51q0 42 35 62q-27 38 -81 38q-53 0 -75 -24q-32 -32 -32 -129v-94h143l164 7
v-445q0 -68 -11.5 -106t-41.5 -68q-47 -45 -141 -45q-66 0 -102.5 24t-36.5 60q0 31 19 50t49 19t49 -19t19 -48q0 -37 -27 -59q16 -8 29 -8q64 0 64 110v496h-176z" />
    <glyph glyph-name="f_k" unicode="fk" horiz-adv-x="890" 
d="M413 551q-28 2 -45.5 19.5t-17.5 47.5q0 41 29 61q-21 25 -54 25q-40 0 -62 -22q-31 -31 -31 -126v-99h181v94zM615 0h-262v12q31 1 45.5 9t14.5 28v376h-181v-376q0 -20 15 -28t47 -9v-12h-264v12q43 1 56 8.5t13 28.5v375h-86v16l86 19v36q0 118 53 171q57 57 169 57
q79 0 119 -23l106 21v-510l136 144q65 71 -32 95v12h222v-12q-48 -10 -86 -34.5t-87 -73.5l-34 -32l157 -232q28 -41 43.5 -51.5t50.5 -14.5v-12h-261v12q35 2 40.5 14t-12.5 40l-101 157l-36 -36v-138q0 -21 13.5 -28.5t55.5 -8.5v-12z" />
    <glyph glyph-name="f_f_b" unicode="ffb" horiz-adv-x="1223" 
d="M639 0h-290v12q35 1 49 9t14 28v376h-180v-376q0 -20 15 -28t47 -9v-12h-264v12q42 1 55.5 8.5t13.5 28.5v375h-86v16l86 19v37q0 112 55 169q55 55 168 55q109 0 146 -51q57 54 166 54q79 0 119 -23l106 21v-313q66 63 150 63q87 0 135 -63.5t48 -160.5
q0 -112 -60 -183.5t-160 -71.5q-98 0 -164 44l-66 -55h-18l2 95v349h-181v-376q0 -20 19 -28t75 -9v-12zM951 11q99 0 99 231q0 83 -28.5 134.5t-79.5 51.5q-39 0 -83 -37v-310q32 -70 92 -70zM726 457v94q-28 2 -45.5 19.5t-17.5 47.5q0 40 29 62q-22 24 -54 24
q-40 0 -62 -22q-31 -31 -31 -126v-99h181zM412 495q0 30 3 57q-29 0 -48 18t-19 51q0 36 25 61q-17 19 -52 19q-37 0 -56 -21q-33 -33 -33 -121v-102h180v38z" />
    <glyph glyph-name="f_f_h" unicode="ffh" horiz-adv-x="1231" 
d="M349 0v12q35 1 49 9t14 28v376h-180v-376q0 -20 15 -28t47 -9v-12h-264v12q42 1 55.5 8.5t13.5 28.5v375h-86v16l86 19v37q0 112 55 169q55 55 168 55q109 0 146 -51q57 54 166 54q79 0 119 -23l106 21v-357q33 48 79 76t94 28q126 0 126 -145v-274q0 -21 13.5 -28.5
t55.5 -8.5v-12h-256v12q30 1 42 9t12 28v264q0 95 -74 95q-49 0 -92 -66v-293q0 -21 13.5 -28.5t55.5 -8.5v-12h-262v12q60 2 60 37v376h-181v-376q0 -20 15 -28t47 -9v-12h-258zM726 457v94q-28 2 -45.5 19.5t-17.5 47.5q0 40 29 62q-22 24 -54 24q-40 0 -62 -22
q-31 -31 -31 -126v-99h181zM412 495q0 30 3 57q-29 0 -48 18t-19 51q0 36 25 61q-17 19 -52 19q-37 0 -56 -21q-33 -33 -33 -121v-102h180v38z" />
    <glyph glyph-name="f_f_j" unicode="ffj" horiz-adv-x="932" 
d="M639 0h-290v12q35 1 49 9t14 28v376h-180v-376q0 -20 15 -28t47 -9v-12h-264v12q42 1 55.5 8.5t13.5 28.5v375h-86v16l86 19v37q0 112 55 169q55 55 168 55q109 0 147 -53q61 56 174 56q101 0 150.5 -32t49.5 -82q0 -32 -19.5 -53t-51.5 -21q-31 0 -52.5 18t-21.5 50
q0 43 35 64q-28 37 -81 37q-52 0 -75 -24q-32 -32 -32 -129v-94h143l164 8v-446q0 -68 -11.5 -106t-41.5 -68q-47 -45 -141 -45q-66 0 -102.5 24t-36.5 60q0 31 19 50t49 19t49 -19t19 -48q0 -37 -27 -59q16 -8 29 -8q64 0 64 110v496h-176v-376q0 -20 19 -28t75 -9v-12z
M412 490q0 37 4 62q-31 0 -50.5 18.5t-19.5 50.5q0 34 27 61q-17 19 -52 19q-37 0 -56 -21q-33 -33 -33 -121v-102h180v33z" />
    <glyph glyph-name="f_f_k" unicode="ffk" horiz-adv-x="1203" 
d="M859 211l136 144q65 71 -32 95v12h222v-12q-48 -10 -86.5 -34.5t-87.5 -73.5l-33 -32l157 -232q28 -41 43.5 -51.5t50.5 -14.5v-12h-261v12q35 2 40.5 14t-12.5 40l-101 157l-36 -36v-138q0 -21 13.5 -28.5t55.5 -8.5v-12h-262v12q60 2 60 37v376h-181v-376q0 -20 15 -28
t47 -9v-12h-258v12q35 1 49 9t14 28v376h-180v-376q0 -20 15 -28t47 -9v-12h-264v12q42 1 55.5 8.5t13.5 28.5v375h-86v16l86 19v37q0 112 55 169q55 55 168 55q109 0 146 -51q57 54 166 54q79 0 119 -23l106 21v-510zM726 457v94q-28 2 -45.5 19.5t-17.5 47.5q0 40 29 62
q-22 24 -54 24q-40 0 -62 -22q-31 -31 -31 -126v-99h181zM412 495q0 30 3 57q-29 0 -48 18t-19 51q0 36 25 61q-17 19 -52 19q-37 0 -56 -21q-33 -33 -33 -121v-102h180v38z" />
    <glyph glyph-name=".notdef" horiz-adv-x="500" 
d="M0 -200v1000h500v-1000h-500zM71 750l179 -390l179 390h-358zM50 -76l172 376l-172 376v-752zM450 676l-172 -376l172 -376v752zM250 240l-179 -390h358z" />
    <glyph glyph-name=".null" horiz-adv-x="0" 
 />
    <glyph glyph-name="nonmarkingreturn" horiz-adv-x="333" 
 />
    <glyph glyph-name="space" unicode=" " horiz-adv-x="191" 
 />
    <glyph glyph-name="exclam" unicode="!" horiz-adv-x="286" 
d="M136 203q-9 83 -38.5 236t-29.5 192q0 45 19.5 69.5t56.5 24.5q36 0 55.5 -25t19.5 -69q0 -39 -29.5 -192t-38.5 -236h-15zM142 -17q-34 0 -57 22.5t-23 55.5q0 32 23.5 55.5t58.5 23.5q34 0 56.5 -22.5t22.5 -55.5q0 -32 -23.5 -55.5t-57.5 -23.5z" />
    <glyph glyph-name="quotedbl" unicode="&#x22;" horiz-adv-x="457" 
d="M275 414l-14 6l21 142q15 90 22 107q15 38 54 38q27 0 46.5 -18.5t19.5 -43.5q0 -10 -5 -23q-9 -21 -59 -92zM83 414l-15 6l21 142q14 86 22 107q17 38 55 38q27 0 46 -18.5t19 -43.5q0 -10 -5 -23q-8 -21 -58 -92z" />
    <glyph glyph-name="numbersign" unicode="#" 
d="M321 708l-45 -225h212l45 225h26l-45 -225h158v-21h-162l-50 -252h169v-21h-173l-45 -231h-26l45 231h-212l-45 -231h-26l45 231h-154v21h158l50 252h-164v21h168l45 225h26zM272 462l-50 -252h212l50 252h-212z" />
    <glyph glyph-name="dollar" unicode="$" horiz-adv-x="566" 
d="M271 -65v84q-104 2 -168 41.5t-64 100.5q0 30 20.5 53.5t57.5 23.5q33 0 53 -21t20 -51q0 -49 -52 -73q14 -21 50 -36t83 -18v234l-34 12q-43 15 -69 27.5t-56.5 33.5t-45 50.5t-14.5 68.5q0 80 65 128.5t161 51.5v73h26v-74q91 -3 150 -38.5t59 -89.5q0 -29 -18.5 -50
t-49.5 -21q-36 0 -55 19.5t-19 49.5q0 19 11.5 37.5t28.5 27.5q-36 41 -107 45v-217l35 -12q33 -12 55 -21t50 -25.5t44 -34.5t27.5 -46t11.5 -61q0 -78 -57.5 -131t-172.5 -57v-84h-26zM415 141q0 46 -26 71t-92 51v-224q57 2 87.5 29t30.5 73zM172 526q0 -38 24.5 -62
t81.5 -47v208q-47 -3 -76.5 -28.5t-29.5 -70.5z" />
    <glyph glyph-name="percent" unicode="%" horiz-adv-x="815" 
d="M599 13q60 0 103 75.5t43 151.5q0 48 -17.5 73.5t-47.5 25.5q-40 0 -74.5 -40.5t-52 -95.5t-17.5 -107q0 -44 18 -63.5t45 -19.5zM579 -14q-66 0 -104 40.5t-38 109.5q0 90 65.5 164.5t151.5 74.5q54 0 85.5 -35.5t31.5 -98.5q0 -34 -12 -76t-34 -83t-60.5 -68.5
t-85.5 -27.5zM356 544q0 14 -2 34q-56 15 -105 52q-44 -26 -73 -95t-29 -135q0 -44 18 -63.5t45 -19.5q60 0 103 76t43 151zM264 679q74 0 102 -59q44 -21 99 -21q89 0 178 95h29l-487 -720h-47l466 654l-3 3q-72 -63 -173 -63q-27 0 -48 4q2 -16 2 -27q0 -47 -19.5 -103.5
t-65.5 -104t-107 -47.5q-66 0 -104 40.5t-38 109.5q0 90 65.5 164.5t150.5 74.5z" />
    <glyph glyph-name="ampersand" unicode="&#x26;" horiz-adv-x="768" 
d="M340 392q37 32 51.5 67.5t14.5 86.5q0 52 -21 80t-60 28q-35 0 -57 -26t-22 -72q0 -39 20 -74.5t74 -89.5zM231 331q-65 -59 -65 -144q0 -64 38.5 -101t100.5 -37q69 0 119 63q-29 48 -84 109.5t-109 109.5zM505 216q31 78 73 115t82 37q39 0 62.5 -22t23.5 -58
q0 -30 -20.5 -51.5t-50.5 -21.5q-29 0 -48.5 20.5t-19.5 49.5q0 6 3 15l-4 3q-49 -27 -88 -103q50 -81 86 -111t73 -30q27 0 65 26l8 -9q-84 -93 -164 -93q-50 0 -83 24t-70 89q-75 -113 -207 -113q-85 0 -137 47.5t-52 121.5q0 133 179 192q-80 79 -80 156q0 74 52.5 122
t142.5 48q84 0 131.5 -40.5t47.5 -97.5q0 -99 -150 -159q101 -84 145 -157z" />
    <glyph glyph-name="quotesingle" unicode="'" horiz-adv-x="264" 
d="M83 414l-15 6l21 142q14 86 22 107q17 38 55 38q27 0 46 -18.5t19 -43.5q0 -10 -5 -23q-8 -21 -58 -92z" />
    <glyph glyph-name="parenleft" unicode="(" horiz-adv-x="383" 
d="M409 -166q-62 23 -120 63t-108.5 97t-81.5 136.5t-31 168.5t31 168.5t81.5 136.5t108.5 97t120 63l6 -12q-108 -68 -162.5 -173.5t-54.5 -279.5t54.5 -279.5t162.5 -173.5z" />
    <glyph glyph-name="parenright" unicode=")" horiz-adv-x="383" 
d="M-26 -166l-6 12q107 68 161.5 173.5t54.5 279.5t-54.5 279.5t-161.5 173.5l6 12q62 -23 120 -63t108.5 -97t81.5 -136.5t31 -168.5t-31 -168.5t-81.5 -136.5t-108.5 -97t-120 -63z" />
    <glyph glyph-name="asterisk" unicode="*" horiz-adv-x="423" 
d="M267 379q-18 -6 -32.5 1.5t-21.5 28.5q-5 14 0 129l-10 3q-61 -92 -75 -102q-36 -27 -61 7q-24 34 12 61q6 5 23.5 11t34 10.5l37.5 10.5t26 7v9q-5 1 -26 7l-37.5 10.5t-34 10.5t-23.5 11q-37 28 -12 62q27 34 61 7q23 -19 75 -103l10 3q-5 115 0 128q13 42 54 30
q40 -12 27 -57q-5 -14 -77 -104l6 -7q102 40 122 40q21 0 33 -11.5t12 -30.5t-12 -31t-33 -12q-14 0 -121 39l-6 -8q72 -91 76 -103q13 -45 -27 -57z" />
    <glyph glyph-name="plus" unicode="+" horiz-adv-x="556" 
d="M54 316v22h212v211h26v-211h210v-22h-210v-214h-26v214h-212z" />
    <glyph glyph-name="comma" unicode="," horiz-adv-x="254" 
d="M33 -159l-6 12q54 28 85.5 68.5t34.5 73.5l-4 2q-13 -7 -29 -7q-28 0 -48 20t-20 52t21 55t54 23q40 0 64.5 -27.5t24.5 -72.5q0 -65 -47 -119t-130 -80z" />
    <glyph glyph-name="hyphen" unicode="-" horiz-adv-x="366" 
d="M55 239v41h256v-41h-256z" />
    <glyph glyph-name="period" unicode="." horiz-adv-x="254" 
d="M126 -17q-34 0 -56.5 22.5t-22.5 55.5q0 32 23.5 55.5t57.5 23.5t57 -22.5t23 -55.5q0 -32 -24 -55.5t-58 -23.5z" />
    <glyph glyph-name="slash" unicode="/" horiz-adv-x="457" 
d="M8 -215l212 480l208 481h30l-212 -481l-208 -480h-30z" />
    <glyph glyph-name="zero" unicode="0" horiz-adv-x="635" 
d="M316 -14q-126 0 -201.5 96.5t-75.5 246.5t78 250t202 100q126 0 201.5 -97.5t75.5 -248.5q0 -149 -78 -248t-202 -99zM322 4q68 0 93 76.5t25 250.5q0 172 -28.5 250.5t-98.5 78.5q-68 0 -93 -77t-25 -252q0 -171 28.5 -249t98.5 -78z" />
    <glyph glyph-name="one" unicode="1" horiz-adv-x="435" 
d="M36 0v13q67 1 92.5 14.5t25.5 44.5v486q0 47 -21.5 63.5t-98.5 20.5v11l261 21v-602q0 -31 24.5 -44.5t92.5 -14.5v-13h-376z" />
    <glyph glyph-name="two" unicode="2" horiz-adv-x="573" 
d="M44 0v86l141 107q111 83 151.5 146.5t40.5 157.5q0 163 -117 163q-35 0 -68 -15t-48 -42q68 -27 68 -86q0 -35 -22.5 -60.5t-60.5 -25.5t-61 25.5t-23 63.5q0 72 68 115.5t166 43.5q120 0 182 -50.5t62 -130.5q0 -70 -58.5 -131.5t-209.5 -159.5l-126 -86v-4h270
q48 0 68 18.5t47 85.5l13 -1l-3 -220h-480z" />
    <glyph glyph-name="three" unicode="3" horiz-adv-x="566" 
d="M260 -14q-102 0 -165.5 38t-63.5 102q0 38 23.5 63t60.5 25q36 0 57 -23t21 -55q0 -53 -56 -83q12 -20 47 -34.5t76 -14.5q129 0 129 171q0 78 -39 116t-132 38h-32v22h28q89 0 123.5 40t34.5 125q0 74 -29 109t-92 35q-29 0 -58.5 -13t-43.5 -32q59 -22 59 -82
q0 -32 -20.5 -55t-57.5 -23q-34 0 -56.5 22t-22.5 58q0 64 64 104t160 40q116 0 179.5 -43.5t63.5 -116.5q0 -136 -224 -175v-4q117 -4 179 -47.5t62 -117.5q0 -88 -71 -138.5t-204 -50.5z" />
    <glyph glyph-name="four" unicode="4" horiz-adv-x="599" 
d="M578 195h-128v-127q0 -29 19 -41.5t65 -13.5v-13h-315v13q90 1 90 55v127h-291v46l337 424h95v-387h128v-83zM305 559l-220 -281h224v281h-4z" />
    <glyph glyph-name="five" unicode="5" horiz-adv-x="554" 
d="M262 -14q-90 0 -155 36t-65 99q0 37 24 62.5t61 25.5q35 0 54.5 -22t19.5 -53q0 -59 -59 -85q39 -45 112 -45q70 0 96.5 51t26.5 152q0 168 -132 168q-76 0 -144 -53l-19 9l10 334h414l-20 -123h-373l-7 -195q74 55 174 55q125 0 185 -53.5t60 -143.5q0 -94 -70 -156.5
t-193 -62.5z" />
    <glyph glyph-name="six" unicode="6" horiz-adv-x="585" 
d="M302 -14q-118 0 -190.5 76.5t-72.5 205.5q0 165 107 274q64 64 147 96.5t221 43.5v-12q-154 -37 -228.5 -110t-101.5 -213l4 -2q20 44 65 69.5t101 25.5q92 0 146 -56.5t54 -146.5q0 -111 -66.5 -181t-185.5 -70zM305 3q54 0 79 53t25 160q0 195 -100 195
q-54 0 -91.5 -53.5t-37.5 -147.5q0 -101 33 -154t92 -53z" />
    <glyph glyph-name="seven" unicode="7" horiz-adv-x="536" 
d="M105 -10v8l352 547h-288q-39 0 -57.5 -20.5t-44.5 -91.5l-13 1l8 231h465v-12l-164 -365l-128 -298h-130z" />
    <glyph glyph-name="eight" unicode="8" horiz-adv-x="571" 
d="M36 154q0 51 38.5 93t107.5 69q-129 64 -129 171q0 83 68.5 137.5t161.5 54.5q101 0 166 -43.5t65 -115.5q0 -92 -136 -147q76 -33 117.5 -77t41.5 -109q0 -86 -74 -143.5t-173 -57.5q-121 0 -187.5 45t-66.5 123zM249 288l-40 15q-56 -50 -56 -143q0 -66 36 -111
t102 -45q121 0 121 129q0 54 -42.5 90.5t-120.5 64.5zM337 389l15 -6q45 44 45 134q0 61 -30.5 101.5t-88.5 40.5q-49 0 -76.5 -30t-27.5 -88q0 -55 41.5 -89t121.5 -63z" />
    <glyph glyph-name="nine" unicode="9" horiz-adv-x="585" 
d="M74 -20v12q153 36 228 110.5t103 215.5l-4 2q-21 -45 -62 -70t-95 -25q-93 0 -151 57.5t-58 149.5q0 107 69 177t188 70q122 0 190 -76.5t68 -212.5q0 -161 -107 -268q-64 -64 -147.5 -97t-221.5 -45zM284 254q51 0 87.5 54.5t36.5 145.5q0 101 -29.5 154.5t-85.5 53.5
q-113 0 -113 -212q0 -196 104 -196z" />
    <glyph glyph-name="colon" unicode=":" horiz-adv-x="268" 
d="M133 258q-34 0 -57 23t-23 55t24 55.5t58 23.5t57 -22.5t23 -55.5q0 -32 -24 -55.5t-58 -23.5zM133 -17q-34 0 -57 22.5t-23 55.5q0 32 24 55.5t58 23.5t57 -22.5t23 -55.5q0 -32 -24 -55.5t-58 -23.5z" />
    <glyph glyph-name="semicolon" unicode=";" horiz-adv-x="268" 
d="M133 258q-34 0 -57 23t-23 55t24 55.5t58 23.5t57 -22.5t23 -55.5q0 -32 -24 -55.5t-58 -23.5zM40 -159l-6 12q54 28 85.5 68.5t34.5 73.5l-4 2q-13 -7 -29 -7q-28 0 -48.5 20t-20.5 52t21.5 55t54.5 23q40 0 64.5 -27.5t24.5 -72.5q0 -65 -47 -119t-130 -80z" />
    <glyph glyph-name="less" unicode="&#x3c;" horiz-adv-x="555" 
d="M84 314v24l388 213v-30l-357 -195l357 -193v-31z" />
    <glyph glyph-name="equal" unicode="=" horiz-adv-x="556" 
d="M59 216v22h438v-22h-438zM59 414v22h438v-22h-438z" />
    <glyph glyph-name="greater" unicode="&#x3e;" horiz-adv-x="555" 
d="M471 315l-388 -213v30l358 195l-358 193v31l388 -212v-24z" />
    <glyph glyph-name="question" unicode="?" horiz-adv-x="509" 
d="M208 203v150q79 26 108 71.5t29 122.5q0 159 -126 159q-37 0 -67.5 -14.5t-44.5 -38.5q34 -9 51.5 -32t17.5 -52q0 -33 -21.5 -58t-58.5 -25t-61 25.5t-24 62.5q0 67 65 108.5t163 41.5q117 0 182.5 -50.5t65.5 -129.5q0 -154 -252 -206v-135h-27zM222 -17
q-34 0 -57 22.5t-23 55.5q0 32 23.5 55.5t57.5 23.5t57 -22.5t23 -55.5q0 -32 -23.5 -55.5t-57.5 -23.5z" />
    <glyph glyph-name="at" unicode="@" horiz-adv-x="909" 
d="M469 -146q-179 0 -293.5 112t-114.5 295q0 184 120 303.5t307 119.5q150 0 255 -96.5t105 -241.5q0 -133 -73 -210.5t-164 -77.5q-65 0 -90.5 18.5t-33.5 58.5l-4 2q-59 -70 -125 -70q-57 0 -89.5 39t-32.5 105q0 100 72.5 184.5t161.5 84.5q66 0 93 -53h3l13 44l113 8
l-51 -142l-41 -143q-17 -52 -7.5 -81.5t44.5 -29.5q66 0 127.5 74t61.5 188q0 135 -98 227.5t-245 92.5q-175 0 -287.5 -115.5t-112.5 -283.5q0 -171 106.5 -281.5t284.5 -110.5q136 0 249 82l11 -14q-120 -88 -265 -88zM412 115q33 0 70 47l71 236q-18 53 -60 53
q-54 0 -99 -84t-45 -166q0 -86 63 -86z" />
    <glyph glyph-name="A" unicode="A" 
d="M463 92l-62 173h-230l-34 -92q-31 -81 -16.5 -115t84.5 -44v-14h-236v14q49 13 81 49.5t63 113.5l207 536h68l226 -614q17 -45 37 -61t75 -24v-14h-358v14q70 3 90 20t5 58zM179 285h215l-102 289h-5z" />
    <glyph glyph-name="B" unicode="B" horiz-adv-x="709" 
d="M31 0v14q61 2 82.5 15t21.5 42v555q0 30 -22 43t-82 15v13h335q150 0 212.5 -47.5t62.5 -119.5q0 -61 -52 -105t-160 -55v-3q117 -4 177.5 -50.5t60.5 -120.5q0 -85 -68.5 -140.5t-223.5 -55.5h-344zM281 376h72q78 0 108.5 38t30.5 113q0 73 -30 112.5t-112 39.5h-69
v-303zM281 19h84q90 0 120.5 42.5t30.5 134.5q0 162 -161 162h-74v-339z" />
    <glyph glyph-name="C" unicode="C" horiz-adv-x="721" 
d="M386 -17q-160 0 -253 95t-93 259q0 168 108.5 272.5t264.5 104.5q104 0 185 -45l45 50h12v-259h-15q-53 120 -107.5 177.5t-134.5 57.5q-88 0 -142 -88.5t-54 -252.5q0 -161 66 -246t166 -85q157 0 231 162l18 -9q-85 -193 -297 -193z" />
    <glyph glyph-name="D" unicode="D" horiz-adv-x="780" 
d="M31 0v14q61 2 82.5 15t21.5 42v555q0 30 -22 43t-82 15v13h327q185 0 282.5 -92t97.5 -244q0 -73 -21 -136t-63.5 -114.5t-114 -81t-165.5 -29.5h-343zM281 19h62q132 0 184 71t52 261q0 126 -27.5 199t-77.5 101t-133 28h-60v-660z" />
    <glyph glyph-name="E" unicode="E" horiz-adv-x="715" 
d="M31 0v14q61 2 82.5 15t21.5 42v555q0 30 -22 43t-82 15v13h597l3 -238l-15 -1q-30 67 -49 101.5t-46 65.5t-58.5 42.5t-77.5 11.5h-104v-308h42q62 0 97.5 30.5t55.5 105.5h13v-292h-13q-20 76 -56 107t-97 31h-42v-334h99q104 0 155 48.5t109 185.5l15 -2l-5 -251h-623z
" />
    <glyph glyph-name="F" unicode="F" horiz-adv-x="670" 
d="M31 0v14q61 2 82.5 15t21.5 42v555q0 30 -22 43t-82 15v13h595l7 -241l-15 -2q-56 128 -104 176.5t-137 48.5h-96v-318h42q62 0 96.5 29.5t54.5 104.5h13v-290h-13q-20 76 -55 106.5t-96 30.5h-42v-271q0 -31 20.5 -44t85.5 -15v-12h-356z" />
    <glyph glyph-name="G" unicode="G" horiz-adv-x="759" 
d="M403 -17q-157 0 -259 97t-102 267q0 162 107.5 264.5t262.5 102.5q105 0 185 -45l49 50h11v-243h-14q-51 110 -107.5 164.5t-131.5 54.5q-86 0 -143.5 -87.5t-57.5 -258.5q0 -172 59.5 -259.5t149.5 -87.5q77 0 118 35v211q0 30 -23.5 45t-84.5 17v13h324v-13
q-45 -3 -60.5 -15.5t-15.5 -45.5v-197q-116 -69 -267 -69z" />
    <glyph glyph-name="H" unicode="H" horiz-adv-x="843" 
d="M31 0v14q61 2 82.5 14.5t21.5 42.5v556q0 29 -21.5 42t-82.5 15v13h346v-13q-54 -2 -75 -14.5t-21 -42.5v-255h282v255q0 30 -21.5 42.5t-75.5 14.5v13h347v-13q-61 -2 -82.5 -14.5t-21.5 -42.5v-556q0 -30 21.5 -42.5t82.5 -14.5v-14h-347v14q55 2 76 14.5t21 42.5v281
h-282v-281q0 -31 21 -43t75 -14v-14h-346z" />
    <glyph glyph-name="I" unicode="I" horiz-adv-x="435" 
d="M38 0v14q63 2 85 14.5t22 42.5v555q0 30 -22 43t-85 15v13h359v-13q-63 -2 -85 -15t-22 -43v-555q0 -30 22 -42.5t85 -14.5v-14h-359z" />
    <glyph glyph-name="J" unicode="J" horiz-adv-x="584" 
d="M235 -17q-104 0 -158.5 40.5t-54.5 104.5q0 41 25.5 68.5t62.5 27.5q36 0 60.5 -23.5t24.5 -59.5q0 -39 -25 -65.5t-69 -28.5q40 -40 101 -40q63 0 90.5 46.5t27.5 148.5v424q0 30 -23.5 43t-83.5 15v13h354v-13q-58 -2 -79 -15t-21 -43v-402q0 -241 -232 -241z" />
    <glyph glyph-name="K" unicode="K" horiz-adv-x="762" 
d="M274 313l224 239q31 34 42 60.5t-5 46.5t-63 25v13h274v-13q-63 -13 -118 -50t-133 -118l-70 -73l221 -316q46 -65 70 -86t70 -27v-14h-333v14q54 4 62 23.5t-22 62.5l-165 241l-54 -57v-213q0 -30 20.5 -42.5t73.5 -14.5v-14h-344v14q61 2 82.5 14.5t21.5 42.5v556
q0 29 -21.5 42t-82.5 15v13h346v-12q-54 -3 -75 -15.5t-21 -42.5v-314z" />
    <glyph glyph-name="L" unicode="L" horiz-adv-x="658" 
d="M24 0v14q61 2 82.5 15t21.5 42v555q0 30 -22 43t-82 15v13h351v-13q-62 -2 -81.5 -14.5t-19.5 -43.5v-607h59q73 0 119 22t81 70t78 145l15 -1l-9 -255h-593z" />
    <glyph glyph-name="M" unicode="M" horiz-adv-x="997" 
d="M30 0v14q69 9 96 44t27 112v406q0 48 -30.5 77.5t-92.5 30.5v13h282l206 -514h5l189 514h255v-13q-61 -2 -82.5 -15t-21.5 -43v-555q0 -30 21.5 -42.5t82.5 -14.5v-14h-345v14q54 2 75 14.5t21 42.5v558h-5l-233 -630h-36l-260 630h-6v-459q0 -77 28 -111.5t102 -44.5
v-14h-278z" />
    <glyph glyph-name="N" unicode="N" horiz-adv-x="809" 
d="M629 -11l-450 582h-1v-401q0 -77 29.5 -112.5t104.5 -43.5v-14h-282v14q69 9 96 44t27 112v398q0 49 -31 81t-92 35v13h236l385 -501h1v332q0 75 -31.5 111t-106.5 45v13h284v-13q-69 -10 -95 -45t-26 -111v-539h-48z" />
    <glyph glyph-name="O" unicode="O" horiz-adv-x="775" 
d="M387 -17q-151 0 -248 99.5t-97 264.5q0 163 99 265t246 102q152 0 249.5 -99.5t97.5 -263.5t-99.5 -266t-247.5 -102zM392 2q92 0 136 82t44 265q0 181 -48 263.5t-141 82.5q-92 0 -136 -81.5t-44 -264.5q0 -181 48 -264t141 -83z" />
    <glyph glyph-name="P" unicode="P" horiz-adv-x="678" 
d="M31 0v14q61 2 82.5 15t21.5 42v555q0 30 -22 43t-82 15v13h312q163 0 232.5 -51.5t69.5 -144.5q0 -89 -72.5 -144.5t-233.5 -55.5h-58v-230q0 -32 21 -44.5t89 -14.5v-12h-360zM281 319h53q91 0 124.5 43.5t33.5 139.5q0 86 -34.5 131.5t-120.5 45.5h-56v-360z" />
    <glyph glyph-name="Q" unicode="Q" horiz-adv-x="775" 
d="M392 5q92 0 136 81t44 264q0 181 -48 263t-141 82q-92 0 -136 -81t-44 -264q0 -181 48 -263t141 -82zM434 -11q34 -12 68 -41.5t57 -56.5t50.5 -48t51.5 -21q29 0 29 26q0 12 -15 25.5t-30.5 30t-15.5 36.5q0 27 18 46t47 19q30 0 50 -22.5t20 -55.5q0 -60 -54.5 -103
t-133.5 -43q-47 0 -88.5 23.5t-66.5 51t-57 51t-61 23.5q-35 0 -66.5 -17.5t-72.5 -56.5l-12 11q83 99 173 125q-127 20 -205 115t-78 241q0 164 98.5 265t246.5 101q152 0 249.5 -98.5t97.5 -263.5q0 -150 -84.5 -248.5t-215.5 -114.5z" />
    <glyph glyph-name="R" unicode="R" horiz-adv-x="735" 
d="M281 361h68q91 0 121.5 35t30.5 123q0 80 -36.5 120t-126.5 40h-57v-318zM281 344v-273q0 -30 22 -42.5t77 -14.5v-14h-349v14q61 2 82.5 15t21.5 42v555q0 30 -22 43t-82 15v13h341q147 0 214.5 -47t67.5 -122q0 -142 -212 -172v-3q103 -3 145.5 -44.5t53.5 -119.5
l6 -77q9 -61 28 -78t81 -18v-12q-56 -9 -106 -9q-89 0 -118.5 28t-35.5 99l-8 87q-8 78 -38 106.5t-113 28.5h-56z" />
    <glyph glyph-name="S" unicode="S" horiz-adv-x="588" 
d="M51 -17v253h16q109 -230 247 -230q65 0 101.5 36t36.5 87q0 58 -42.5 93t-137.5 67q-50 17 -79 29.5t-64 36t-51.5 57.5t-16.5 80q0 98 66.5 158t172.5 60q86 0 153 -38l44 44h12v-226h-16q-50 104 -100 152.5t-108 48.5q-50 0 -86.5 -31t-36.5 -85q0 -56 42.5 -89
t136.5 -63q44 -14 73 -27t61.5 -36t49 -58t16.5 -81q0 -97 -61 -165.5t-181 -68.5q-95 0 -177 46l-59 -50h-12z" />
    <glyph glyph-name="T" unicode="T" horiz-adv-x="726" 
d="M175 0v14q65 1 90.5 14.5t25.5 42.5v608h-25q-55 0 -103.5 -52t-104.5 -161l-15 2l6 229h629l5 -229l-15 -2q-56 109 -104 161t-103 52h-24v-608q0 -29 25.5 -42.5t90.5 -14.5v-14h-378z" />
    <glyph glyph-name="U" unicode="U" horiz-adv-x="808" 
d="M412 -17q-287 0 -287 236v407q0 30 -22 43t-82 15v13h346v-13q-53 -2 -74.5 -15t-21.5 -43v-412q0 -197 192 -197q80 0 125 45q57 57 57 166v300q0 75 -31.5 111t-106.5 45v13h285v-13q-69 -10 -95 -45t-26 -111v-303q0 -115 -63.5 -178.5t-195.5 -63.5z" />
    <glyph glyph-name="V" unicode="V" horiz-adv-x="716" 
d="M339 -13l-234 598q-21 53 -42.5 72.5t-75.5 26.5v13h356v-13q-69 -3 -87 -21.5t-2 -61.5l173 -453h5l153 403q24 61 7 91.5t-84 41.5v13h237v-13q-53 -10 -82 -43t-63 -120l-208 -534h-53z" />
    <glyph glyph-name="W" unicode="W" horiz-adv-x="1046" 
d="M523 509l-27 76q-18 55 -38.5 75.5t-67.5 23.5v13h330v-13q-60 -3 -76.5 -21t-1.5 -62l140 -428h6l117 376q21 65 4.5 94.5t-77.5 40.5v13h233v-13q-57 -10 -85.5 -43.5t-57.5 -119.5l-169 -534h-51l-168 490l-173 -490h-53l-199 598q-18 53 -39.5 72.5t-74.5 26.5v13
h333v-13q-57 -3 -71 -21.5t-1 -61.5l137 -431h6z" />
    <glyph glyph-name="X" unicode="X" horiz-adv-x="722" 
d="M403 411l106 146q39 52 28.5 86.5t-73.5 40.5v13h254v-13q-57 -8 -97.5 -40.5t-102.5 -115.5l-100 -134l194 -297q27 -42 51.5 -58.5t82.5 -24.5v-14h-356v14q63 3 77 22t-13 60l-130 209l-117 -165q-39 -55 -28.5 -87.5t71.5 -38.5v-14h-257v14q62 7 102 37.5t103 117.5
l112 154l-179 276q-29 45 -53 60.5t-82 24.5v13h353v-13q-61 -3 -75 -23.5t12 -60.5z" />
    <glyph glyph-name="Y" unicode="Y" horiz-adv-x="691" 
d="M406 328l129 230q33 59 23.5 85.5t-72.5 40.5v13h231v-13q-52 -9 -88 -40t-82 -112l-127 -224v-237q0 -30 22 -42.5t85 -14.5v-14h-359v14q63 2 85 14.5t22 42.5v216l-176 315q-23 39 -46 56t-68 26v13h353v-13q-71 -4 -87 -25t10 -61z" />
    <glyph glyph-name="Z" unicode="Z" horiz-adv-x="667" 
d="M32 0l-1 13l431 664h-169q-55 0 -105.5 -50t-114.5 -165l-16 2l15 233h558l1 -13l-431 -664h196q55 0 102 52t118 176l15 -2l-11 -246h-588z" />
    <glyph glyph-name="bracketleft" unicode="[" horiz-adv-x="371" 
d="M95 -165v929h299v-20h-180v-889h180v-20h-299z" />
    <glyph glyph-name="backslash" unicode="\" horiz-adv-x="457" 
d="M418 -215l-208 480l-212 481h30l208 -481l212 -480h-30z" />
    <glyph glyph-name="bracketright" unicode="]" horiz-adv-x="371" 
d="M-23 -165v20h180v889h-180v20h299v-929h-299z" />
    <glyph glyph-name="asciicircum" unicode="^" horiz-adv-x="359" 
d="M19 517l153 248h17l150 -248h-24l-135 130l-137 -130h-24z" />
    <glyph glyph-name="underscore" unicode="_" horiz-adv-x="440" 
d="M-2 0v31h444v-31h-444z" />
    <glyph glyph-name="grave" unicode="`" horiz-adv-x="238" 
d="M167 526l-82 85q-37 38 -49.5 55.5t-12.5 33.5q0 22 17 37.5t41 15.5q26 0 40 -22t28 -80l35 -125h-17z" />
    <glyph glyph-name="a" unicode="a" horiz-adv-x="511" 
d="M170 -5q-67 0 -102.5 35t-35.5 82q0 31 16.5 59t46.5 45q43 23 128.5 34.5t90.5 13.5v81q0 54 -17.5 78.5t-56.5 24.5q-46 0 -73 -22q27 -27 27 -58t-18 -49.5t-51 -18.5q-29 0 -48.5 19.5t-19.5 47.5q0 46 52 73t152 27q93 0 139.5 -37.5t46.5 -118.5v-223
q0 -38 16.5 -47.5t56.5 6.5l6 -11q-62 -40 -107 -40q-46 0 -68.5 18.5t-28.5 57.5h-4q-69 -77 -148 -77zM242 50q44 0 72 44v150q-84 -13 -112.5 -37t-28.5 -79q0 -36 18 -57t51 -21z" />
    <glyph glyph-name="b" unicode="b" horiz-adv-x="562" 
d="M63 -19l2 95v570q0 26 -14 37t-61 12v12l208 10v-309q64 62 150 62q87 0 135 -63.5t48 -160.5q0 -111 -60.5 -182.5t-160.5 -71.5q-97 0 -164 44l-65 -55h-18zM289 11q51 0 75.5 62t24.5 168q0 83 -28.5 135t-79.5 52q-38 0 -83 -37v-310q32 -70 91 -70z" />
    <glyph glyph-name="c" unicode="c" horiz-adv-x="482" 
d="M263 -8q-108 0 -171 62.5t-63 168.5q0 113 70 180t178 67q91 0 138 -34t47 -77q0 -33 -18.5 -53t-51.5 -20q-35 0 -54.5 20t-19.5 49q0 45 36 63q-23 34 -73 34t-80 -58.5t-30 -156.5q0 -87 36 -145.5t107 -58.5q82 0 143 80l11 -7q-73 -114 -205 -114z" />
    <glyph glyph-name="d" unicode="d" horiz-adv-x="565" 
d="M229 -8q-93 0 -146.5 64t-53.5 167q0 104 63 175.5t170 71.5q52 0 98 -19v195q0 26 -14.5 37t-60.5 12v12l208 10v-662q0 -23 14.5 -34.5t54.5 -11.5v-9l-200 -4v58q-55 -62 -133 -62zM288 41q39 0 72 30v332q-32 48 -87 48q-48 0 -75.5 -59.5t-27.5 -157.5
q0 -83 31 -138t87 -55z" />
    <glyph glyph-name="e" unicode="e" horiz-adv-x="498" 
d="M266 -8q-107 0 -172 62.5t-65 170.5q0 110 68 177.5t168 67.5q103 0 157 -61.5t49 -160.5h-301v-19v-1q0 -92 38.5 -143t112.5 -51q44 0 76 20.5t62 61.5l11 -7q-74 -117 -204 -117zM259 451q-82 0 -88 -185h164q9 87 -10.5 136t-65.5 49z" />
    <glyph glyph-name="f" unicode="f" horiz-adv-x="357" 
d="M30 0v12q43 1 56 8.5t13 28.5v375h-86v16l86 19v40q0 117 54 173q50 51 152 51q72 0 109.5 -24.5t37.5 -63.5q0 -31 -17 -50t-49 -19q-31 0 -51 17.5t-20 53.5q0 32 21 57q-13 10 -35 10q-26 0 -42 -16q-27 -27 -27 -131v-100h126v-32h-126v-376q0 -21 18.5 -28t75.5 -9
v-12h-296z" />
    <glyph glyph-name="g" unicode="g" horiz-adv-x="479" 
d="M251 -183q65 0 106 27.5t41 74.5q0 62 -117 62h-127q-52 -27 -52 -71q0 -93 149 -93zM246 176q38 0 53 32t15 105q0 137 -77 137q-39 0 -53.5 -31.5t-14.5 -105.5q0 -71 18.5 -104t58.5 -33zM242 467q52 0 93 -16q40 92 110 92q29 0 45 -15.5t16 -40.5q0 -21 -13 -35
t-35 -14q-20 0 -35.5 16t-15.5 41q-32 -11 -55 -51q91 -40 91 -129q0 -71 -57.5 -114t-143.5 -43q-36 0 -65 7q-56 -18 -56 -47q0 -32 89 -32h100q173 0 173 -121q0 -68 -71 -116.5t-187 -48.5q-93 0 -152 27t-59 70q0 69 113 85v3q-84 26 -84 94q0 27 28 53t78 40
q-109 37 -109 139q0 70 57.5 113t144.5 43z" />
    <glyph glyph-name="h" unicode="h" horiz-adv-x="585" 
d="M12 0v12q42 1 55.5 8.5t13.5 28.5v597q0 26 -14.5 37t-60.5 12v12l208 10v-353q32 48 77.5 75.5t94.5 27.5q126 0 126 -144v-274q0 -21 13 -28.5t56 -8.5v-12h-256v12q30 1 42 8.5t12 28.5v264q0 95 -73 95q-51 0 -92 -66v-293q0 -21 11.5 -28.5t41.5 -8.5v-12h-255z" />
    <glyph glyph-name="i" unicode="i" horiz-adv-x="311" 
d="M159 541q-36 0 -57.5 20.5t-21.5 56.5t22 58.5t57 22.5t56.5 -21.5t21.5 -56.5q0 -37 -21.5 -58.5t-56.5 -21.5zM23 0v12q43 1 57.5 8.5t14.5 28.5v344q0 24 -16 36.5t-56 13.5v12l205 9v-415q0 -21 13.5 -28.5t56.5 -8.5v-12h-275z" />
    <glyph glyph-name="j" unicode="j" horiz-adv-x="304" 
d="M159 541q-36 0 -57.5 20.5t-21.5 56.5t22 58.5t57 22.5t56.5 -21.5t21.5 -56.5q0 -37 -21.5 -58.5t-56.5 -21.5zM34 -200q-66 0 -102.5 24t-36.5 60q0 31 19 50t49 19t49 -19t19 -48q0 -37 -27 -59q16 -8 29 -8q64 0 64 110v464q0 25 -17.5 37t-63.5 13v12l212 9v-445
q0 -68 -11.5 -106t-41.5 -68q-47 -45 -141 -45z" />
    <glyph glyph-name="k" unicode="k" horiz-adv-x="557" 
d="M214 187v-138q0 -21 11 -28.5t39 -8.5v-12h-252v12q42 1 55.5 8.5t13.5 28.5v597q0 26 -14.5 37t-60.5 12v12l208 10v-506l135 144q65 71 -32 95v12h222v-12q-48 -10 -86 -34.5t-87 -73.5l-34 -32l157 -232q28 -41 44 -51.5t51 -14.5v-12h-262v12q35 2 40.5 14t-12.5 40
l-101 157z" />
    <glyph glyph-name="l" unicode="l" horiz-adv-x="302" 
d="M18 0v12q41 1 54.5 8.5t13.5 28.5v597q0 26 -14.5 37t-60.5 12v12l208 10v-668q0 -21 13 -28.5t56 -8.5v-12h-270z" />
    <glyph glyph-name="m" unicode="m" horiz-adv-x="875" 
d="M328 0v12q31 1 41 8.5t10 28.5v264q0 95 -72 95q-25 0 -43.5 -16t-40.5 -50v-293q0 -21 9.5 -28.5t38.5 -8.5v-12h-251v12q43 1 56.5 8.5t13.5 28.5v344q0 25 -14.5 37t-55.5 13v12l201 9v-100q69 103 166 103q105 0 122 -104q31 47 76 75.5t91 28.5q126 0 126 -144v-274
q0 -21 13 -28.5t56 -8.5v-12h-251v12q30 1 39.5 8.5t9.5 28.5v264q0 95 -69 95q-44 0 -89 -66q1 -7 1 -16v-277q0 -21 11 -28.5t42 -8.5v-12h-237z" />
    <glyph glyph-name="n" unicode="n" horiz-adv-x="592" 
d="M20 0v12q43 1 56.5 8.5t13.5 28.5v344q0 25 -14.5 37t-55.5 13v12l201 9v-100q32 48 78 75.5t95 27.5q125 0 125 -144v-274q0 -21 13 -28.5t56 -8.5v-12h-257v12q31 1 43 8.5t12 28.5v265q0 94 -71 94q-49 0 -92 -66v-293q0 -21 11.5 -28.5t41.5 -8.5v-12h-256z" />
    <glyph glyph-name="o" unicode="o" horiz-adv-x="541" 
d="M271 -8q-111 0 -176.5 64t-65.5 174q0 109 67.5 174.5t174.5 65.5q110 0 175.5 -63.5t65.5 -172.5t-67 -175.5t-174 -66.5zM275 11q51 0 73 54.5t22 166.5q0 219 -104 219q-52 0 -73 -53.5t-21 -165.5q0 -221 103 -221z" />
    <glyph glyph-name="p" unicode="p" horiz-adv-x="567" 
d="M5 -190v12q42 1 55.5 8.5t13.5 28.5v534q0 25 -14.5 37t-55.5 13v12l201 9v-62q75 68 148 68q87 0 136 -63.5t49 -170.5q0 -105 -57.5 -174.5t-156.5 -69.5q-63 0 -117 24v-157q0 -21 18.5 -28.5t74.5 -8.5v-12h-295zM300 11q96 0 96 220q0 85 -26 138.5t-79 53.5
q-41 0 -84 -37v-309q28 -66 93 -66z" />
    <glyph glyph-name="q" unicode="q" horiz-adv-x="562" 
d="M271 -190v12q55 1 74 9t19 26v195q-69 -60 -148 -60q-88 0 -136.5 64t-48.5 160q0 110 61 182t162 72q94 0 161 -45l66 56h18l-2 -95v-529q0 -19 13.5 -26.5t54.5 -8.5v-12h-294zM282 36q38 0 82 34v311q-32 70 -89 70q-51 0 -76.5 -62.5t-25.5 -167.5q0 -81 28.5 -133
t80.5 -52z" />
    <glyph glyph-name="r" unicode="r" horiz-adv-x="450" 
d="M20 0v12q43 1 56.5 8.5t13.5 28.5v344q0 25 -14.5 37t-55.5 13v12l201 9v-96q25 47 61.5 73.5t76.5 26.5q42 0 65.5 -23t23.5 -60q0 -34 -20 -55.5t-51 -21.5q-34 0 -55 20.5t-21 49.5q0 19 7 40q-46 -6 -85 -71v-298q0 -21 17 -28.5t72 -8.5v-12h-292z" />
    <glyph glyph-name="s" unicode="s" horiz-adv-x="437" 
d="M36 -8v172h14q50 -82 91.5 -117.5t93.5 -35.5q38 0 59 20t21 52q0 35 -26.5 55t-103.5 42q-82 23 -115.5 52.5t-33.5 84.5q0 69 49.5 111t132.5 42q74 0 125 -34l28 34h12v-154h-14q-47 75 -79.5 105t-77.5 30q-34 0 -54.5 -20.5t-20.5 -54.5q0 -29 27.5 -46.5
t83.5 -32.5q84 -21 123.5 -53.5t39.5 -92.5q0 -69 -51 -114t-135 -45q-28 0 -76.5 12t-69.5 25l-31 -37h-12z" />
    <glyph glyph-name="t" unicode="t" horiz-adv-x="375" 
d="M231 -9q-138 0 -138 140v293h-89v16l91 19v127l131 40v-169h141v-32h-141v-303q0 -44 13 -63.5t45 -19.5q47 0 79 65l12 -6q-22 -55 -56 -81t-88 -26z" />
    <glyph glyph-name="u" unicode="u" horiz-adv-x="582" 
d="M214 -8q-64 0 -100 37t-36 109v261q0 25 -14.5 36.5t-54.5 12.5v12l202 4v-314q0 -96 73 -96q49 0 89 63v282q0 24 -15.5 36t-54.5 13v12l203 4v-414q0 -21 13.5 -29t55.5 -9v-12h-200v95q-65 -103 -161 -103z" />
    <glyph glyph-name="v" unicode="v" horiz-adv-x="514" 
d="M222 -7l-154 391q-14 35 -31 48t-53 18v12h273v-12q-33 -3 -46 -10t-13 -22q0 -11 5 -22l105 -288h4l94 240q12 30 12 48q0 44 -74 54v12h192v-12q-64 -6 -93 -76l-154 -381h-67z" />
    <glyph glyph-name="w" unicode="w" horiz-adv-x="783" 
d="M393 324l-21 60q-12 35 -27.5 48t-48.5 18v12h263v-12q-31 -3 -44.5 -10.5t-13.5 -23.5q0 -9 3 -21l91 -281h4l74 227q12 37 12 57q0 23 -16 35t-52 17v12h190v-12q-73 -7 -97 -76l-130 -381h-71l-106 302l-118 -302h-69l-148 391q-13 34 -30 47.5t-53 18.5v12h268v-12
q-57 -6 -57 -33q0 -9 5 -22l102 -284h4z" />
    <glyph glyph-name="x" unicode="x" horiz-adv-x="518" 
d="M297 280l62 78q34 44 26.5 64t-57.5 28v12h194v-12q-40 -7 -67 -25.5t-62 -60.5l-82 -98l127 -180q29 -40 46 -54t51 -20v-12h-264v12q43 5 50 18t-13 40l-84 126l-76 -95q-33 -45 -23.5 -63t62.5 -26v-12h-197v12q39 8 65 24.5t58 55.5l98 118l-120 169
q-31 42 -47.5 54.5t-50.5 16.5v12h264v-12q-39 -5 -46.5 -17.5t10.5 -38.5z" />
    <glyph glyph-name="y" unicode="y" horiz-adv-x="505" 
d="M257 -19l-190 403q-16 36 -32.5 48.5t-53.5 17.5v12h275v-12q-42 -4 -53 -16t1 -38l115 -268l87 220q20 51 6.5 72.5t-68.5 29.5v12h193v-12q-65 -7 -93 -76l-175 -420q-63 -154 -159 -154q-43 0 -67.5 20.5t-24.5 56.5q0 27 18 47t48 20q26 0 44.5 -18.5t18.5 -46.5
q0 -35 -25 -58q38 4 68.5 36.5t60.5 109.5z" />
    <glyph glyph-name="z" unicode="z" horiz-adv-x="488" 
d="M28 0l-2 15l296 427h-92q-45 0 -80.5 -31.5t-86.5 -121.5l-16 2l13 171h405l2 -14l-297 -428h101q47 0 81 33.5t90 129.5l17 -2l-13 -181h-418z" />
    <glyph glyph-name="braceleft" unicode="{" horiz-adv-x="404" 
d="M429 -159q-129 0 -195.5 47.5t-66.5 140.5q0 27 9.5 78.5t9.5 66.5q0 63 -32 92t-129 35v16q98 7 129.5 34t31.5 89q0 15 -9.5 64.5t-9.5 75.5q0 91 65.5 135t196.5 49v-13q-46 -4 -74 -16t-40 -37t-15 -47.5t-3 -65.5q0 -13 3 -51.5t3 -62.5q0 -77 -45.5 -112
t-170.5 -48v-5q120 -10 168 -47.5t48 -115.5q0 -24 -3 -65t-3 -54q0 -34 1.5 -53.5t8.5 -43.5t20.5 -36.5t39 -22.5t62.5 -13v-14z" />
    <glyph glyph-name="bar" unicode="|" horiz-adv-x="306" 
d="M140 -215v961h26v-961h-26z" />
    <glyph glyph-name="braceright" unicode="}" horiz-adv-x="404" 
d="M-25 -159v14q37 3 62.5 13t39 22.5t20.5 36.5t8.5 43.5t1.5 53.5q0 13 -3 54t-3 65q0 78 48 115.5t168 47.5v5q-124 13 -170 48t-46 112q0 24 3 62.5t3 51.5q0 43 -3 65.5t-15 47.5t-40 37t-74 16v13q131 -5 196.5 -49t65.5 -135q0 -26 -9.5 -75.5t-9.5 -64.5
q0 -62 32 -89t130 -34v-16q-97 -6 -129.5 -35t-32.5 -92q0 -15 9.5 -66.5t9.5 -78.5q0 -93 -66.5 -140.5t-195.5 -47.5z" />
    <glyph glyph-name="asciitilde" unicode="~" horiz-adv-x="402" 
d="M40 272q7 73 30.5 107t67.5 34q28 0 85 -28t74 -28q18 0 28.5 13t20.5 47h17q-7 -73 -30.5 -107t-67.5 -34q-28 0 -85 28t-74 28q-18 0 -28.5 -13t-20.5 -47h-17z" />
    <glyph glyph-name="uni00A0" unicode="&#xa0;" horiz-adv-x="191" 
 />
    <glyph glyph-name="exclamdown" unicode="&#xa1;" horiz-adv-x="286" 
d="M142 568q-34 0 -57 23t-23 55q0 33 23.5 56t57.5 23t57 -22.5t23 -55.5q0 -32 -23.5 -55.5t-57.5 -23.5zM142 -17q-36 0 -56 25t-20 69q0 40 29.5 193t38.5 235h16q9 -84 38 -236.5t29 -191.5q0 -45 -19.5 -69.5t-55.5 -24.5z" />
    <glyph glyph-name="cent" unicode="&#xa2;" horiz-adv-x="548" 
d="M294 -87v79q-108 4 -171.5 67t-63.5 166q0 104 66.5 171t168.5 73v69h26v-68q90 -1 140.5 -39t50.5 -82q0 -32 -18 -52.5t-49 -20.5q-35 0 -54 19.5t-19 49.5q0 22 11 39t26 24q-10 17 -33.5 30t-54.5 14v-416q15 -3 31 -3q84 0 151 87l11 -7q-75 -115 -193 -120v-80h-26
zM201 239q0 -160 93 -196v406q-93 -22 -93 -210z" />
    <glyph glyph-name="sterling" unicode="&#xa3;" horiz-adv-x="613" 
d="M470 352l-1 -21h-144q8 -27 8 -54q0 -90 -98 -147q12 -2 43.5 -8l50.5 -9.5t51 -6.5t63 -3q59 0 88 21.5t39 82.5l16 -1q-1 -105 -41 -163t-117 -58q-95 0 -213 115q-22 -58 -50 -86.5t-68 -28.5q-31 0 -48 17.5t-17 44.5q0 39 38 64.5t97 25.5q19 0 38 -3q9 20 9 47
q0 13 -2.5 27.5t-5 24t-10 26.5l-10 23t-13 25.5t-12.5 23.5h-108l1 21h97q-29 62 -29 115q0 97 70.5 154.5t184.5 57.5q80 0 136 -40t56 -101q0 -36 -20.5 -60.5t-54.5 -24.5q-38 0 -60.5 21t-22.5 60q0 56 59 81q-38 45 -102 45q-48 0 -78.5 -31.5t-30.5 -97.5
q0 -32 9 -61.5t26.5 -66.5t22.5 -51h153z" />
    <glyph glyph-name="yen" unicode="&#xa5;" horiz-adv-x="692" 
d="M65 311v21h181l-133 240q-21 37 -44 53.5t-67 26.5v13h343v-13q-36 -2 -56 -8t-26 -17.5t-3 -25t14 -33.5l123 -237l98 178q27 49 28.5 76.5t-16 41t-60.5 24.5v14h226v-13q-47 -9 -81 -40.5t-70 -100.5l-98 -179h183v-21h-194l-7 -13v-63h201v-21h-201v-139
q0 -29 20.5 -44.5t84.5 -17.5v-13h-351v13q64 2 84.5 17.5t20.5 44.5v139h-200v21h200v63l-8 13h-192z" />
    <glyph glyph-name="brokenbar" unicode="&#xa6;" horiz-adv-x="306" 
d="M166 337h-26v409h26v-409zM140 194h26v-409h-26v409z" />
    <glyph glyph-name="section" unicode="&#xa7;" horiz-adv-x="560" 
d="M57 236q0 50 35 88.5t97 54.5v2q-111 47 -111 131q0 77 60 122t153 45q77 0 134 -29.5t57 -79.5q0 -31 -18 -51t-47 -20q-30 0 -48 19.5t-18 45.5q0 43 36 62q-27 33 -97 33q-51 0 -81.5 -24t-30.5 -64q0 -36 33.5 -58.5t119.5 -53.5q95 -35 134 -67t39 -89
q0 -100 -122 -145v-2q57 -26 80 -54.5t23 -75.5q0 -80 -57.5 -126t-157.5 -46q-93 0 -153.5 31t-60.5 89q0 30 18.5 52.5t52.5 22.5q32 0 50.5 -20t18.5 -48q0 -44 -46 -68q36 -39 127 -39q56 0 86 27t30 65q0 36 -35 61t-127 58q-90 31 -132 62.5t-42 88.5zM356 168
q63 26 63 72q0 34 -28 55t-101 48q-25 10 -76 27q-69 -21 -69 -75q0 -36 38 -58t123 -50q41 -14 50 -19z" />
    <glyph glyph-name="dieresis" unicode="&#xa8;" horiz-adv-x="388" 
d="M296 531q-32 0 -52.5 21t-20.5 53t20.5 53.5t52.5 21.5t52.5 -21.5t20.5 -53.5t-20.5 -53t-52.5 -21zM92 531q-31 0 -52 21t-21 53t21 53.5t52 21.5q32 0 53 -21.5t21 -53.5t-21 -53t-53 -21z" />
    <glyph glyph-name="copyright" unicode="&#xa9;" horiz-adv-x="834" 
d="M417 -34q-162 0 -272.5 110t-110.5 273q0 161 110.5 271.5t272.5 110.5t272.5 -110.5t110.5 -271.5q0 -163 -110.5 -273t-272.5 -110zM417 -17q154 0 258.5 106.5t104.5 259.5t-104.5 259t-258.5 106t-258.5 -106t-104.5 -259t104.5 -259.5t258.5 -106.5zM420 149
q-92 0 -143.5 51t-51.5 145q0 95 61 152t148 57q62 0 100 -27l23 29h12v-151h-15q-55 134 -128 134q-48 0 -76 -47.5t-28 -134.5q0 -86 35 -133t88 -47q84 0 123 91l16 -7q-48 -112 -164 -112z" />
    <glyph glyph-name="ordfeminine" unicode="&#xaa;" horiz-adv-x="448" 
d="M145 336q-52 0 -80 25t-28 64q0 56 48 82q32 17 99 25.5t71 9.5v67q0 37 -12 53t-42 16q-39 0 -59 -15q21 -18 21 -43q0 -24 -14 -38t-39 -14q-22 0 -37.5 15t-15.5 37q0 34 41 55t119 21q72 0 107.5 -28.5t35.5 -89.5v-168q0 -56 56 -32l5 -10q-46 -31 -84 -31
q-67 0 -74 57h-4q-52 -58 -114 -58zM201 382q33 0 54 30v113q-62 -10 -84 -28t-22 -59q0 -27 14 -41.5t38 -14.5z" />
    <glyph glyph-name="guillemotleft" unicode="&#xab;" horiz-adv-x="513" 
d="M459 27l-195 169q-23 19 -23 29t23 30l195 169l12 -9l-120 -190l120 -190zM253 27l-196 169q-22 19 -22 29t22 30l196 169l12 -9l-120 -190l120 -190z" />
    <glyph glyph-name="registered" unicode="&#xae;" horiz-adv-x="385" 
d="M191 423q-65 0 -109 44t-44 111t43.5 110t109.5 43q68 0 111.5 -43t43.5 -110t-44 -111t-111 -44zM191 435q62 0 101 40.5t39 102.5q0 61 -39 101t-101 40t-100 -39.5t-38 -101.5t38 -102.5t100 -40.5zM176 587h16q19 0 26.5 8t7.5 28q0 18 -8 25.5t-28 7.5h-14v-69z
M176 579v-59q0 -13 22 -13v-7h-81v7q23 0 23 13v125q0 11 -23 11v8h76q72 0 72 -40q0 -32 -47 -39v-3q23 -2 31.5 -9.5t10.5 -24.5l2 -22q1 -18 24 -18v-7q-10 -3 -26 -3q-20 0 -27.5 7t-8.5 24l-1 18q-1 18 -8 25t-24 7h-15z" />
    <glyph glyph-name="macron" unicode="&#xaf;" horiz-adv-x="321" 
d="M12 556v47h298v-47h-298z" />
    <glyph glyph-name="degree" unicode="&#xb0;" horiz-adv-x="390" 
d="M196 426q-72 0 -116 40t-44 106q0 64 45 105.5t114 41.5q71 0 115 -40t44 -105q0 -64 -45 -106t-113 -42zM198 447q72 0 72 126q0 125 -77 125q-72 0 -72 -124q0 -127 77 -127z" />
    <glyph glyph-name="plusminus" unicode="&#xb1;" horiz-adv-x="530" 
d="M59 314v22h194v193h26v-193h192v-22h-192v-196h-26v196h-194zM59 0v22h412v-22h-412z" />
    <glyph glyph-name="acute" unicode="&#xb4;" horiz-adv-x="238" 
d="M50 526l35 125q14 58 28 80t40 22q24 0 41 -15.5t17 -37.5q0 -16 -12.5 -33t-48.5 -56l-83 -85h-17z" />
    <glyph glyph-name="paragraph" unicode="&#xb6;" horiz-adv-x="676" 
d="M377 -100v278q-144 3 -233 68t-89 176q0 109 84.5 176t235.5 67h264v-13q-75 -3 -96 -12.5t-21 -39.5v-700h-26v745h-92v-745h-27z" />
    <glyph glyph-name="periodcentered" unicode="&#xb7;" horiz-adv-x="254" 
d="M126 243q-34 0 -56.5 22.5t-22.5 54.5q0 33 23.5 56t57.5 23t57 -22.5t23 -54.5t-24 -55.5t-58 -23.5z" />
    <glyph glyph-name="cedilla" unicode="&#xb8;" horiz-adv-x="282" 
d="M112 -251q-59 0 -103 22l9 16q41 -16 77 -16q55 0 55 50q0 23 -21.5 37.5t-57.5 14.5q-14 0 -34 -5l-6 9l127 120h26l-68 -64l2 -3q59 -2 89 -28.5t30 -61.5q0 -40 -33.5 -65.5t-91.5 -25.5z" />
    <glyph glyph-name="ordmasculine" unicode="&#xba;" horiz-adv-x="456" 
d="M228 335q-87 0 -137 48t-50 131q0 82 51.5 131.5t135.5 49.5q86 0 136.5 -48t50.5 -130t-51.5 -132t-135.5 -50zM231 352q40 0 56 40t16 124q0 82 -18 122t-60 40q-41 0 -56.5 -39t-15.5 -123q0 -83 18 -123.5t60 -40.5z" />
    <glyph glyph-name="guillemotright" unicode="&#xbb;" horiz-adv-x="513" 
d="M261 26l-12 9l119 190l-119 190l12 8l195 -169q23 -19 23 -29t-23 -30zM54 26l-12 9l120 190l-120 190l12 8l196 -169q22 -19 22 -29t-22 -30z" />
    <glyph glyph-name="questiondown" unicode="&#xbf;" horiz-adv-x="509" 
d="M285 568q-34 0 -56.5 22.5t-22.5 55.5q0 32 23.5 55.5t57.5 23.5t57 -22.5t23 -55.5q0 -32 -23.5 -55.5t-58.5 -23.5zM270 -16q-117 0 -182.5 50.5t-65.5 129.5q0 154 251 206v135h27v-150q-78 -26 -107.5 -72t-29.5 -122q0 -159 127 -159q36 0 66.5 15t44.5 38
q-68 20 -68 84q0 33 21 58t58 25q38 0 62 -25.5t24 -62.5q0 -67 -65.5 -108.5t-162.5 -41.5z" />
    <glyph glyph-name="Agrave" unicode="&#xc0;" 
d="M463 92l-62 173h-230l-34 -92q-31 -81 -16.5 -115t84.5 -44v-14h-236v14q49 13 81 49.5t63 113.5l207 536h68l226 -614q17 -45 37 -61t75 -24v-14h-358v14q70 3 90 20t5 58zM179 285h215l-102 289h-5zM395 766l-82 85q-37 38 -49.5 55.5t-12.5 33.5q0 22 17 37.5t41 15.5
q26 0 40 -22t28 -80l35 -125h-17z" />
    <glyph glyph-name="Aacute" unicode="&#xc1;" 
d="M463 92l-62 173h-230l-34 -92q-31 -81 -16.5 -115t84.5 -44v-14h-236v14q49 13 81 49.5t63 113.5l207 536h68l226 -614q17 -45 37 -61t75 -24v-14h-358v14q70 3 90 20t5 58zM179 285h215l-102 289h-5zM317 766l35 125q14 58 28 80t40 22q24 0 41 -15.5t17 -37.5
q0 -16 -12.5 -33t-48.5 -56l-83 -85h-17z" />
    <glyph glyph-name="Acircumflex" unicode="&#xc2;" 
d="M463 92l-62 173h-230l-34 -92q-31 -81 -16.5 -115t84.5 -44v-14h-236v14q49 13 81 49.5t63 113.5l207 536h68l226 -614q17 -45 37 -61t75 -24v-14h-358v14q70 3 90 20t5 58zM179 285h215l-102 289h-5zM205 759l142 204h13l135 -204h-16l-129 89l-129 -89h-16z" />
    <glyph glyph-name="Atilde" unicode="&#xc3;" 
d="M463 92l-62 173h-230l-34 -92q-31 -81 -16.5 -115t84.5 -44v-14h-236v14q49 13 81 49.5t63 113.5l207 536h68l226 -614q17 -45 37 -61t75 -24v-14h-358v14q70 3 90 20t5 58zM179 285h215l-102 289h-5zM189 765q8 74 31 107.5t68 33.5q28 0 86.5 -27t75.5 -27
q18 0 29.5 13t20.5 47h16q-7 -74 -30.5 -107.5t-68.5 -33.5q-28 0 -86.5 27t-75.5 27q-18 0 -29.5 -13t-20.5 -47h-16z" />
    <glyph glyph-name="Adieresis" unicode="&#xc4;" 
d="M463 92l-62 173h-230l-34 -92q-31 -81 -16.5 -115t84.5 -44v-14h-236v14q49 13 81 49.5t63 113.5l207 536h68l226 -614q17 -45 37 -61t75 -24v-14h-358v14q70 3 90 20t5 58zM179 285h215l-102 289h-5zM452 771q-32 0 -52.5 21t-20.5 53t20.5 53.5t52.5 21.5t52.5 -21.5
t20.5 -53.5t-20.5 -53t-52.5 -21zM248 771q-31 0 -52 21t-21 53t21 53.5t52 21.5q32 0 53 -21.5t21 -53.5t-21 -53t-53 -21z" />
    <glyph glyph-name="Aring" unicode="&#xc5;" 
d="M353 712q50 0 50 90q0 91 -53 91q-50 0 -50 -91q0 -90 53 -90zM171 265l-34 -92q-31 -81 -16.5 -115t84.5 -44v-14h-236v14q49 13 81 49.5t63 113.5l202 523q-41 8 -63.5 36t-22.5 67q0 47 33.5 77.5t88.5 30.5q57 0 90 -30t33 -77q0 -37 -21.5 -64.5t-60.5 -37.5
l222 -603q17 -45 37 -61t75 -24v-14h-358v14q70 3 90 20t5 58l-62 173h-230zM394 285l-102 289h-5l-108 -289h215z" />
    <glyph glyph-name="AE" unicode="&#xc6;" horiz-adv-x="1062" 
d="M239 279l-75 -120q-37 -58 -37 -90q0 -42 69 -55v-14h-234v14q95 24 185 163l272 428q15 21 15 35q0 35 -116 44v13h657l3 -238l-15 -1q-30 67 -49 101.5t-46 65.5t-58.5 42.5t-77.5 11.5h-104v-308h42q62 0 98 30.5t56 105.5h13v-292h-13q-20 75 -56 106.5t-98 31.5h-42
v-334h99q104 0 155 48.5t109 185.5l15 -2l-5 -251h-623v14q61 2 82.5 15t21.5 42v208h-243zM482 299v361h-4l-226 -361h230z" />
    <glyph glyph-name="Ccedilla" unicode="&#xc7;" horiz-adv-x="721" 
d="M386 -17q-160 0 -253 95t-93 259q0 168 108.5 272.5t264.5 104.5q104 0 185 -45l45 50h12v-259h-15q-53 120 -107.5 177.5t-134.5 57.5q-88 0 -142 -88.5t-54 -252.5q0 -161 66 -246t166 -85q157 0 231 162l18 -9q-77 -177 -265 -192l-54 -51l2 -3q59 -2 89 -28.5
t30 -61.5q0 -40 -33.5 -65.5t-91.5 -25.5q-59 0 -103 22l9 16q41 -16 77 -16q55 0 55 50q0 23 -21.5 37.5t-57.5 14.5q-14 0 -34 -5l-6 9l112 106h-5z" />
    <glyph glyph-name="Egrave" unicode="&#xc8;" horiz-adv-x="715" 
d="M31 0v14q61 2 82.5 15t21.5 42v555q0 30 -22 43t-82 15v13h597l3 -238l-15 -1q-30 67 -49 101.5t-46 65.5t-58.5 42.5t-77.5 11.5h-104v-308h42q62 0 97.5 30.5t55.5 105.5h13v-292h-13q-20 76 -56 107t-97 31h-42v-334h99q104 0 155 48.5t109 185.5l15 -2l-5 -251h-623z
M398 766l-82 85q-37 38 -49.5 55.5t-12.5 33.5q0 22 17 37.5t41 15.5q26 0 40 -22t28 -80l35 -125h-17z" />
    <glyph glyph-name="Eacute" unicode="&#xc9;" horiz-adv-x="715" 
d="M337 766l35 125q14 58 28 80t40 22q24 0 41 -15.5t17 -37.5q0 -16 -12.5 -33t-48.5 -56l-83 -85h-17zM31 0v14q61 2 82.5 15t21.5 42v555q0 30 -22 43t-82 15v13h597l3 -238l-15 -1q-30 67 -49 101.5t-46 65.5t-58.5 42.5t-77.5 11.5h-104v-308h42q62 0 97.5 30.5
t55.5 105.5h13v-292h-13q-20 76 -56 107t-97 31h-42v-334h99q104 0 155 48.5t109 185.5l15 -2l-5 -251h-623z" />
    <glyph glyph-name="Ecircumflex" unicode="&#xca;" horiz-adv-x="715" 
d="M204 766l142 204h13l135 -204h-16l-129 89l-129 -89h-16zM31 0v14q61 2 82.5 15t21.5 42v555q0 30 -22 43t-82 15v13h597l3 -238l-15 -1q-30 67 -49 101.5t-46 65.5t-58.5 42.5t-77.5 11.5h-104v-308h42q62 0 97.5 30.5t55.5 105.5h13v-292h-13q-20 76 -56 107t-97 31
h-42v-334h99q104 0 155 48.5t109 185.5l15 -2l-5 -251h-623z" />
    <glyph glyph-name="Edieresis" unicode="&#xcb;" horiz-adv-x="715" 
d="M465 771q-32 0 -52.5 21t-20.5 53t20.5 53.5t52.5 21.5t52.5 -21.5t20.5 -53.5t-20.5 -53t-52.5 -21zM261 771q-31 0 -52 21t-21 53t21 53.5t52 21.5q32 0 53 -21.5t21 -53.5t-21 -53t-53 -21zM31 0v14q61 2 82.5 15t21.5 42v555q0 30 -22 43t-82 15v13h597l3 -238
l-15 -1q-30 67 -49 101.5t-46 65.5t-58.5 42.5t-77.5 11.5h-104v-308h42q62 0 97.5 30.5t55.5 105.5h13v-292h-13q-20 76 -56 107t-97 31h-42v-334h99q104 0 155 48.5t109 185.5l15 -2l-5 -251h-623z" />
    <glyph glyph-name="Igrave" unicode="&#xcc;" horiz-adv-x="435" 
d="M38 0v14q63 2 85 14.5t22 42.5v555q0 30 -22 43t-85 15v13h359v-13q-63 -2 -85 -15t-22 -43v-555q0 -30 22 -42.5t85 -14.5v-14h-359zM254 766l-82 85q-37 38 -49.5 55.5t-12.5 33.5q0 22 17 37.5t41 15.5q26 0 40 -22t28 -80l35 -125h-17z" />
    <glyph glyph-name="Iacute" unicode="&#xcd;" horiz-adv-x="435" 
d="M38 0v14q63 2 85 14.5t22 42.5v555q0 30 -22 43t-85 15v13h359v-13q-63 -2 -85 -15t-22 -43v-555q0 -30 22 -42.5t85 -14.5v-14h-359zM187 766l35 125q14 58 28 80t40 22q24 0 41 -15.5t17 -37.5q0 -16 -12.5 -33t-48.5 -56l-83 -85h-17z" />
    <glyph glyph-name="Icircumflex" unicode="&#xce;" horiz-adv-x="435" 
d="M38 0v14q63 2 85 14.5t22 42.5v555q0 30 -22 43t-85 15v13h359v-13q-63 -2 -85 -15t-22 -43v-555q0 -30 22 -42.5t85 -14.5v-14h-359zM72 766l142 204h13l135 -204h-16l-129 89l-129 -89h-16z" />
    <glyph glyph-name="Idieresis" unicode="&#xcf;" horiz-adv-x="435" 
d="M38 0v14q63 2 85 14.5t22 42.5v555q0 30 -22 43t-85 15v13h359v-13q-63 -2 -85 -15t-22 -43v-555q0 -30 22 -42.5t85 -14.5v-14h-359zM320 771q-32 0 -52.5 21t-20.5 53t20.5 53.5t52.5 21.5t52.5 -21.5t20.5 -53.5t-20.5 -53t-52.5 -21zM116 771q-31 0 -52 21t-21 53
t21 53.5t52 21.5q32 0 53 -21.5t21 -53.5t-21 -53t-53 -21z" />
    <glyph glyph-name="Eth" unicode="&#xd0;" horiz-adv-x="780" 
d="M31 0v14q61 2 82.5 15t21.5 42v279h-100v26h100v250q0 30 -22 43t-82 15v13h327q185 0 282.5 -92t97.5 -244q0 -73 -21 -136t-63.5 -114.5t-114 -81t-165.5 -29.5h-343zM281 19h62q132 0 184 71t52 261q0 126 -27.5 199t-77.5 101t-133 28h-60v-303h136v-26h-136v-331z
" />
    <glyph glyph-name="Ntilde" unicode="&#xd1;" horiz-adv-x="809" 
d="M629 -11l-450 582h-1v-401q0 -77 29.5 -112.5t104.5 -43.5v-14h-282v14q69 9 96 44t27 112v398q0 49 -31 81t-92 35v13h236l385 -501h1v332q0 75 -31.5 111t-106.5 45v13h284v-13q-69 -10 -95 -45t-26 -111v-539h-48zM269 765q8 74 31 107.5t68 33.5q28 0 86.5 -27
t75.5 -27q18 0 29.5 13t20.5 47h16q-7 -74 -30.5 -107.5t-68.5 -33.5q-28 0 -86.5 27t-75.5 27q-18 0 -29.5 -13t-20.5 -47h-16z" />
    <glyph glyph-name="Ograve" unicode="&#xd2;" horiz-adv-x="775" 
d="M387 -17q-151 0 -248 99.5t-97 264.5q0 163 99 265t246 102q152 0 249.5 -99.5t97.5 -263.5t-99.5 -266t-247.5 -102zM392 2q92 0 136 82t44 265q0 181 -48 263.5t-141 82.5q-92 0 -136 -81.5t-44 -264.5q0 -181 48 -264t141 -83zM417 766l-82 85q-37 38 -49.5 55.5
t-12.5 33.5q0 22 17 37.5t41 15.5q26 0 40 -22t28 -80l35 -125h-17z" />
    <glyph glyph-name="Oacute" unicode="&#xd3;" horiz-adv-x="775" 
d="M356 766l35 125q14 58 28 80t40 22q24 0 41 -15.5t17 -37.5q0 -16 -12.5 -33t-48.5 -56l-83 -85h-17zM387 -17q-151 0 -248 99.5t-97 264.5q0 163 99 265t246 102q152 0 249.5 -99.5t97.5 -263.5t-99.5 -266t-247.5 -102zM392 2q92 0 136 82t44 265q0 181 -48 263.5
t-141 82.5q-92 0 -136 -81.5t-44 -264.5q0 -181 48 -264t141 -83z" />
    <glyph glyph-name="Ocircumflex" unicode="&#xd4;" horiz-adv-x="775" 
d="M242 766l142 204h13l135 -204h-16l-129 89l-129 -89h-16zM387 -17q-151 0 -248 99.5t-97 264.5q0 163 99 265t246 102q152 0 249.5 -99.5t97.5 -263.5t-99.5 -266t-247.5 -102zM392 2q92 0 136 82t44 265q0 181 -48 263.5t-141 82.5q-92 0 -136 -81.5t-44 -264.5
q0 -181 48 -264t141 -83z" />
    <glyph glyph-name="Otilde" unicode="&#xd5;" horiz-adv-x="775" 
d="M387 -17q-151 0 -248 99.5t-97 264.5q0 163 99 265t246 102q152 0 249.5 -99.5t97.5 -263.5t-99.5 -266t-247.5 -102zM392 2q92 0 136 82t44 265q0 181 -48 263.5t-141 82.5q-92 0 -136 -81.5t-44 -264.5q0 -181 48 -264t141 -83zM229 765q8 74 31 107.5t68 33.5
q28 0 86.5 -27t75.5 -27q18 0 29.5 13t20.5 47h16q-7 -74 -30.5 -107.5t-68.5 -33.5q-28 0 -86.5 27t-75.5 27q-18 0 -29.5 -13t-20.5 -47h-16z" />
    <glyph glyph-name="Odieresis" unicode="&#xd6;" horiz-adv-x="775" 
d="M489 771q-32 0 -52.5 21t-20.5 53t20.5 53.5t52.5 21.5t52.5 -21.5t20.5 -53.5t-20.5 -53t-52.5 -21zM285 771q-31 0 -52 21t-21 53t21 53.5t52 21.5q32 0 53 -21.5t21 -53.5t-21 -53t-53 -21zM387 -17q-151 0 -248 99.5t-97 264.5q0 163 99 265t246 102
q152 0 249.5 -99.5t97.5 -263.5t-99.5 -266t-247.5 -102zM392 2q92 0 136 82t44 265q0 181 -48 263.5t-141 82.5q-92 0 -136 -81.5t-44 -264.5q0 -181 48 -264t141 -83z" />
    <glyph glyph-name="multiply" unicode="&#xd7;" horiz-adv-x="556" 
d="M456 519l17 -17l-178 -178l178 -178l-17 -17l-178 178l-178 -178l-17 17l178 178l-178 178l17 17l178 -178z" />
    <glyph glyph-name="Oslash" unicode="&#xd8;" horiz-adv-x="775" 
d="M387 -17q-130 0 -222 75l-78 -94h-33l92 111q-104 102 -104 272q0 163 99 265t246 102q131 0 223 -76l78 95h33l-92 -112q105 -102 105 -270q0 -164 -99.5 -266t-247.5 -102zM383 695q-92 0 -136 -81.5t-44 -264.5q0 -109 17 -183l326 395q-44 134 -163 134zM392 2
q92 0 136 82t44 265q0 109 -18 181l-325 -395q44 -133 163 -133z" />
    <glyph glyph-name="Ugrave" unicode="&#xd9;" horiz-adv-x="808" 
d="M412 -17q-287 0 -287 236v407q0 30 -22 43t-82 15v13h346v-13q-53 -2 -74.5 -15t-21.5 -43v-412q0 -197 192 -197q80 0 125 45q57 57 57 166v300q0 75 -31.5 111t-106.5 45v13h285v-13q-69 -10 -95 -45t-26 -111v-303q0 -115 -63.5 -178.5t-195.5 -63.5zM448 766l-82 85
q-37 38 -49.5 55.5t-12.5 33.5q0 22 17 37.5t41 15.5q26 0 40 -22t28 -80l35 -125h-17z" />
    <glyph glyph-name="Uacute" unicode="&#xda;" horiz-adv-x="808" 
d="M397 766l35 125q14 58 28 80t40 22q24 0 41 -15.5t17 -37.5q0 -16 -12.5 -33t-48.5 -56l-83 -85h-17zM412 -17q-287 0 -287 236v407q0 30 -22 43t-82 15v13h346v-13q-53 -2 -74.5 -15t-21.5 -43v-412q0 -197 192 -197q80 0 125 45q57 57 57 166v300q0 75 -31.5 111
t-106.5 45v13h285v-13q-69 -10 -95 -45t-26 -111v-303q0 -115 -63.5 -178.5t-195.5 -63.5z" />
    <glyph glyph-name="Ucircumflex" unicode="&#xdb;" horiz-adv-x="808" 
d="M295 766l142 204h13l135 -204h-16l-129 89l-129 -89h-16zM412 -17q-287 0 -287 236v407q0 30 -22 43t-82 15v13h346v-13q-53 -2 -74.5 -15t-21.5 -43v-412q0 -197 192 -197q80 0 125 45q57 57 57 166v300q0 75 -31.5 111t-106.5 45v13h285v-13q-69 -10 -95 -45t-26 -111
v-303q0 -115 -63.5 -178.5t-195.5 -63.5z" />
    <glyph glyph-name="Udieresis" unicode="&#xdc;" horiz-adv-x="808" 
d="M526 771q-32 0 -52.5 21t-20.5 53t20.5 53.5t52.5 21.5t52.5 -21.5t20.5 -53.5t-20.5 -53t-52.5 -21zM322 771q-31 0 -52 21t-21 53t21 53.5t52 21.5q32 0 53 -21.5t21 -53.5t-21 -53t-53 -21zM412 -17q-287 0 -287 236v407q0 30 -22 43t-82 15v13h346v-13
q-53 -2 -74.5 -15t-21.5 -43v-412q0 -197 192 -197q80 0 125 45q57 57 57 166v300q0 75 -31.5 111t-106.5 45v13h285v-13q-69 -10 -95 -45t-26 -111v-303q0 -115 -63.5 -178.5t-195.5 -63.5z" />
    <glyph glyph-name="Yacute" unicode="&#xdd;" horiz-adv-x="691" 
d="M406 328l129 230q33 59 23.5 85.5t-72.5 40.5v13h231v-13q-52 -9 -88 -40t-82 -112l-127 -224v-237q0 -30 22 -42.5t85 -14.5v-14h-359v14q63 2 85 14.5t22 42.5v216l-176 315q-23 39 -46 56t-68 26v13h353v-13q-71 -4 -87 -25t10 -61zM376 766l35 125q14 58 28 80t40 22
q24 0 41 -15.5t17 -37.5q0 -16 -12.5 -33t-48.5 -56l-83 -85h-17z" />
    <glyph glyph-name="Thorn" unicode="&#xde;" horiz-adv-x="680" 
d="M31 0v14q61 2 82.5 15t21.5 42v556q0 29 -22 42t-82 15v13h360v-12q-68 -2 -89 -14.5t-21 -43.5v-72h62q163 0 232.5 -51.5t69.5 -144.5q0 -89 -72.5 -144.5t-233.5 -55.5h-58v-88q0 -32 21 -44.5t89 -14.5v-12h-360zM281 177h53q91 0 124.5 43t33.5 138
q0 86 -34.5 132.5t-120.5 46.5h-56v-360z" />
    <glyph glyph-name="germandbls" unicode="&#xdf;" horiz-adv-x="633" 
d="M440 -8q-62 0 -107 26t-45 71q0 24 16 42t43 18q25 0 39.5 -17t14.5 -40q0 -30 -34 -53q20 -29 76 -29q40 0 62 21.5t22 57.5q0 35 -24 60t-80 55q-65 34 -92.5 63t-27.5 69q0 29 14 51t49 51q35 30 46 59.5t11 85.5q0 121 -99 121q-48 0 -70 -31.5t-22 -117.5v-555h-202
v12q43 1 56 8.5t13 28.5v375h-86v16l86 19v38q0 118 57 172t174 54q103 0 159 -35.5t56 -92.5q0 -38 -22.5 -64t-79.5 -62q-37 -21 -49 -36t-12 -39q0 -16 15.5 -33t33 -27.5t50.5 -28.5q45 -25 69 -42t44 -47t20 -67q0 -65 -47 -111t-127 -46z" />
    <glyph glyph-name="agrave" unicode="&#xe0;" horiz-adv-x="511" 
d="M170 -5q-67 0 -102.5 35t-35.5 82q0 31 16.5 59t46.5 45q43 23 128.5 34.5t90.5 13.5v81q0 54 -17.5 78.5t-56.5 24.5q-46 0 -73 -22q27 -27 27 -58t-18 -49.5t-51 -18.5q-29 0 -48.5 19.5t-19.5 47.5q0 46 52 73t152 27q93 0 139.5 -37.5t46.5 -118.5v-223
q0 -38 16.5 -47.5t56.5 6.5l6 -11q-62 -40 -107 -40q-46 0 -68.5 18.5t-28.5 57.5h-4q-69 -77 -148 -77zM242 50q44 0 72 44v150q-84 -13 -112.5 -37t-28.5 -79q0 -36 18 -57t51 -21zM267 526l-82 85q-37 38 -49.5 55.5t-12.5 33.5q0 22 17 37.5t41 15.5q26 0 40 -22t28 -80
l35 -125h-17z" />
    <glyph glyph-name="aacute" unicode="&#xe1;" horiz-adv-x="511" 
d="M170 -5q-67 0 -102.5 35t-35.5 82q0 31 16.5 59t46.5 45q43 23 128.5 34.5t90.5 13.5v81q0 54 -17.5 78.5t-56.5 24.5q-46 0 -73 -22q27 -27 27 -58t-18 -49.5t-51 -18.5q-29 0 -48.5 19.5t-19.5 47.5q0 46 52 73t152 27q93 0 139.5 -37.5t46.5 -118.5v-223
q0 -38 16.5 -47.5t56.5 6.5l6 -11q-62 -40 -107 -40q-46 0 -68.5 18.5t-28.5 57.5h-4q-69 -77 -148 -77zM242 50q44 0 72 44v150q-84 -13 -112.5 -37t-28.5 -79q0 -36 18 -57t51 -21zM233 526l35 125q14 58 28 80t40 22q24 0 41 -15.5t17 -37.5q0 -16 -12.5 -33t-48.5 -56
l-83 -85h-17z" />
    <glyph glyph-name="acircumflex" unicode="&#xe2;" horiz-adv-x="511" 
d="M170 -5q-67 0 -102.5 35t-35.5 82q0 31 16.5 59t46.5 45q43 23 128.5 34.5t90.5 13.5v81q0 54 -17.5 78.5t-56.5 24.5q-46 0 -73 -22q27 -27 27 -58t-18 -49.5t-51 -18.5q-29 0 -48.5 19.5t-19.5 47.5q0 46 52 73t152 27q93 0 139.5 -37.5t46.5 -118.5v-223
q0 -38 16.5 -47.5t56.5 6.5l6 -11q-62 -40 -107 -40q-46 0 -68.5 18.5t-28.5 57.5h-4q-69 -77 -148 -77zM242 50q44 0 72 44v150q-84 -13 -112.5 -37t-28.5 -79q0 -36 18 -57t51 -21zM118 526l142 204h13l135 -204h-16l-129 89l-129 -89h-16z" />
    <glyph glyph-name="atilde" unicode="&#xe3;" horiz-adv-x="511" 
d="M170 -5q-67 0 -102.5 35t-35.5 82q0 31 16.5 59t46.5 45q43 23 128.5 34.5t90.5 13.5v81q0 54 -17.5 78.5t-56.5 24.5q-46 0 -73 -22q27 -27 27 -58t-18 -49.5t-51 -18.5q-29 0 -48.5 19.5t-19.5 47.5q0 46 52 73t152 27q93 0 139.5 -37.5t46.5 -118.5v-223
q0 -38 16.5 -47.5t56.5 6.5l6 -11q-62 -40 -107 -40q-46 0 -68.5 18.5t-28.5 57.5h-4q-69 -77 -148 -77zM242 50q44 0 72 44v150q-84 -13 -112.5 -37t-28.5 -79q0 -36 18 -57t51 -21zM102 525q8 74 31 107.5t68 33.5q28 0 86.5 -27t75.5 -27q18 0 29.5 13t20.5 47h16
q-7 -74 -30.5 -107.5t-68.5 -33.5q-28 0 -86.5 27t-75.5 27q-18 0 -29.5 -13t-20.5 -47h-16z" />
    <glyph glyph-name="adieresis" unicode="&#xe4;" horiz-adv-x="511" 
d="M170 -5q-67 0 -102.5 35t-35.5 82q0 31 16.5 59t46.5 45q43 23 128.5 34.5t90.5 13.5v81q0 54 -17.5 78.5t-56.5 24.5q-46 0 -73 -22q27 -27 27 -58t-18 -49.5t-51 -18.5q-29 0 -48.5 19.5t-19.5 47.5q0 46 52 73t152 27q93 0 139.5 -37.5t46.5 -118.5v-223
q0 -38 16.5 -47.5t56.5 6.5l6 -11q-62 -40 -107 -40q-46 0 -68.5 18.5t-28.5 57.5h-4q-69 -77 -148 -77zM242 50q44 0 72 44v150q-84 -13 -112.5 -37t-28.5 -79q0 -36 18 -57t51 -21zM365 531q-32 0 -52.5 21t-20.5 53t20.5 53.5t52.5 21.5t52.5 -21.5t20.5 -53.5t-20.5 -53
t-52.5 -21zM161 531q-31 0 -52 21t-21 53t21 53.5t52 21.5q32 0 53 -21.5t21 -53.5t-21 -53t-53 -21z" />
    <glyph glyph-name="aring" unicode="&#xe5;" horiz-adv-x="511" 
d="M170 -5q-67 0 -102.5 35t-35.5 82q0 31 16.5 59t46.5 45q43 23 128.5 34.5t90.5 13.5v81q0 54 -17.5 78.5t-56.5 24.5q-46 0 -73 -22q27 -27 27 -58t-18 -49.5t-51 -18.5q-29 0 -48.5 19.5t-19.5 47.5q0 46 52 73t152 27q93 0 139.5 -37.5t46.5 -118.5v-223
q0 -38 16.5 -47.5t56.5 6.5l6 -11q-62 -40 -107 -40q-46 0 -68.5 18.5t-28.5 57.5h-4q-69 -77 -148 -77zM242 50q44 0 72 44v150q-84 -13 -112.5 -37t-28.5 -79q0 -36 18 -57t51 -21zM259 531q-57 0 -89.5 29.5t-32.5 77.5q0 47 33.5 77.5t88.5 30.5q57 0 90 -30t33 -77
t-33.5 -77.5t-89.5 -30.5zM261 548q50 0 50 90q0 91 -53 91q-50 0 -50 -91q0 -90 53 -90z" />
    <glyph glyph-name="ae" unicode="&#xe6;" horiz-adv-x="784" 
d="M551 470q103 0 157 -61.5t49 -160.5h-301v-19v-1q0 -92 38.5 -143t112.5 -51q44 0 76 20.5t62 61.5l11 -7q-74 -117 -204 -117q-67 0 -119 27.5t-80 75.5h-4q-30 -43 -77 -71.5t-106 -28.5q-65 0 -99.5 35t-34.5 82q0 31 16.5 59t46.5 45q43 23 133.5 34.5t95.5 13.5v81
q0 103 -84 103q-46 0 -73 -22q27 -27 27 -58t-18 -49.5t-51 -18.5q-29 0 -48.5 19.5t-19.5 47.5q0 46 52 73t152 27q101 0 145 -50q59 53 145 53zM545 451q-82 0 -88 -185h164q9 87 -10.5 136t-65.5 49zM242 50q22 0 46.5 13.5t35.5 33.5v147q-86 -14 -118.5 -38t-32.5 -78
q0 -36 18 -57t51 -21z" />
    <glyph glyph-name="ccedilla" unicode="&#xe7;" horiz-adv-x="482" 
d="M240 -251q-59 0 -103 22l9 16q41 -16 77 -16q55 0 55 50q0 23 -21.5 37.5t-57.5 14.5q-14 0 -34 -5l-6 9l122 116q-3 0 -9 -0.5t-9 -0.5q-108 0 -171 62.5t-63 168.5q0 113 70 180t178 67q91 0 138 -34t47 -77q0 -33 -18.5 -53t-51.5 -20q-35 0 -54.5 20t-19.5 49
q0 45 36 63q-23 34 -73 34t-80 -58.5t-30 -156.5q0 -87 36 -145.5t107 -58.5q82 0 143 80l11 -7q-61 -94 -157 -110l-67 -63l2 -3q59 -2 89 -28.5t30 -61.5q0 -40 -33.5 -65.5t-91.5 -25.5z" />
    <glyph glyph-name="egrave" unicode="&#xe8;" horiz-adv-x="498" 
d="M266 -8q-107 0 -172 62.5t-65 170.5q0 110 68 177.5t168 67.5q103 0 157 -61.5t49 -160.5h-301v-19v-1q0 -92 38.5 -143t112.5 -51q44 0 76 20.5t62 61.5l11 -7q-74 -117 -204 -117zM259 451q-82 0 -88 -185h164q9 87 -10.5 136t-65.5 49zM278 526l-82 85
q-37 38 -49.5 55.5t-12.5 33.5q0 22 17 37.5t41 15.5q26 0 40 -22t28 -80l35 -125h-17z" />
    <glyph glyph-name="eacute" unicode="&#xe9;" horiz-adv-x="498" 
d="M266 -8q-107 0 -172 62.5t-65 170.5q0 110 68 177.5t168 67.5q103 0 157 -61.5t49 -160.5h-301v-19v-1q0 -92 38.5 -143t112.5 -51q44 0 76 20.5t62 61.5l11 -7q-74 -117 -204 -117zM259 451q-82 0 -88 -185h164q9 87 -10.5 136t-65.5 49zM230 526l35 125q14 58 28 80
t40 22q24 0 41 -15.5t17 -37.5q0 -16 -12.5 -33t-48.5 -56l-83 -85h-17z" />
    <glyph glyph-name="ecircumflex" unicode="&#xea;" horiz-adv-x="498" 
d="M266 -8q-107 0 -172 62.5t-65 170.5q0 110 68 177.5t168 67.5q103 0 157 -61.5t49 -160.5h-301v-19v-1q0 -92 38.5 -143t112.5 -51q44 0 76 20.5t62 61.5l11 -7q-74 -117 -204 -117zM259 451q-82 0 -88 -185h164q9 87 -10.5 136t-65.5 49zM118 526l142 204h13l135 -204
h-16l-129 89l-129 -89h-16z" />
    <glyph glyph-name="edieresis" unicode="&#xeb;" horiz-adv-x="498" 
d="M266 -8q-107 0 -172 62.5t-65 170.5q0 110 68 177.5t168 67.5q103 0 157 -61.5t49 -160.5h-301v-19v-1q0 -92 38.5 -143t112.5 -51q44 0 76 20.5t62 61.5l11 -7q-74 -117 -204 -117zM259 451q-82 0 -88 -185h164q9 87 -10.5 136t-65.5 49zM162 531q-31 0 -52 21t-21 53
t21 53.5t52 21.5q32 0 53 -21.5t21 -53.5t-21 -53t-53 -21zM366 531q-32 0 -52.5 21t-20.5 53t20.5 53.5t52.5 21.5t52.5 -21.5t20.5 -53.5t-20.5 -53t-52.5 -21z" />
    <glyph glyph-name="igrave" unicode="&#xec;" horiz-adv-x="311" 
d="M20 0v12q43 1 57.5 8.5t14.5 28.5v344q0 24 -16 36.5t-56 13.5v12l205 9v-415q0 -22 13 -29t57 -8v-12h-275zM158 526l-82 85q-37 38 -49.5 55.5t-12.5 33.5q0 22 17 37.5t41 15.5q26 0 40 -22t28 -80l35 -125h-17z" />
    <glyph glyph-name="iacute" unicode="&#xed;" horiz-adv-x="311" 
d="M108 526l35 125q14 58 28 80t40 22q24 0 41 -15.5t17 -37.5q0 -16 -12.5 -33t-48.5 -56l-83 -85h-17zM20 0v12q43 1 57.5 8.5t14.5 28.5v344q0 24 -16 36.5t-56 13.5v12l205 9v-415q0 -22 13 -29t57 -8v-12h-275z" />
    <glyph glyph-name="icircumflex" unicode="&#xee;" horiz-adv-x="311" 
d="M-3 526l142 204h13l135 -204h-16l-129 89l-129 -89h-16zM20 0v12q43 1 57.5 8.5t14.5 28.5v344q0 24 -16 36.5t-56 13.5v12l205 9v-415q0 -22 13 -29t57 -8v-12h-275z" />
    <glyph glyph-name="idieresis" unicode="&#xef;" horiz-adv-x="311" 
d="M247 531q-32 0 -52.5 21t-20.5 53t20.5 53.5t52.5 21.5t52.5 -21.5t20.5 -53.5t-20.5 -53t-52.5 -21zM43 531q-31 0 -52 21t-21 53t21 53.5t52 21.5q32 0 53 -21.5t21 -53.5t-21 -53t-53 -21zM20 0v12q43 1 57.5 8.5t14.5 28.5v344q0 24 -16 36.5t-56 13.5v12l205 9v-415
q0 -22 13 -29t57 -8v-12h-275z" />
    <glyph glyph-name="eth" unicode="&#xf0;" horiz-adv-x="542" 
d="M454 663l-88 -42q146 -114 146 -312q0 -317 -251 -317q-100 0 -165 65t-65 171q0 105 67.5 173.5t160.5 68.5q71 0 102 -54l4 2q-13 98 -69 169l-124 -60l-8 18l119 57q-55 61 -150 102l5 15q125 -26 210 -85l98 47zM277 11q49 0 70.5 59t21.5 181q0 200 -95 200
q-101 0 -101 -220t104 -220z" />
    <glyph glyph-name="ntilde" unicode="&#xf1;" horiz-adv-x="592" 
d="M20 0v12q43 1 56.5 8.5t13.5 28.5v344q0 25 -14.5 37t-55.5 13v12l201 9v-100q32 48 78 75.5t95 27.5q125 0 125 -144v-274q0 -21 13 -28.5t56 -8.5v-12h-257v12q31 1 43 8.5t12 28.5v265q0 94 -71 94q-49 0 -92 -66v-293q0 -21 11.5 -28.5t41.5 -8.5v-12h-256zM132 525
q8 74 31 107.5t68 33.5q28 0 86.5 -27t75.5 -27q18 0 29.5 13t20.5 47h16q-7 -74 -30.5 -107.5t-68.5 -33.5q-28 0 -86.5 27t-75.5 27q-18 0 -29.5 -13t-20.5 -47h-16z" />
    <glyph glyph-name="ograve" unicode="&#xf2;" horiz-adv-x="541" 
d="M271 -8q-111 0 -176.5 64t-65.5 174q0 109 67.5 174.5t174.5 65.5q110 0 175.5 -63.5t65.5 -172.5t-67 -175.5t-174 -66.5zM275 11q51 0 73 54.5t22 166.5q0 219 -104 219q-52 0 -73 -53.5t-21 -165.5q0 -221 103 -221zM280 526l-82 85q-37 38 -49.5 55.5t-12.5 33.5
q0 22 17 37.5t41 15.5q26 0 40 -22t28 -80l35 -125h-17z" />
    <glyph glyph-name="oacute" unicode="&#xf3;" horiz-adv-x="541" 
d="M241 526l35 125q14 58 28 80t40 22q24 0 41 -15.5t17 -37.5q0 -16 -12.5 -33t-48.5 -56l-83 -85h-17zM271 -8q-111 0 -176.5 64t-65.5 174q0 109 67.5 174.5t174.5 65.5q110 0 175.5 -63.5t65.5 -172.5t-67 -175.5t-174 -66.5zM275 11q51 0 73 54.5t22 166.5
q0 219 -104 219q-52 0 -73 -53.5t-21 -165.5q0 -221 103 -221z" />
    <glyph glyph-name="ocircumflex" unicode="&#xf4;" horiz-adv-x="541" 
d="M126 526l142 204h13l135 -204h-16l-129 89l-129 -89h-16zM271 -8q-111 0 -176.5 64t-65.5 174q0 109 67.5 174.5t174.5 65.5q110 0 175.5 -63.5t65.5 -172.5t-67 -175.5t-174 -66.5zM275 11q51 0 73 54.5t22 166.5q0 219 -104 219q-52 0 -73 -53.5t-21 -165.5
q0 -221 103 -221z" />
    <glyph glyph-name="otilde" unicode="&#xf5;" horiz-adv-x="541" 
d="M271 -8q-111 0 -176.5 64t-65.5 174q0 109 67.5 174.5t174.5 65.5q110 0 175.5 -63.5t65.5 -172.5t-67 -175.5t-174 -66.5zM275 11q51 0 73 54.5t22 166.5q0 219 -104 219q-52 0 -73 -53.5t-21 -165.5q0 -221 103 -221zM106 525q8 74 31 107.5t68 33.5q28 0 86.5 -27
t75.5 -27q18 0 29.5 13t20.5 47h16q-7 -74 -30.5 -107.5t-68.5 -33.5q-28 0 -86.5 27t-75.5 27q-18 0 -29.5 -13t-20.5 -47h-16z" />
    <glyph glyph-name="odieresis" unicode="&#xf6;" horiz-adv-x="541" 
d="M372 531q-32 0 -52.5 21t-20.5 53t20.5 53.5t52.5 21.5t52.5 -21.5t20.5 -53.5t-20.5 -53t-52.5 -21zM168 531q-31 0 -52 21t-21 53t21 53.5t52 21.5q32 0 53 -21.5t21 -53.5t-21 -53t-53 -21zM271 -8q-111 0 -176.5 64t-65.5 174q0 109 67.5 174.5t174.5 65.5
q110 0 175.5 -63.5t65.5 -172.5t-67 -175.5t-174 -66.5zM275 11q51 0 73 54.5t22 166.5q0 219 -104 219q-52 0 -73 -53.5t-21 -165.5q0 -221 103 -221z" />
    <glyph glyph-name="divide" unicode="&#xf7;" horiz-adv-x="575" 
d="M54 316v22h467v-22h-467zM288 414q-25 0 -42 17t-17 41t17 41t42 17q24 0 41 -17t17 -41t-17 -41t-41 -17zM288 124q-25 0 -42 17t-17 41t17 41t42 17q24 0 41 -17t17 -41t-17 -41t-41 -17z" />
    <glyph glyph-name="oslash" unicode="&#xf8;" horiz-adv-x="541" 
d="M71 -25h-28l60 72q-74 65 -74 183q0 109 67.5 174.5t174.5 65.5q88 0 149 -42l50 59h28l-61 -73q75 -64 75 -180q0 -109 -67 -175.5t-174 -66.5q-89 0 -151 42zM275 11q51 0 73 54.5t22 166.5q0 54 -6 95l-181 -219q21 -97 92 -97zM172 232q0 -54 6 -96l181 217
q-23 98 -93 98q-52 0 -73 -53.5t-21 -165.5z" />
    <glyph glyph-name="ugrave" unicode="&#xf9;" horiz-adv-x="582" 
d="M214 -8q-64 0 -100 37t-36 109v261q0 25 -14.5 36.5t-54.5 12.5v12l202 4v-314q0 -96 73 -96q49 0 89 63v282q0 24 -15.5 36t-54.5 13v12l203 4v-414q0 -21 13.5 -29t55.5 -9v-12h-200v95q-65 -103 -161 -103zM302 526l-82 85q-37 38 -49.5 55.5t-12.5 33.5q0 22 17 37.5
t41 15.5q26 0 40 -22t28 -80l35 -125h-17z" />
    <glyph glyph-name="uacute" unicode="&#xfa;" horiz-adv-x="582" 
d="M232 526l35 125q14 58 28 80t40 22q24 0 41 -15.5t17 -37.5q0 -16 -12.5 -33t-48.5 -56l-83 -85h-17zM214 -8q-64 0 -100 37t-36 109v261q0 25 -14.5 36.5t-54.5 12.5v12l202 4v-314q0 -96 73 -96q49 0 89 63v282q0 24 -15.5 36t-54.5 13v12l203 4v-414q0 -21 13.5 -29
t55.5 -9v-12h-200v95q-65 -103 -161 -103z" />
    <glyph glyph-name="ucircumflex" unicode="&#xfb;" horiz-adv-x="582" 
d="M132 526l142 204h13l135 -204h-16l-129 89l-129 -89h-16zM214 -8q-64 0 -100 37t-36 109v261q0 25 -14.5 36.5t-54.5 12.5v12l202 4v-314q0 -96 73 -96q49 0 89 63v282q0 24 -15.5 36t-54.5 13v12l203 4v-414q0 -21 13.5 -29t55.5 -9v-12h-200v95q-65 -103 -161 -103z
" />
    <glyph glyph-name="udieresis" unicode="&#xfc;" horiz-adv-x="582" 
d="M378 531q-32 0 -52.5 21t-20.5 53t20.5 53.5t52.5 21.5t52.5 -21.5t20.5 -53.5t-20.5 -53t-52.5 -21zM174 531q-31 0 -52 21t-21 53t21 53.5t52 21.5q32 0 53 -21.5t21 -53.5t-21 -53t-53 -21zM214 -8q-64 0 -100 37t-36 109v261q0 25 -14.5 36.5t-54.5 12.5v12l202 4
v-314q0 -96 73 -96q49 0 89 63v282q0 24 -15.5 36t-54.5 13v12l203 4v-414q0 -21 13.5 -29t55.5 -9v-12h-200v95q-65 -103 -161 -103z" />
    <glyph glyph-name="yacute" unicode="&#xfd;" horiz-adv-x="505" 
d="M257 -19l-190 403q-16 36 -32.5 48.5t-53.5 17.5v12h275v-12q-42 -4 -53 -16t1 -38l115 -268l87 220q20 51 6.5 72.5t-68.5 29.5v12h193v-12q-65 -7 -93 -76l-175 -420q-63 -154 -159 -154q-43 0 -67.5 20.5t-24.5 56.5q0 27 18 47t48 20q26 0 44.5 -18.5t18.5 -46.5
q0 -35 -25 -58q38 4 68.5 36.5t60.5 109.5zM281 526l35 125q14 58 28 80t40 22q24 0 41 -15.5t17 -37.5q0 -16 -12.5 -33t-48.5 -56l-83 -85h-17z" />
    <glyph glyph-name="thorn" unicode="&#xfe;" horiz-adv-x="561" 
d="M198 717v-313q71 66 146 66q87 0 136 -63.5t49 -170.5q0 -105 -57.5 -174.5t-156.5 -69.5q-63 0 -117 24v-157q0 -21 18.5 -28.5t74.5 -8.5v-12h-295v12q42 1 55.5 8.5t13.5 28.5v787q0 26 -14 37t-61 12v12zM291 11q96 0 96 220q0 85 -26 138.5t-79 53.5q-41 0 -84 -37
v-309q28 -66 93 -66z" />
    <glyph glyph-name="ydieresis" unicode="&#xff;" horiz-adv-x="505" 
d="M257 -19l-190 403q-16 36 -32.5 48.5t-53.5 17.5v12h275v-12q-42 -4 -53 -16t1 -38l115 -268l87 220q20 51 6.5 72.5t-68.5 29.5v12h193v-12q-65 -7 -93 -76l-175 -420q-63 -154 -159 -154q-43 0 -67.5 20.5t-24.5 56.5q0 27 18 47t48 20q26 0 44.5 -18.5t18.5 -46.5
q0 -35 -25 -58q38 4 68.5 36.5t60.5 109.5zM390 531q-32 0 -52.5 21t-20.5 53t20.5 53.5t52.5 21.5t52.5 -21.5t20.5 -53.5t-20.5 -53t-52.5 -21zM186 531q-31 0 -52 21t-21 53t21 53.5t52 21.5q32 0 53 -21.5t21 -53.5t-21 -53t-53 -21z" />
    <glyph glyph-name="Amacron" unicode="&#x100;" 
d="M463 92l-62 173h-230l-34 -92q-31 -81 -16.5 -115t84.5 -44v-14h-236v14q49 13 81 49.5t63 113.5l207 536h68l226 -614q17 -45 37 -61t75 -24v-14h-358v14q70 3 90 20t5 58zM179 285h215l-102 289h-5zM204 796v47h298v-47h-298z" />
    <glyph glyph-name="amacron" unicode="&#x101;" horiz-adv-x="511" 
d="M170 -5q-67 0 -102.5 35t-35.5 82q0 31 16.5 59t46.5 45q43 23 128.5 34.5t90.5 13.5v81q0 54 -17.5 78.5t-56.5 24.5q-46 0 -73 -22q27 -27 27 -58t-18 -49.5t-51 -18.5q-29 0 -48.5 19.5t-19.5 47.5q0 46 52 73t152 27q93 0 139.5 -37.5t46.5 -118.5v-223
q0 -38 16.5 -47.5t56.5 6.5l6 -11q-62 -40 -107 -40q-46 0 -68.5 18.5t-28.5 57.5h-4q-69 -77 -148 -77zM242 50q44 0 72 44v150q-84 -13 -112.5 -37t-28.5 -79q0 -36 18 -57t51 -21zM110 556v47h298v-47h-298z" />
    <glyph glyph-name="Abreve" unicode="&#x102;" 
d="M463 92l-62 173h-230l-34 -92q-31 -81 -16.5 -115t84.5 -44v-14h-236v14q49 13 81 49.5t63 113.5l207 536h68l226 -614q17 -45 37 -61t75 -24v-14h-358v14q70 3 90 20t5 58zM179 285h215l-102 289h-5zM353 771q-58 0 -96.5 44t-44.5 122h15q14 -42 47 -63.5t78 -21.5
t78.5 22t46.5 63h15q-5 -78 -43 -122t-96 -44z" />
    <glyph glyph-name="abreve" unicode="&#x103;" horiz-adv-x="511" 
d="M170 -5q-67 0 -102.5 35t-35.5 82q0 31 16.5 59t46.5 45q43 23 128.5 34.5t90.5 13.5v81q0 54 -17.5 78.5t-56.5 24.5q-46 0 -73 -22q27 -27 27 -58t-18 -49.5t-51 -18.5q-29 0 -48.5 19.5t-19.5 47.5q0 46 52 73t152 27q93 0 139.5 -37.5t46.5 -118.5v-223
q0 -38 16.5 -47.5t56.5 6.5l6 -11q-62 -40 -107 -40q-46 0 -68.5 18.5t-28.5 57.5h-4q-69 -77 -148 -77zM242 50q44 0 72 44v150q-84 -13 -112.5 -37t-28.5 -79q0 -36 18 -57t51 -21zM257 531q-58 0 -96.5 44t-44.5 122h15q14 -42 47 -63.5t78 -21.5t78.5 22t46.5 63h15
q-5 -78 -43 -122t-96 -44z" />
    <glyph glyph-name="Aogonek" unicode="&#x104;" 
d="M538 -246q-44 0 -70.5 22t-26.5 61t26 70t78 67l38 26h-215v14q70 3 90 20t5 58l-62 173h-230l-34 -92q-31 -81 -16.5 -115t84.5 -44v-14h-236v14q49 13 81 49.5t63 113.5l207 536h68l226 -614q17 -45 37 -61t75 -24v-14h-117l-21 -24q-54 -58 -54 -122q0 -30 15 -47.5
t42 -17.5q32 0 66 19l7 -13q-51 -41 -126 -41zM179 285h215l-102 289h-5z" />
    <glyph glyph-name="aogonek" unicode="&#x105;" horiz-adv-x="511" 
d="M526 36q-33 -22 -68 -61q-59 -59 -59 -122q0 -30 14.5 -47t41.5 -17q33 0 67 19l6 -13q-51 -41 -126 -41q-44 0 -70.5 22t-26.5 60q0 41 30 73.5t94 72.5l31 20q-20 -6 -41 -6q-46 0 -68.5 18.5t-28.5 57.5h-4q-69 -77 -148 -77q-67 0 -102.5 35t-35.5 82q0 31 16.5 59
t46.5 45q43 23 128.5 34.5t90.5 13.5v81q0 54 -17.5 78.5t-56.5 24.5q-46 0 -73 -22q27 -27 27 -58t-18 -49.5t-51 -18.5q-29 0 -48.5 19.5t-19.5 47.5q0 46 52 73t152 27q93 0 139.5 -37.5t46.5 -118.5v-223q0 -38 16.5 -47.5t56.5 6.5zM242 50q44 0 72 44v150
q-84 -13 -112.5 -37t-28.5 -79q0 -36 18 -57t51 -21z" />
    <glyph glyph-name="Cacute" unicode="&#x106;" horiz-adv-x="721" 
d="M339 766l35 125q14 58 28 80t40 22q24 0 41 -15.5t17 -37.5q0 -16 -12.5 -33t-48.5 -56l-83 -85h-17zM386 -17q-160 0 -253 95t-93 259q0 168 108.5 272.5t264.5 104.5q104 0 185 -45l45 50h12v-259h-15q-53 120 -107.5 177.5t-134.5 57.5q-88 0 -142 -88.5t-54 -252.5
q0 -161 66 -246t166 -85q157 0 231 162l18 -9q-85 -193 -297 -193z" />
    <glyph glyph-name="cacute" unicode="&#x107;" horiz-adv-x="482" 
d="M204 526l35 125q14 58 28 80t40 22q24 0 41 -15.5t17 -37.5q0 -16 -12.5 -33t-48.5 -56l-83 -85h-17zM263 -8q-108 0 -171 62.5t-63 168.5q0 113 70 180t178 67q91 0 138 -34t47 -77q0 -33 -18.5 -53t-51.5 -20q-35 0 -54.5 20t-19.5 49q0 45 36 63q-23 34 -73 34
t-80 -58.5t-30 -156.5q0 -87 36 -145.5t107 -58.5q82 0 143 80l11 -7q-73 -114 -205 -114z" />
    <glyph glyph-name="Cdotaccent" unicode="&#x10a;" horiz-adv-x="721" 
d="M386 -17q-160 0 -253 95t-93 259q0 168 108.5 272.5t264.5 104.5q104 0 185 -45l45 50h12v-259h-15q-53 120 -107.5 177.5t-134.5 57.5q-88 0 -142 -88.5t-54 -252.5q0 -161 66 -246t166 -85q157 0 231 162l18 -9q-85 -193 -297 -193zM387 768q-36 0 -57 20.5t-21 56.5
t21.5 58.5t56.5 22.5q36 0 57.5 -21.5t21.5 -56.5q0 -36 -21.5 -58t-57.5 -22z" />
    <glyph glyph-name="cdotaccent" unicode="&#x10b;" horiz-adv-x="482" 
d="M263 -8q-108 0 -171 62.5t-63 168.5q0 113 70 180t178 67q91 0 138 -34t47 -77q0 -33 -18.5 -53t-51.5 -20q-35 0 -54.5 20t-19.5 49q0 45 36 63q-23 34 -73 34t-80 -58.5t-30 -156.5q0 -87 36 -145.5t107 -58.5q82 0 143 80l11 -7q-73 -114 -205 -114zM263 531
q-36 0 -57 20.5t-21 56.5t21.5 58.5t56.5 22.5q36 0 57.5 -21.5t21.5 -56.5q0 -36 -21.5 -58t-57.5 -22z" />
    <glyph glyph-name="Ccaron" unicode="&#x10c;" horiz-adv-x="721" 
d="M381 763l-135 204h16l129 -89l130 89h16l-143 -204h-13zM386 -17q-160 0 -253 95t-93 259q0 168 108.5 272.5t264.5 104.5q104 0 185 -45l45 50h12v-259h-15q-53 120 -107.5 177.5t-134.5 57.5q-88 0 -142 -88.5t-54 -252.5q0 -161 66 -246t166 -85q157 0 231 162l18 -9
q-85 -193 -297 -193z" />
    <glyph glyph-name="ccaron" unicode="&#x10d;" horiz-adv-x="482" 
d="M256 526l-135 204h16l129 -89l130 89h16l-143 -204h-13zM263 -8q-108 0 -171 62.5t-63 168.5q0 113 70 180t178 67q91 0 138 -34t47 -77q0 -33 -18.5 -53t-51.5 -20q-35 0 -54.5 20t-19.5 49q0 45 36 63q-23 34 -73 34t-80 -58.5t-30 -156.5q0 -87 36 -145.5t107 -58.5
q82 0 143 80l11 -7q-73 -114 -205 -114z" />
    <glyph glyph-name="Dcaron" unicode="&#x10e;" horiz-adv-x="780" 
d="M378 766l-135 204h16l129 -89l130 89h16l-143 -204h-13zM31 0v14q61 2 82.5 15t21.5 42v555q0 30 -22 43t-82 15v13h327q185 0 282.5 -92t97.5 -244q0 -73 -21 -136t-63.5 -114.5t-114 -81t-165.5 -29.5h-343zM281 19h62q132 0 184 71t52 261q0 126 -27.5 199t-77.5 101
t-133 28h-60v-660z" />
    <glyph glyph-name="dcaron" unicode="&#x10f;" horiz-adv-x="565" 
d="M584 530l-12 133q-2 38 -2 50q0 29 14.5 42t35.5 13q22 0 35.5 -11.5t13.5 -31.5q0 -19 -17 -62l-54 -133h-14zM229 -8q-93 0 -146.5 64t-53.5 167q0 104 63 175.5t170 71.5q52 0 98 -19v195q0 26 -14.5 37t-60.5 12v12l208 10v-662q0 -23 14.5 -34.5t54.5 -11.5v-9
l-200 -4v58q-55 -62 -133 -62zM288 41q39 0 72 30v332q-32 48 -87 48q-48 0 -75.5 -59.5t-27.5 -157.5q0 -83 31 -138t87 -55z" />
    <glyph glyph-name="Dcroat" unicode="&#x110;" horiz-adv-x="780" 
d="M31 0v14q61 2 82.5 15t21.5 42v279h-100v26h100v250q0 30 -22 43t-82 15v13h327q185 0 282.5 -92t97.5 -244q0 -73 -21 -136t-63.5 -114.5t-114 -81t-165.5 -29.5h-343zM281 19h62q132 0 184 71t52 261q0 126 -27.5 199t-77.5 101t-133 28h-60v-303h136v-26h-136v-331z
" />
    <glyph glyph-name="dcroat" unicode="&#x111;" horiz-adv-x="565" 
d="M229 -8q-93 0 -146.5 64t-53.5 167q0 104 63 175.5t170 71.5q52 0 98 -19v121h-130v22h130v52q0 26 -14.5 37t-60.5 12v12l208 10v-123h66v-22h-66v-517q0 -23 14.5 -34.5t54.5 -11.5v-9l-200 -4v58q-55 -62 -133 -62zM288 41q39 0 72 30v332q-32 48 -87 48
q-48 0 -75.5 -59.5t-27.5 -157.5q0 -83 31 -138t87 -55z" />
    <glyph glyph-name="Emacron" unicode="&#x112;" horiz-adv-x="715" 
d="M31 0v14q61 2 82.5 15t21.5 42v555q0 30 -22 43t-82 15v13h597l3 -238l-15 -1q-30 67 -49 101.5t-46 65.5t-58.5 42.5t-77.5 11.5h-104v-308h42q62 0 97.5 30.5t55.5 105.5h13v-292h-13q-20 76 -56 107t-97 31h-42v-334h99q104 0 155 48.5t109 185.5l15 -2l-5 -251h-623z
M217 796v47h298v-47h-298z" />
    <glyph glyph-name="emacron" unicode="&#x113;" horiz-adv-x="498" 
d="M266 -8q-107 0 -172 62.5t-65 170.5q0 110 68 177.5t168 67.5q103 0 157 -61.5t49 -160.5h-301v-19v-1q0 -92 38.5 -143t112.5 -51q44 0 76 20.5t62 61.5l11 -7q-74 -117 -204 -117zM259 451q-82 0 -88 -185h164q9 87 -10.5 136t-65.5 49zM117 556v47h298v-47h-298z" />
    <glyph glyph-name="Ebreve" unicode="&#x114;" horiz-adv-x="715" 
d="M31 0v14q61 2 82.5 15t21.5 42v555q0 30 -22 43t-82 15v13h597l3 -238l-15 -1q-30 67 -49 101.5t-46 65.5t-58.5 42.5t-77.5 11.5h-104v-308h42q62 0 97.5 30.5t55.5 105.5h13v-292h-13q-20 76 -56 107t-97 31h-42v-334h99q104 0 155 48.5t109 185.5l15 -2l-5 -251h-623z
M363 771q-58 0 -96.5 44t-44.5 122h15q14 -42 47 -63.5t78 -21.5t78.5 22t46.5 63h15q-5 -78 -43 -122t-96 -44z" />
    <glyph glyph-name="ebreve" unicode="&#x115;" horiz-adv-x="498" 
d="M266 -8q-107 0 -172 62.5t-65 170.5q0 110 68 177.5t168 67.5q103 0 157 -61.5t49 -160.5h-301v-19v-1q0 -92 38.5 -143t112.5 -51q44 0 76 20.5t62 61.5l11 -7q-74 -117 -204 -117zM259 451q-82 0 -88 -185h164q9 87 -10.5 136t-65.5 49zM261 531q-58 0 -96.5 44
t-44.5 122h15q14 -42 47 -63.5t78 -21.5t78.5 22t46.5 63h15q-5 -78 -43 -122t-96 -44z" />
    <glyph glyph-name="Edotaccent" unicode="&#x116;" horiz-adv-x="715" 
d="M31 0v14q61 2 82.5 15t21.5 42v555q0 30 -22 43t-82 15v13h597l3 -238l-15 -1q-30 67 -49 101.5t-46 65.5t-58.5 42.5t-77.5 11.5h-104v-308h42q62 0 97.5 30.5t55.5 105.5h13v-292h-13q-20 76 -56 107t-97 31h-42v-334h99q104 0 155 48.5t109 185.5l15 -2l-5 -251h-623z
M362 771q-36 0 -57 20.5t-21 56.5t21.5 58.5t56.5 22.5q36 0 57.5 -21.5t21.5 -56.5q0 -36 -21.5 -58t-57.5 -22z" />
    <glyph glyph-name="edotaccent" unicode="&#x117;" horiz-adv-x="498" 
d="M266 -8q-107 0 -172 62.5t-65 170.5q0 110 68 177.5t168 67.5q103 0 157 -61.5t49 -160.5h-301v-19v-1q0 -92 38.5 -143t112.5 -51q44 0 76 20.5t62 61.5l11 -7q-74 -117 -204 -117zM259 451q-82 0 -88 -185h164q9 87 -10.5 136t-65.5 49zM260 531q-36 0 -57 20.5
t-21 56.5t21.5 58.5t56.5 22.5q36 0 57.5 -21.5t21.5 -56.5q0 -36 -21.5 -58t-57.5 -22z" />
    <glyph glyph-name="Eogonek" unicode="&#x118;" horiz-adv-x="715" 
d="M31 0v14q61 2 82.5 15t21.5 42v555q0 30 -22 43t-82 15v13h597l3 -238l-15 -1q-30 67 -49 101.5t-46 65.5t-58.5 42.5t-77.5 11.5h-104v-308h42q62 0 97.5 30.5t55.5 105.5h13v-292h-13q-20 76 -56 107t-97 31h-42v-334h99q104 0 155 48.5t109 185.5l15 -2l-5 -251h-71
l-21 -24q-54 -58 -54 -122q0 -30 15 -47.5t42 -17.5q32 0 66 19l7 -13q-51 -41 -126 -41q-44 0 -70.5 22t-26.5 61t26 70t78 67l38 26h-526z" />
    <glyph glyph-name="eogonek" unicode="&#x119;" horiz-adv-x="498" 
d="M459 116l11 -7q-18 -30 -51 -63q-34 -29 -72 -70q-53 -57 -53 -122q0 -30 15 -47.5t42 -17.5q32 0 66 19l6 -13q-51 -41 -126 -41q-44 0 -70.5 22t-26.5 61t26 70t78 67l46 32q-37 -14 -84 -14q-107 0 -172 62.5t-65 170.5q0 110 68 177.5t168 67.5q103 0 157 -61.5
t49 -160.5h-301v-19v-1q0 -92 38.5 -143t112.5 -51q44 0 76 20.5t62 61.5zM259 451q-82 0 -88 -185h164q9 87 -10.5 136t-65.5 49z" />
    <glyph glyph-name="Ecaron" unicode="&#x11a;" horiz-adv-x="715" 
d="M354 766l-135 204h16l129 -89l130 89h16l-143 -204h-13zM31 0v14q61 2 82.5 15t21.5 42v555q0 30 -22 43t-82 15v13h597l3 -238l-15 -1q-30 67 -49 101.5t-46 65.5t-58.5 42.5t-77.5 11.5h-104v-308h42q62 0 97.5 30.5t55.5 105.5h13v-292h-13q-20 76 -56 107t-97 31h-42
v-334h99q104 0 155 48.5t109 185.5l15 -2l-5 -251h-623z" />
    <glyph glyph-name="ecaron" unicode="&#x11b;" horiz-adv-x="498" 
d="M266 -8q-107 0 -172 62.5t-65 170.5q0 110 68 177.5t168 67.5q103 0 157 -61.5t49 -160.5h-301v-19v-1q0 -92 38.5 -143t112.5 -51q44 0 76 20.5t62 61.5l11 -7q-74 -117 -204 -117zM259 451q-82 0 -88 -185h164q9 87 -10.5 136t-65.5 49zM254 526l-135 204h16l129 -89
l130 89h16l-143 -204h-13z" />
    <glyph glyph-name="Gbreve" unicode="&#x11e;" horiz-adv-x="759" 
d="M403 -17q-157 0 -259 97t-102 267q0 162 107.5 264.5t262.5 102.5q105 0 185 -45l49 50h11v-243h-14q-51 110 -107.5 164.5t-131.5 54.5q-86 0 -143.5 -87.5t-57.5 -258.5q0 -172 59.5 -259.5t149.5 -87.5q77 0 118 35v211q0 30 -23.5 45t-84.5 17v13h324v-13
q-45 -3 -60.5 -15.5t-15.5 -45.5v-197q-116 -69 -267 -69zM391 771q-58 0 -96.5 44t-44.5 122h15q14 -42 47 -63.5t78 -21.5t78.5 22t46.5 63h15q-5 -78 -43 -122t-96 -44z" />
    <glyph glyph-name="gbreve" unicode="&#x11f;" horiz-adv-x="479" 
d="M251 -183q65 0 106 27.5t41 74.5q0 62 -117 62h-127q-52 -27 -52 -71q0 -93 149 -93zM246 176q38 0 53 32t15 105q0 137 -77 137q-39 0 -53.5 -31.5t-14.5 -105.5q0 -71 18.5 -104t58.5 -33zM242 467q52 0 93 -16q40 92 110 92q29 0 45 -15.5t16 -40.5q0 -21 -13 -35
t-35 -14q-20 0 -35.5 16t-15.5 41q-32 -11 -55 -51q91 -40 91 -129q0 -71 -57.5 -114t-143.5 -43q-36 0 -65 7q-56 -18 -56 -47q0 -32 89 -32h100q173 0 173 -121q0 -68 -71 -116.5t-187 -48.5q-93 0 -152 27t-59 70q0 69 113 85v3q-84 26 -84 94q0 27 28 53t78 40
q-109 37 -109 139q0 70 57.5 113t144.5 43zM249 531q-58 0 -96.5 44t-44.5 122h15q14 -42 47 -63.5t78 -21.5t78.5 22t46.5 63h15q-5 -78 -43 -122t-96 -44z" />
    <glyph glyph-name="Gdotaccent" unicode="&#x120;" horiz-adv-x="759" 
d="M403 -17q-157 0 -259 97t-102 267q0 162 107.5 264.5t262.5 102.5q105 0 185 -45l49 50h11v-243h-14q-51 110 -107.5 164.5t-131.5 54.5q-86 0 -143.5 -87.5t-57.5 -258.5q0 -172 59.5 -259.5t149.5 -87.5q77 0 118 35v211q0 30 -23.5 45t-84.5 17v13h324v-13
q-45 -3 -60.5 -15.5t-15.5 -45.5v-197q-116 -69 -267 -69zM393 771q-36 0 -57 20.5t-21 56.5t21.5 58.5t56.5 22.5q36 0 57.5 -21.5t21.5 -56.5q0 -36 -21.5 -58t-57.5 -22z" />
    <glyph glyph-name="gdotaccent" unicode="&#x121;" horiz-adv-x="479" 
d="M251 -183q65 0 106 27.5t41 74.5q0 62 -117 62h-127q-52 -27 -52 -71q0 -93 149 -93zM246 176q38 0 53 32t15 105q0 137 -77 137q-39 0 -53.5 -31.5t-14.5 -105.5q0 -71 18.5 -104t58.5 -33zM242 467q52 0 93 -16q40 92 110 92q29 0 45 -15.5t16 -40.5q0 -21 -13 -35
t-35 -14q-20 0 -35.5 16t-15.5 41q-32 -11 -55 -51q91 -40 91 -129q0 -71 -57.5 -114t-143.5 -43q-36 0 -65 7q-56 -18 -56 -47q0 -32 89 -32h100q173 0 173 -121q0 -68 -71 -116.5t-187 -48.5q-93 0 -152 27t-59 70q0 69 113 85v3q-84 26 -84 94q0 27 28 53t78 40
q-109 37 -109 139q0 70 57.5 113t144.5 43zM248 531q-36 0 -57 20.5t-21 56.5t21.5 58.5t56.5 22.5q36 0 57.5 -21.5t21.5 -56.5q0 -36 -21.5 -58t-57.5 -22z" />
    <glyph glyph-name="Gcommaaccent" unicode="&#x122;" horiz-adv-x="759" 
d="M319 -320l-8 11q86 53 90 119l-4 2q-11 -7 -26 -7q-25 0 -43 18t-18 47t19 49.5t48 20.5q36 0 58 -25t22 -66q0 -52 -36 -97t-102 -72zM403 -17q-157 0 -259 97t-102 267q0 162 107.5 264.5t262.5 102.5q105 0 185 -45l49 50h11v-243h-14q-51 110 -107.5 164.5
t-131.5 54.5q-86 0 -143.5 -87.5t-57.5 -258.5q0 -172 59.5 -259.5t149.5 -87.5q77 0 118 35v211q0 30 -23.5 45t-84.5 17v13h324v-13q-45 -3 -60.5 -15.5t-15.5 -45.5v-197q-116 -69 -267 -69z" />
    <glyph glyph-name="gcommaaccent" unicode="&#x123;" horiz-adv-x="479" 
d="M310 797l8 -11q-86 -53 -90 -119l4 -2q11 7 26 7q25 0 43 -18t18 -47t-19 -49.5t-48 -20.5q-36 0 -58 25t-22 66q0 52 36 97t102 72zM251 -183q65 0 106 27.5t41 74.5q0 62 -117 62h-127q-52 -27 -52 -71q0 -93 149 -93zM246 176q38 0 53 32t15 105q0 137 -77 137
q-39 0 -53.5 -31.5t-14.5 -105.5q0 -71 18.5 -104t58.5 -33zM242 467q52 0 93 -16q40 92 110 92q29 0 45 -15.5t16 -40.5q0 -21 -13 -35t-35 -14q-20 0 -35.5 16t-15.5 41q-32 -11 -55 -51q91 -40 91 -129q0 -71 -57.5 -114t-143.5 -43q-36 0 -65 7q-56 -18 -56 -47
q0 -32 89 -32h100q173 0 173 -121q0 -68 -71 -116.5t-187 -48.5q-93 0 -152 27t-59 70q0 69 113 85v3q-84 26 -84 94q0 27 28 53t78 40q-109 37 -109 139q0 70 57.5 113t144.5 43z" />
    <glyph glyph-name="Hbar" unicode="&#x126;" horiz-adv-x="843" 
d="M31 0v14q61 2 82.5 14.5t21.5 42.5v440h-97v24h97v92q0 29 -21.5 42t-82.5 15v13h346v-13q-54 -2 -75 -14.5t-21 -42.5v-92h282v92q0 30 -21.5 42.5t-75.5 14.5v13h347v-13q-61 -2 -82.5 -14.5t-21.5 -42.5v-92h97v-24h-97v-440q0 -30 21.5 -42.5t82.5 -14.5v-14h-347v14
q55 2 76 14.5t21 42.5v281h-282v-281q0 -31 21 -43t75 -14v-14h-346zM281 372h282v139h-282v-139z" />
    <glyph glyph-name="hbar" unicode="&#x127;" horiz-adv-x="585" 
d="M12 0v12q42 1 55.5 8.5t13.5 28.5v523h-67v22h67v52q0 26 -14.5 37t-60.5 12v12l208 10v-123h129v-22h-129v-208q32 48 77.5 75.5t94.5 27.5q126 0 126 -144v-274q0 -21 13 -28.5t56 -8.5v-12h-256v12q30 1 42 8.5t12 28.5v264q0 95 -73 95q-51 0 -92 -66v-293
q0 -21 11.5 -28.5t41.5 -8.5v-12h-255z" />
    <glyph glyph-name="Imacron" unicode="&#x12a;" horiz-adv-x="435" 
d="M38 0v14q63 2 85 14.5t22 42.5v555q0 30 -22 43t-85 15v13h359v-13q-63 -2 -85 -15t-22 -43v-555q0 -30 22 -42.5t85 -14.5v-14h-359zM69 796v47h298v-47h-298z" />
    <glyph glyph-name="imacron" unicode="&#x12b;" horiz-adv-x="311" 
d="M26 561v47h258v-47h-258zM20 0v12q43 1 57.5 8.5t14.5 28.5v344q0 24 -16 36.5t-56 13.5v12l205 9v-415q0 -22 13 -29t57 -8v-12h-275z" />
    <glyph glyph-name="Ibreve" unicode="&#x12c;" horiz-adv-x="435" 
d="M38 0v14q63 2 85 14.5t22 42.5v555q0 30 -22 43t-85 15v13h359v-13q-63 -2 -85 -15t-22 -43v-555q0 -30 22 -42.5t85 -14.5v-14h-359zM218 771q-58 0 -96.5 44t-44.5 122h15q14 -42 47 -63.5t78 -21.5t78.5 22t46.5 63h15q-5 -78 -43 -122t-96 -44z" />
    <glyph glyph-name="ibreve" unicode="&#x12d;" horiz-adv-x="311" 
d="M20 0v12q43 1 57.5 8.5t14.5 28.5v344q0 24 -16 36.5t-56 13.5v12l205 9v-415q0 -22 13 -29t57 -8v-12h-275zM157 531q-58 0 -96.5 44t-44.5 122h15q14 -42 47 -63.5t78 -21.5t78.5 22t46.5 63h15q-5 -78 -43 -122t-96 -44z" />
    <glyph glyph-name="Iogonek" unicode="&#x12e;" horiz-adv-x="435" 
d="M38 0v14q63 2 85 14.5t22 42.5v555q0 30 -22 43t-85 15v13h359v-13q-63 -2 -85 -15t-22 -43v-555q0 -30 22 -42.5t85 -14.5v-14h-142l-21 -24q-54 -58 -54 -122q0 -30 15 -47.5t42 -17.5q32 0 66 19l7 -13q-51 -41 -126 -41q-44 0 -70.5 22t-26.5 61t26 70t78 67l38 26
h-191z" />
    <glyph glyph-name="iogonek" unicode="&#x12f;" horiz-adv-x="311" 
d="M23 0v12q43 1 57.5 8.5t14.5 28.5v344q0 24 -16 36.5t-56 13.5v12l205 9v-415q0 -21 13.5 -28.5t56.5 -8.5v-12h-85l-21 -24q-54 -58 -54 -122q0 -30 15 -47.5t42 -17.5q32 0 66 19l7 -13q-51 -41 -126 -41q-44 0 -70.5 22t-26.5 61t26 70t78 67l38 26h-164zM159 541
q-36 0 -57.5 20.5t-21.5 56.5t22 58.5t57 22.5t56.5 -21.5t21.5 -56.5q0 -37 -21.5 -58.5t-56.5 -21.5z" />
    <glyph glyph-name="Idotaccent" unicode="&#x130;" horiz-adv-x="435" 
d="M38 0v14q63 2 85 14.5t22 42.5v555q0 30 -22 43t-85 15v13h359v-13q-63 -2 -85 -15t-22 -43v-555q0 -30 22 -42.5t85 -14.5v-14h-359zM217 771q-36 0 -57 20.5t-21 56.5t21.5 58.5t56.5 22.5q36 0 57.5 -21.5t21.5 -56.5q0 -36 -21.5 -58t-57.5 -22z" />
    <glyph glyph-name="dotlessi" unicode="&#x131;" horiz-adv-x="311" 
d="M20 0v12q43 1 57.5 8.5t14.5 28.5v344q0 24 -16 36.5t-56 13.5v12l205 9v-415q0 -22 13 -29t57 -8v-12h-275z" />
    <glyph glyph-name="Kcommaaccent" unicode="&#x136;" horiz-adv-x="762" 
d="M325 -320l-8 11q86 53 90 119l-4 2q-11 -7 -26 -7q-25 0 -43 18t-18 47t19 49.5t48 20.5q36 0 58 -25t22 -66q0 -52 -36 -97t-102 -72zM274 313l224 239q31 34 42 60.5t-5 46.5t-63 25v13h274v-13q-63 -13 -118 -50t-133 -118l-70 -73l221 -316q46 -65 70 -86t70 -27v-14
h-333v14q54 4 62 23.5t-22 62.5l-165 241l-54 -57v-213q0 -30 20.5 -42.5t73.5 -14.5v-14h-344v14q61 2 82.5 14.5t21.5 42.5v556q0 29 -21.5 42t-82.5 15v13h346v-12q-54 -3 -75 -15.5t-21 -42.5v-314z" />
    <glyph glyph-name="kcommaaccent" unicode="&#x137;" horiz-adv-x="557" 
d="M214 -320l-8 11q86 53 90 119l-4 2q-11 -7 -26 -7q-25 0 -43 18t-18 47t19 49.5t48 20.5q36 0 58 -25t22 -66q0 -52 -36 -97t-102 -72zM214 187v-138q0 -21 11 -28.5t39 -8.5v-12h-252v12q42 1 55.5 8.5t13.5 28.5v597q0 26 -14.5 37t-60.5 12v12l208 10v-506l135 144
q65 71 -32 95v12h222v-12q-48 -10 -86 -34.5t-87 -73.5l-34 -32l157 -232q28 -41 44 -51.5t51 -14.5v-12h-262v12q35 2 40.5 14t-12.5 40l-101 157z" />
    <glyph glyph-name="Lacute" unicode="&#x139;" horiz-adv-x="658" 
d="M200 766l35 125q14 58 28 80t40 22q24 0 41 -15.5t17 -37.5q0 -16 -12.5 -33t-48.5 -56l-83 -85h-17zM24 0v14q61 2 82.5 15t21.5 42v555q0 30 -22 43t-82 15v13h351v-13q-62 -2 -81.5 -14.5t-19.5 -43.5v-607h59q73 0 119 22t81 70t78 145l15 -1l-9 -255h-593z" />
    <glyph glyph-name="lacute" unicode="&#x13a;" horiz-adv-x="302" 
d="M110 759l35 125q14 58 28 80t40 22q24 0 41 -15.5t17 -37.5q0 -16 -12.5 -33t-48.5 -56l-83 -85h-17zM18 0v12q41 1 54.5 8.5t13.5 28.5v597q0 26 -14.5 37t-60.5 12v12l208 10v-668q0 -21 13 -28.5t56 -8.5v-12h-270z" />
    <glyph glyph-name="Lcommaaccent" unicode="&#x13b;" horiz-adv-x="658" 
d="M272 -320l-8 11q86 53 90 119l-4 2q-11 -7 -26 -7q-25 0 -43 18t-18 47t19 49.5t48 20.5q36 0 58 -25t22 -66q0 -52 -36 -97t-102 -72zM24 0v14q61 2 82.5 15t21.5 42v555q0 30 -22 43t-82 15v13h351v-13q-62 -2 -81.5 -14.5t-19.5 -43.5v-607h59q73 0 119 22t81 70
t78 145l15 -1l-9 -255h-593z" />
    <glyph glyph-name="lcommaaccent" unicode="&#x13c;" horiz-adv-x="302" 
d="M86 -320l-8 11q86 53 90 119l-4 2q-11 -7 -26 -7q-25 0 -43 18t-18 47t19 49.5t48 20.5q36 0 58 -25t22 -66q0 -52 -36 -97t-102 -72zM18 0v12q41 1 54.5 8.5t13.5 28.5v597q0 26 -14.5 37t-60.5 12v12l208 10v-668q0 -21 13 -28.5t56 -8.5v-12h-270z" />
    <glyph glyph-name="Lcaron" unicode="&#x13d;" horiz-adv-x="658" 
d="M451 510l-12 133q-2 38 -2 50q0 29 14.5 42t35.5 13q22 0 35.5 -11.5t13.5 -31.5q0 -19 -17 -62l-54 -133h-14zM24 0v14q61 2 82.5 15t21.5 42v555q0 30 -22 43t-82 15v13h351v-13q-62 -2 -81.5 -14.5t-19.5 -43.5v-607h59q73 0 119 22t81 70t78 145l15 -1l-9 -255h-593z
" />
    <glyph glyph-name="lcaron" unicode="&#x13e;" horiz-adv-x="302" 
d="M311 530l-12 133q-2 38 -2 50q0 29 14.5 42t35.5 13q22 0 35.5 -11.5t13.5 -31.5q0 -19 -17 -62l-54 -133h-14zM18 0v12q41 1 54.5 8.5t13.5 28.5v597q0 26 -14.5 37t-60.5 12v12l208 10v-668q0 -21 13 -28.5t56 -8.5v-12h-270z" />
    <glyph glyph-name="Ldot" unicode="&#x13f;" horiz-adv-x="658" 
d="M24 0v14q61 2 82.5 15t21.5 42v555q0 30 -22 43t-82 15v13h351v-13q-62 -2 -81.5 -14.5t-19.5 -43.5v-607h59q106 0 160.5 45t117.5 178l15 -1l-9 -241h-593zM515 310q-36 0 -57 20.5t-21 56.5t21.5 58.5t56.5 22.5q36 0 57.5 -21.5t21.5 -56.5q0 -36 -21.5 -58
t-57.5 -22z" />
    <glyph glyph-name="ldot" unicode="&#x140;" horiz-adv-x="423" 
d="M364 250q-34 0 -55 20t-21 54q0 35 21 57t55 22q35 0 55.5 -20.5t20.5 -55.5t-21 -56t-55 -21zM18 0v12q41 1 54.5 8.5t13.5 28.5v597q0 26 -14.5 37t-60.5 12v12l208 10v-668q0 -21 13 -28.5t56 -8.5v-12h-270z" />
    <glyph glyph-name="Lslash" unicode="&#x141;" horiz-adv-x="658" 
d="M24 0v14q61 2 82.5 15t21.5 42v241l-90 -24l-7 26l97 25v287q0 30 -22 43t-82 15v13h351v-13q-62 -2 -81.5 -14.5t-19.5 -43.5v-249l139 37l6 -24l-145 -39v-332h59q73 0 119 22t81 70t78 145l15 -1l-9 -255h-593z" />
    <glyph glyph-name="lslash" unicode="&#x142;" horiz-adv-x="338" 
d="M39 0v12q41 1 54.5 8.5t13.5 28.5v272l-77 -20l-6 22l83 22v301q0 26 -14.5 37t-60.5 12v12l208 10v-337l84 23l6 -22l-90 -24v-308q0 -21 13 -28.5t56 -8.5v-12h-270z" />
    <glyph glyph-name="Nacute" unicode="&#x143;" horiz-adv-x="809" 
d="M398 756l35 125q14 58 28 80t40 22q24 0 41 -15.5t17 -37.5q0 -16 -12.5 -33t-48.5 -56l-83 -85h-17zM629 -11l-450 582h-1v-401q0 -77 29.5 -112.5t104.5 -43.5v-14h-282v14q69 9 96 44t27 112v398q0 49 -31 81t-92 35v13h236l385 -501h1v332q0 75 -31.5 111t-106.5 45
v13h284v-13q-69 -10 -95 -45t-26 -111v-539h-48z" />
    <glyph glyph-name="nacute" unicode="&#x144;" horiz-adv-x="592" 
d="M268 526l35 125q14 58 28 80t40 22q24 0 41 -15.5t17 -37.5q0 -16 -12.5 -33t-48.5 -56l-83 -85h-17zM20 0v12q43 1 56.5 8.5t13.5 28.5v344q0 25 -14.5 37t-55.5 13v12l201 9v-100q32 48 78 75.5t95 27.5q125 0 125 -144v-274q0 -21 13 -28.5t56 -8.5v-12h-257v12
q31 1 43 8.5t12 28.5v265q0 94 -71 94q-49 0 -92 -66v-293q0 -21 11.5 -28.5t41.5 -8.5v-12h-256z" />
    <glyph glyph-name="Ncommaaccent" unicode="&#x145;" horiz-adv-x="809" 
d="M346 -320l-8 11q86 53 90 119l-4 2q-11 -7 -26 -7q-25 0 -43 18t-18 47t19 49.5t48 20.5q36 0 58 -25t22 -66q0 -52 -36 -97t-102 -72zM629 -11l-450 582h-1v-401q0 -77 29.5 -112.5t104.5 -43.5v-14h-282v14q69 9 96 44t27 112v398q0 49 -31 81t-92 35v13h236l385 -501
h1v332q0 75 -31.5 111t-106.5 45v13h284v-13q-69 -10 -95 -45t-26 -111v-539h-48z" />
    <glyph glyph-name="ncommaaccent" unicode="&#x146;" horiz-adv-x="592" 
d="M234 -320l-8 11q86 53 90 119l-4 2q-11 -7 -26 -7q-25 0 -43 18t-18 47t19 49.5t48 20.5q36 0 58 -25t22 -66q0 -52 -36 -97t-102 -72zM20 0v12q43 1 56.5 8.5t13.5 28.5v344q0 25 -14.5 37t-55.5 13v12l201 9v-100q32 48 78 75.5t95 27.5q125 0 125 -144v-274
q0 -21 13 -28.5t56 -8.5v-12h-257v12q31 1 43 8.5t12 28.5v265q0 94 -71 94q-49 0 -92 -66v-293q0 -21 11.5 -28.5t41.5 -8.5v-12h-256z" />
    <glyph glyph-name="Ncaron" unicode="&#x147;" horiz-adv-x="809" 
d="M409 756l-135 204h16l129 -89l130 89h16l-143 -204h-13zM629 -11l-450 582h-1v-401q0 -77 29.5 -112.5t104.5 -43.5v-14h-282v14q69 9 96 44t27 112v398q0 49 -31 81t-92 35v13h236l385 -501h1v332q0 75 -31.5 111t-106.5 45v13h284v-13q-69 -10 -95 -45t-26 -111v-539
h-48z" />
    <glyph glyph-name="ncaron" unicode="&#x148;" horiz-adv-x="592" 
d="M294 526l-135 204h16l129 -89l130 89h16l-143 -204h-13zM20 0v12q43 1 56.5 8.5t13.5 28.5v344q0 25 -14.5 37t-55.5 13v12l201 9v-100q32 48 78 75.5t95 27.5q125 0 125 -144v-274q0 -21 13 -28.5t56 -8.5v-12h-257v12q31 1 43 8.5t12 28.5v265q0 94 -71 94
q-49 0 -92 -66v-293q0 -21 11.5 -28.5t41.5 -8.5v-12h-256z" />
    <glyph glyph-name="Omacron" unicode="&#x14c;" horiz-adv-x="775" 
d="M239 796v47h298v-47h-298zM387 -17q-151 0 -248 99.5t-97 264.5q0 163 99 265t246 102q152 0 249.5 -99.5t97.5 -263.5t-99.5 -266t-247.5 -102zM392 2q92 0 136 82t44 265q0 181 -48 263.5t-141 82.5q-92 0 -136 -81.5t-44 -264.5q0 -181 48 -264t141 -83z" />
    <glyph glyph-name="omacron" unicode="&#x14d;" horiz-adv-x="541" 
d="M122 556v47h298v-47h-298zM271 -8q-111 0 -176.5 64t-65.5 174q0 109 67.5 174.5t174.5 65.5q110 0 175.5 -63.5t65.5 -172.5t-67 -175.5t-174 -66.5zM275 11q51 0 73 54.5t22 166.5q0 219 -104 219q-52 0 -73 -53.5t-21 -165.5q0 -221 103 -221z" />
    <glyph glyph-name="Obreve" unicode="&#x14e;" horiz-adv-x="775" 
d="M387 -17q-151 0 -248 99.5t-97 264.5q0 163 99 265t246 102q152 0 249.5 -99.5t97.5 -263.5t-99.5 -266t-247.5 -102zM392 2q92 0 136 82t44 265q0 181 -48 263.5t-141 82.5q-92 0 -136 -81.5t-44 -264.5q0 -181 48 -264t141 -83zM388 771q-58 0 -96.5 44t-44.5 122h15
q14 -42 47 -63.5t78 -21.5t78.5 22t46.5 63h15q-5 -78 -43 -122t-96 -44z" />
    <glyph glyph-name="obreve" unicode="&#x14f;" horiz-adv-x="541" 
d="M271 -8q-111 0 -176.5 64t-65.5 174q0 109 67.5 174.5t174.5 65.5q110 0 175.5 -63.5t65.5 -172.5t-67 -175.5t-174 -66.5zM275 11q51 0 73 54.5t22 166.5q0 219 -104 219q-52 0 -73 -53.5t-21 -165.5q0 -221 103 -221zM271 531q-58 0 -96.5 44t-44.5 122h15
q14 -42 47 -63.5t78 -21.5t78.5 22t46.5 63h15q-5 -78 -43 -122t-96 -44z" />
    <glyph glyph-name="Ohungarumlaut" unicode="&#x150;" horiz-adv-x="775" 
d="M451 766l50 126q22 58 37.5 78.5t40.5 20.5q21 0 34.5 -13t13.5 -33q0 -17 -13.5 -36t-56.5 -57l-95 -86h-11zM289 766l51 126q22 58 37.5 78.5t40.5 20.5q20 0 33.5 -13t13.5 -33q0 -17 -14 -36t-56 -57l-95 -86h-11zM387 -17q-151 0 -248 99.5t-97 264.5q0 163 99 265
t246 102q152 0 249.5 -99.5t97.5 -263.5t-99.5 -266t-247.5 -102zM392 2q92 0 136 82t44 265q0 181 -48 263.5t-141 82.5q-92 0 -136 -81.5t-44 -264.5q0 -181 48 -264t141 -83z" />
    <glyph glyph-name="ohungarumlaut" unicode="&#x151;" horiz-adv-x="541" 
d="M325 526l50 126q22 58 37.5 78.5t40.5 20.5q21 0 34.5 -13t13.5 -33q0 -17 -13.5 -36t-56.5 -57l-95 -86h-11zM163 526l51 126q22 58 37.5 78.5t40.5 20.5q20 0 33.5 -13t13.5 -33q0 -17 -14 -36t-56 -57l-95 -86h-11zM271 -8q-111 0 -176.5 64t-65.5 174
q0 109 67.5 174.5t174.5 65.5q110 0 175.5 -63.5t65.5 -172.5t-67 -175.5t-174 -66.5zM275 11q51 0 73 54.5t22 166.5q0 219 -104 219q-52 0 -73 -53.5t-21 -165.5q0 -221 103 -221z" />
    <glyph glyph-name="OE" unicode="&#x152;" horiz-adv-x="1081" 
d="M423 0q-185 0 -282.5 92t-97.5 244q0 58 13 109.5t41 98t70 80.5t104.5 53.5t138.5 19.5h584l3 -238l-15 -1q-30 66 -49 101t-46 66t-59 42.5t-78 11.5h-104v-308h42q62 0 98 30.5t56 105.5h13v-292h-13q-20 76 -56 107t-98 31h-42v-334h100q72 0 118 24.5t76 70.5
t69 139l15 -2l-5 -251h-596zM423 19q77 0 77 53v553q0 53 -74 53q-120 0 -171.5 -72t-51.5 -260q0 -97 16 -163t47 -101t68.5 -49t88.5 -14z" />
    <glyph glyph-name="oe" unicode="&#x153;" horiz-adv-x="837" 
d="M604 -8q-100 0 -164 67q-65 -67 -169 -67q-111 0 -176.5 64t-65.5 174q0 109 67.5 174.5t174.5 65.5q105 0 170 -68q63 68 163 68q102 0 156 -61.5t49 -160.5h-301v-19v-1q0 -93 39 -143.5t113 -50.5q43 0 75 20t63 62l11 -7q-74 -117 -205 -117zM370 232q0 219 -104 219
q-52 0 -73 -53.5t-21 -165.5q0 -221 103 -221q51 0 73 54.5t22 166.5zM597 451q-80 0 -88 -185h164q9 87 -10 136t-66 49z" />
    <glyph glyph-name="Racute" unicode="&#x154;" horiz-adv-x="735" 
d="M330 766l35 125q14 58 28 80t40 22q24 0 41 -15.5t17 -37.5q0 -16 -12.5 -33t-48.5 -56l-83 -85h-17zM281 361h68q91 0 121.5 35t30.5 123q0 80 -36.5 120t-126.5 40h-57v-318zM281 344v-273q0 -30 22 -42.5t77 -14.5v-14h-349v14q61 2 82.5 15t21.5 42v555q0 30 -22 43
t-82 15v13h341q147 0 214.5 -47t67.5 -122q0 -142 -212 -172v-3q103 -3 145.5 -44.5t53.5 -119.5l6 -77q9 -61 28 -78t81 -18v-12q-56 -9 -106 -9q-89 0 -118.5 28t-35.5 99l-8 87q-8 78 -38 106.5t-113 28.5h-56z" />
    <glyph glyph-name="racute" unicode="&#x155;" horiz-adv-x="450" 
d="M173 526l35 125q14 58 28 80t40 22q24 0 41 -15.5t17 -37.5q0 -16 -12.5 -33t-48.5 -56l-83 -85h-17zM20 0v12q43 1 56.5 8.5t13.5 28.5v344q0 25 -14.5 37t-55.5 13v12l201 9v-96q25 47 61.5 73.5t76.5 26.5q42 0 65.5 -23t23.5 -60q0 -34 -20 -55.5t-51 -21.5
q-34 0 -55 20.5t-21 49.5q0 19 7 40q-46 -6 -85 -71v-298q0 -21 17 -28.5t72 -8.5v-12h-292z" />
    <glyph glyph-name="Rcommaaccent" unicode="&#x156;" horiz-adv-x="735" 
d="M317 -320l-8 11q86 53 90 119l-4 2q-11 -7 -26 -7q-25 0 -43 18t-18 47t19 49.5t48 20.5q36 0 58 -25t22 -66q0 -52 -36 -97t-102 -72zM281 361h68q91 0 121.5 35t30.5 123q0 80 -36.5 120t-126.5 40h-57v-318zM281 344v-273q0 -30 22 -42.5t77 -14.5v-14h-349v14
q61 2 82.5 15t21.5 42v555q0 30 -22 43t-82 15v13h341q147 0 214.5 -47t67.5 -122q0 -142 -212 -172v-3q103 -3 145.5 -44.5t53.5 -119.5l6 -77q9 -61 28 -78t81 -18v-12q-56 -9 -106 -9q-89 0 -118.5 28t-35.5 99l-8 87q-8 78 -38 106.5t-113 28.5h-56z" />
    <glyph glyph-name="rcommaaccent" unicode="&#x157;" horiz-adv-x="450" 
d="M94 -320l-8 11q86 53 90 119l-4 2q-11 -7 -26 -7q-25 0 -43 18t-18 47t19 49.5t48 20.5q36 0 58 -25t22 -66q0 -52 -36 -97t-102 -72zM20 0v12q43 1 56.5 8.5t13.5 28.5v344q0 25 -14.5 37t-55.5 13v12l201 9v-96q25 47 61.5 73.5t76.5 26.5q42 0 65.5 -23t23.5 -60
q0 -34 -20 -55.5t-51 -21.5q-34 0 -55 20.5t-21 49.5q0 19 7 40q-46 -6 -85 -71v-298q0 -21 17 -28.5t72 -8.5v-12h-292z" />
    <glyph glyph-name="Rcaron" unicode="&#x158;" horiz-adv-x="735" 
d="M361 766l-135 204h16l129 -89l130 89h16l-143 -204h-13zM281 361h68q91 0 121.5 35t30.5 123q0 80 -36.5 120t-126.5 40h-57v-318zM281 344v-273q0 -30 22 -42.5t77 -14.5v-14h-349v14q61 2 82.5 15t21.5 42v555q0 30 -22 43t-82 15v13h341q147 0 214.5 -47t67.5 -122
q0 -142 -212 -172v-3q103 -3 145.5 -44.5t53.5 -119.5l6 -77q9 -61 28 -78t81 -18v-12q-56 -9 -106 -9q-89 0 -118.5 28t-35.5 99l-8 87q-8 78 -38 106.5t-113 28.5h-56z" />
    <glyph glyph-name="rcaron" unicode="&#x159;" horiz-adv-x="450" 
d="M235 526l-135 204h16l129 -89l130 89h16l-143 -204h-13zM20 0v12q43 1 56.5 8.5t13.5 28.5v344q0 25 -14.5 37t-55.5 13v12l201 9v-96q25 47 61.5 73.5t76.5 26.5q42 0 65.5 -23t23.5 -60q0 -34 -20 -55.5t-51 -21.5q-34 0 -55 20.5t-21 49.5q0 19 7 40q-46 -6 -85 -71
v-298q0 -21 17 -28.5t72 -8.5v-12h-292z" />
    <glyph glyph-name="Sacute" unicode="&#x15a;" horiz-adv-x="588" 
d="M260 766l35 125q14 58 28 80t40 22q24 0 41 -15.5t17 -37.5q0 -16 -12.5 -33t-48.5 -56l-83 -85h-17zM51 -17v253h16q109 -230 247 -230q65 0 101.5 36t36.5 87q0 58 -42.5 93t-137.5 67q-50 17 -79 29.5t-64 36t-51.5 57.5t-16.5 80q0 98 66.5 158t172.5 60
q86 0 153 -38l44 44h12v-226h-16q-50 104 -100 152.5t-108 48.5q-50 0 -86.5 -31t-36.5 -85q0 -56 42.5 -89t136.5 -63q44 -14 73 -27t61.5 -36t49 -58t16.5 -81q0 -97 -61 -165.5t-181 -68.5q-95 0 -177 46l-59 -50h-12z" />
    <glyph glyph-name="sacute" unicode="&#x15b;" horiz-adv-x="437" 
d="M178 526l35 125q14 58 28 80t40 22q24 0 41 -15.5t17 -37.5q0 -16 -12.5 -33t-48.5 -56l-83 -85h-17zM36 -8v172h14q50 -82 91.5 -117.5t93.5 -35.5q38 0 59 20t21 52q0 35 -26.5 55t-103.5 42q-82 23 -115.5 52.5t-33.5 84.5q0 69 49.5 111t132.5 42q74 0 125 -34l28 34
h12v-154h-14q-47 75 -79.5 105t-77.5 30q-34 0 -54.5 -20.5t-20.5 -54.5q0 -29 27.5 -46.5t83.5 -32.5q84 -21 123.5 -53.5t39.5 -92.5q0 -69 -51 -114t-135 -45q-28 0 -76.5 12t-69.5 25l-31 -37h-12z" />
    <glyph glyph-name="Scedilla" unicode="&#x15e;" horiz-adv-x="588" 
d="M264 -251q-59 0 -103 22l9 16q41 -16 77 -16q55 0 55 50q0 23 -21.5 37.5t-57.5 14.5q-14 0 -34 -5l-6 9l116 110q-95 0 -177 46l-59 -50h-12v253h16q109 -230 247 -230q65 0 101.5 36t36.5 87q0 58 -42.5 93t-137.5 67q-50 17 -79 29.5t-64 36t-51.5 57.5t-16.5 80
q0 98 66.5 158t172.5 60q86 0 153 -38l44 44h12v-226h-16q-50 104 -100 152.5t-108 48.5q-50 0 -86.5 -31t-36.5 -85q0 -56 42.5 -89t136.5 -63q44 -14 73 -27t61.5 -36t49 -58t16.5 -81q0 -58 -21 -107t-71.5 -84.5t-122.5 -41.5l-58 -55l2 -3q59 -2 89 -28.5t30 -61.5
q0 -40 -33.5 -65.5t-91.5 -25.5z" />
    <glyph glyph-name="scedilla" unicode="&#x15f;" horiz-adv-x="437" 
d="M192 -251q-59 0 -103 22l9 16q41 -16 77 -16q55 0 55 50q0 23 -21.5 37.5t-57.5 14.5q-14 0 -34 -5l-6 9l121 115h-7q-28 0 -76.5 12t-69.5 25l-31 -37h-12v172h14q50 -82 91.5 -117.5t93.5 -35.5q38 0 59 20t21 52q0 35 -26.5 55t-103.5 42q-82 23 -115.5 52.5
t-33.5 84.5q0 69 49.5 111t132.5 42q74 0 125 -34l28 34h12v-154h-14q-47 75 -79.5 105t-77.5 30q-34 0 -54.5 -20.5t-20.5 -54.5q0 -29 27.5 -46.5t83.5 -32.5q84 -21 123.5 -53.5t39.5 -92.5q0 -61 -40.5 -104t-109.5 -52l-65 -62l2 -3q59 -2 89 -28.5t30 -61.5
q0 -40 -33.5 -65.5t-91.5 -25.5z" />
    <glyph glyph-name="Scaron" unicode="&#x160;" horiz-adv-x="588" 
d="M297 766l-135 204h16l129 -89l130 89h16l-143 -204h-13zM51 -17v253h16q109 -230 247 -230q65 0 101.5 36t36.5 87q0 58 -42.5 93t-137.5 67q-50 17 -79 29.5t-64 36t-51.5 57.5t-16.5 80q0 98 66.5 158t172.5 60q86 0 153 -38l44 44h12v-226h-16q-50 104 -100 152.5
t-108 48.5q-50 0 -86.5 -31t-36.5 -85q0 -56 42.5 -89t136.5 -63q44 -14 73 -27t61.5 -36t49 -58t16.5 -81q0 -97 -61 -165.5t-181 -68.5q-95 0 -177 46l-59 -50h-12z" />
    <glyph glyph-name="scaron" unicode="&#x161;" horiz-adv-x="437" 
d="M223 526l-135 204h16l129 -89l130 89h16l-143 -204h-13zM36 -8v172h14q50 -82 91.5 -117.5t93.5 -35.5q38 0 59 20t21 52q0 35 -26.5 55t-103.5 42q-82 23 -115.5 52.5t-33.5 84.5q0 69 49.5 111t132.5 42q74 0 125 -34l28 34h12v-154h-14q-47 75 -79.5 105t-77.5 30
q-34 0 -54.5 -20.5t-20.5 -54.5q0 -29 27.5 -46.5t83.5 -32.5q84 -21 123.5 -53.5t39.5 -92.5q0 -69 -51 -114t-135 -45q-28 0 -76.5 12t-69.5 25l-31 -37h-12z" />
    <glyph glyph-name="Tcommaaccent" unicode="&#x162;" horiz-adv-x="726" 
d="M299 -320l-8 11q86 53 90 119l-4 2q-11 -7 -26 -7q-25 0 -43 18t-18 47t19 49.5t48 20.5q36 0 58 -25t22 -66q0 -52 -36 -97t-102 -72zM175 0v14q65 1 90.5 14.5t25.5 42.5v608h-25q-55 0 -103.5 -52t-104.5 -161l-15 2l6 229h629l5 -229l-15 -2q-56 109 -104 161
t-103 52h-24v-608q0 -29 25.5 -42.5t90.5 -14.5v-14h-378z" />
    <glyph glyph-name="tcommaaccent" unicode="&#x163;" horiz-adv-x="375" 
d="M133 -320l-8 11q86 53 90 119l-4 2q-11 -7 -26 -7q-25 0 -43 18t-18 47t19 49.5t48 20.5q36 0 58 -25t22 -66q0 -52 -36 -97t-102 -72zM231 -9q-138 0 -138 140v293h-89v16l91 19v127l131 40v-169h141v-32h-141v-303q0 -44 13 -63.5t45 -19.5q47 0 79 65l12 -6
q-22 -55 -56 -81t-88 -26z" />
    <glyph glyph-name="Tcaron" unicode="&#x164;" horiz-adv-x="726" 
d="M352 766l-135 204h16l129 -89l130 89h16l-143 -204h-13zM175 0v14q65 1 90.5 14.5t25.5 42.5v608h-25q-55 0 -103.5 -52t-104.5 -161l-15 2l6 229h629l5 -229l-15 -2q-56 109 -104 161t-103 52h-24v-608q0 -29 25.5 -42.5t90.5 -14.5v-14h-378z" />
    <glyph glyph-name="tcaron" unicode="&#x165;" horiz-adv-x="375" 
d="M309 530l-12 133q-2 38 -2 50q0 29 14.5 42t35.5 13q22 0 35.5 -11.5t13.5 -31.5q0 -19 -17 -62l-54 -133h-14zM231 -9q-138 0 -138 140v293h-89v16l91 19v127l131 40v-169h141v-32h-141v-303q0 -44 13 -63.5t45 -19.5q47 0 79 65l12 -6q-22 -55 -56 -81t-88 -26z" />
    <glyph glyph-name="Umacron" unicode="&#x16a;" horiz-adv-x="808" 
d="M412 -17q-287 0 -287 236v407q0 30 -22 43t-82 15v13h346v-13q-53 -2 -74.5 -15t-21.5 -43v-412q0 -197 192 -197q80 0 125 45q57 57 57 166v300q0 75 -31.5 111t-106.5 45v13h285v-13q-69 -10 -95 -45t-26 -111v-303q0 -115 -63.5 -178.5t-195.5 -63.5zM267 796v47h298
v-47h-298z" />
    <glyph glyph-name="umacron" unicode="&#x16b;" horiz-adv-x="582" 
d="M214 -8q-64 0 -100 37t-36 109v261q0 25 -14.5 36.5t-54.5 12.5v12l202 4v-314q0 -96 73 -96q49 0 89 63v282q0 24 -15.5 36t-54.5 13v12l203 4v-414q0 -21 13.5 -29t55.5 -9v-12h-200v95q-65 -103 -161 -103zM146 556v47h298v-47h-298z" />
    <glyph glyph-name="Ubreve" unicode="&#x16c;" horiz-adv-x="808" 
d="M412 -17q-287 0 -287 236v407q0 30 -22 43t-82 15v13h346v-13q-53 -2 -74.5 -15t-21.5 -43v-412q0 -197 192 -197q80 0 125 45q57 57 57 166v300q0 75 -31.5 111t-106.5 45v13h285v-13q-69 -10 -95 -45t-26 -111v-303q0 -115 -63.5 -178.5t-195.5 -63.5zM424 771
q-58 0 -96.5 44t-44.5 122h15q14 -42 47 -63.5t78 -21.5t78.5 22t46.5 63h15q-5 -78 -43 -122t-96 -44z" />
    <glyph glyph-name="ubreve" unicode="&#x16d;" horiz-adv-x="582" 
d="M214 -8q-64 0 -100 37t-36 109v261q0 25 -14.5 36.5t-54.5 12.5v12l202 4v-314q0 -96 73 -96q49 0 89 63v282q0 24 -15.5 36t-54.5 13v12l203 4v-414q0 -21 13.5 -29t55.5 -9v-12h-200v95q-65 -103 -161 -103zM291 531q-58 0 -96.5 44t-44.5 122h15q14 -42 47 -63.5
t78 -21.5t78.5 22t46.5 63h15q-5 -78 -43 -122t-96 -44z" />
    <glyph glyph-name="Uring" unicode="&#x16e;" horiz-adv-x="808" 
d="M425 771q-57 0 -89.5 29.5t-32.5 77.5q0 47 33.5 77.5t88.5 30.5q57 0 90 -30t33 -77t-33.5 -77.5t-89.5 -30.5zM427 788q50 0 50 90q0 91 -53 91q-50 0 -50 -91q0 -90 53 -90zM412 -17q-287 0 -287 236v407q0 30 -22 43t-82 15v13h346v-13q-53 -2 -74.5 -15t-21.5 -43
v-412q0 -197 192 -197q80 0 125 45q57 57 57 166v300q0 75 -31.5 111t-106.5 45v13h285v-13q-69 -10 -95 -45t-26 -111v-303q0 -115 -63.5 -178.5t-195.5 -63.5z" />
    <glyph glyph-name="uring" unicode="&#x16f;" horiz-adv-x="582" 
d="M291 531q-57 0 -89.5 29.5t-32.5 77.5q0 47 33.5 77.5t88.5 30.5q57 0 90 -30t33 -77t-33.5 -77.5t-89.5 -30.5zM293 548q50 0 50 90q0 91 -53 91q-50 0 -50 -91q0 -90 53 -90zM214 -8q-64 0 -100 37t-36 109v261q0 25 -14.5 36.5t-54.5 12.5v12l202 4v-314q0 -96 73 -96
q49 0 89 63v282q0 24 -15.5 36t-54.5 13v12l203 4v-414q0 -21 13.5 -29t55.5 -9v-12h-200v95q-65 -103 -161 -103z" />
    <glyph glyph-name="Uhungarumlaut" unicode="&#x170;" horiz-adv-x="808" 
d="M412 -17q-287 0 -287 236v407q0 30 -22 43t-82 15v13h346v-13q-53 -2 -74.5 -15t-21.5 -43v-412q0 -197 192 -197q80 0 125 45q57 57 57 166v300q0 75 -31.5 111t-106.5 45v13h285v-13q-69 -10 -95 -45t-26 -111v-303q0 -115 -63.5 -178.5t-195.5 -63.5zM470 766l50 126
q22 58 37.5 78.5t40.5 20.5q21 0 34.5 -13t13.5 -33q0 -17 -13.5 -36t-56.5 -57l-95 -86h-11zM308 766l51 126q22 58 37.5 78.5t40.5 20.5q20 0 33.5 -13t13.5 -33q0 -17 -14 -36t-56 -57l-95 -86h-11z" />
    <glyph glyph-name="uhungarumlaut" unicode="&#x171;" horiz-adv-x="582" 
d="M214 -8q-64 0 -100 37t-36 109v261q0 25 -14.5 36.5t-54.5 12.5v12l202 4v-314q0 -96 73 -96q49 0 89 63v282q0 24 -15.5 36t-54.5 13v12l203 4v-414q0 -21 13.5 -29t55.5 -9v-12h-200v95q-65 -103 -161 -103zM341 526l50 126q22 58 37.5 78.5t40.5 20.5q21 0 34.5 -13
t13.5 -33q0 -17 -13.5 -36t-56.5 -57l-95 -86h-11zM179 526l51 126q22 58 37.5 78.5t40.5 20.5q20 0 33.5 -13t13.5 -33q0 -17 -14 -36t-56 -57l-95 -86h-11z" />
    <glyph glyph-name="Uogonek" unicode="&#x172;" horiz-adv-x="808" 
d="M412 -17q-287 0 -287 236v407q0 30 -22 43t-82 15v13h346v-13q-53 -2 -74.5 -15t-21.5 -43v-412q0 -197 192 -197q80 0 125 45q57 57 57 166v300q0 75 -31.5 111t-106.5 45v13h285v-13q-69 -10 -95 -45t-26 -111v-303q0 -216 -210 -239l-8 -10q-54 -58 -54 -122
q0 -30 15 -47.5t42 -17.5q32 0 66 19l7 -13q-51 -41 -126 -41q-44 0 -70.5 22t-26.5 61t26 70t78 67l13 9h-11z" />
    <glyph glyph-name="uogonek" unicode="&#x173;" horiz-adv-x="582" 
d="M214 -8q-64 0 -100 37t-36 109v261q0 25 -14.5 36.5t-54.5 12.5v12l202 4v-314q0 -96 73 -96q49 0 89 63v282q0 24 -15.5 36t-54.5 13v12l203 4v-414q0 -21 13.5 -29t55.5 -9v-12h-59l-20 -24q-54 -58 -54 -122q0 -30 15 -47.5t42 -17.5q32 0 66 19l6 -13
q-49 -41 -125 -41q-44 0 -70.5 22t-26.5 61t26 70t78 67l37 26h-115v95q-65 -103 -161 -103z" />
    <glyph glyph-name="Wcircumflex" unicode="&#x174;" horiz-adv-x="1046" 
d="M410 766l142 204h13l135 -204h-16l-129 89l-129 -89h-16zM523 509l-27 76q-18 55 -38.5 75.5t-67.5 23.5v13h330v-13q-60 -3 -76.5 -21t-1.5 -62l140 -428h6l117 376q21 65 4.5 94.5t-77.5 40.5v13h233v-13q-57 -10 -85.5 -43.5t-57.5 -119.5l-169 -534h-51l-168 490
l-173 -490h-53l-199 598q-18 53 -39.5 72.5t-74.5 26.5v13h333v-13q-57 -3 -71 -21.5t-1 -61.5l137 -431h6z" />
    <glyph glyph-name="wcircumflex" unicode="&#x175;" horiz-adv-x="783" 
d="M282 526l142 204h13l135 -204h-16l-129 89l-129 -89h-16zM393 324l-21 60q-12 35 -27.5 48t-48.5 18v12h263v-12q-31 -3 -44.5 -10.5t-13.5 -23.5q0 -9 3 -21l91 -281h4l74 227q12 37 12 57q0 23 -16 35t-52 17v12h190v-12q-73 -7 -97 -76l-130 -381h-71l-106 302
l-118 -302h-69l-148 391q-13 34 -30 47.5t-53 18.5v12h268v-12q-57 -6 -57 -33q0 -9 5 -22l102 -284h4z" />
    <glyph glyph-name="Ycircumflex" unicode="&#x176;" horiz-adv-x="691" 
d="M406 328l129 230q33 59 23.5 85.5t-72.5 40.5v13h231v-13q-52 -9 -88 -40t-82 -112l-127 -224v-237q0 -30 22 -42.5t85 -14.5v-14h-359v14q63 2 85 14.5t22 42.5v216l-176 315q-23 39 -46 56t-68 26v13h353v-13q-71 -4 -87 -25t10 -61zM212 766l142 204h13l135 -204h-16
l-129 89l-129 -89h-16z" />
    <glyph glyph-name="ycircumflex" unicode="&#x177;" horiz-adv-x="505" 
d="M257 -19l-190 403q-16 36 -32.5 48.5t-53.5 17.5v12h275v-12q-42 -4 -53 -16t1 -38l115 -268l87 220q20 51 6.5 72.5t-68.5 29.5v12h193v-12q-65 -7 -93 -76l-175 -420q-63 -154 -159 -154q-43 0 -67.5 20.5t-24.5 56.5q0 27 18 47t48 20q26 0 44.5 -18.5t18.5 -46.5
q0 -35 -25 -58q38 4 68.5 36.5t60.5 109.5zM127 526l142 204h13l135 -204h-16l-129 89l-129 -89h-16z" />
    <glyph glyph-name="Ydieresis" unicode="&#x178;" horiz-adv-x="691" 
d="M406 328l129 230q33 59 23.5 85.5t-72.5 40.5v13h231v-13q-52 -9 -88 -40t-82 -112l-127 -224v-237q0 -30 22 -42.5t85 -14.5v-14h-359v14q63 2 85 14.5t22 42.5v216l-176 315q-23 39 -46 56t-68 26v13h353v-13q-71 -4 -87 -25t10 -61zM508 771q-32 0 -52.5 21t-20.5 53
t20.5 53.5t52.5 21.5t52.5 -21.5t20.5 -53.5t-20.5 -53t-52.5 -21zM304 771q-31 0 -52 21t-21 53t21 53.5t52 21.5q32 0 53 -21.5t21 -53.5t-21 -53t-53 -21z" />
    <glyph glyph-name="Zacute" unicode="&#x179;" horiz-adv-x="667" 
d="M285 766l35 125q14 58 28 80t40 22q24 0 41 -15.5t17 -37.5q0 -16 -12.5 -33t-48.5 -56l-83 -85h-17zM32 0l-1 13l431 664h-169q-55 0 -105.5 -50t-114.5 -165l-16 2l15 233h558l1 -13l-431 -664h196q55 0 102 52t118 176l15 -2l-11 -246h-588z" />
    <glyph glyph-name="zacute" unicode="&#x17a;" horiz-adv-x="488" 
d="M201 526l35 125q14 58 28 80t40 22q24 0 41 -15.5t17 -37.5q0 -16 -12.5 -33t-48.5 -56l-83 -85h-17zM28 0l-2 15l296 427h-92q-45 0 -80.5 -31.5t-86.5 -121.5l-16 2l13 171h405l2 -14l-297 -428h101q47 0 81 33.5t90 129.5l17 -2l-13 -181h-418z" />
    <glyph glyph-name="Zdotaccent" unicode="&#x17b;" horiz-adv-x="667" 
d="M32 0l-1 13l431 664h-169q-55 0 -105.5 -50t-114.5 -165l-16 2l15 233h558l1 -13l-431 -664h196q55 0 102 52t118 176l15 -2l-11 -246h-588zM335 771q-36 0 -57 20.5t-21 56.5t21.5 58.5t56.5 22.5q36 0 57.5 -21.5t21.5 -56.5q0 -36 -21.5 -58t-57.5 -22z" />
    <glyph glyph-name="zdotaccent" unicode="&#x17c;" horiz-adv-x="488" 
d="M28 0l-2 15l296 427h-92q-45 0 -80.5 -31.5t-86.5 -121.5l-16 2l13 171h405l2 -14l-297 -428h101q47 0 81 33.5t90 129.5l17 -2l-13 -181h-418zM252 531q-36 0 -57 20.5t-21 56.5t21.5 58.5t56.5 22.5q36 0 57.5 -21.5t21.5 -56.5q0 -36 -21.5 -58t-57.5 -22z" />
    <glyph glyph-name="Zcaron" unicode="&#x17d;" horiz-adv-x="667" 
d="M336 766l-135 204h16l129 -89l130 89h16l-143 -204h-13zM32 0l-1 13l431 664h-169q-55 0 -105.5 -50t-114.5 -165l-16 2l15 233h558l1 -13l-431 -664h196q55 0 102 52t118 176l15 -2l-11 -246h-588z" />
    <glyph glyph-name="zcaron" unicode="&#x17e;" horiz-adv-x="488" 
d="M246 526l-135 204h16l129 -89l130 89h16l-143 -204h-13zM28 0l-2 15l296 427h-92q-45 0 -80.5 -31.5t-86.5 -121.5l-16 2l13 171h405l2 -14l-297 -428h101q47 0 81 33.5t90 129.5l17 -2l-13 -181h-418z" />
    <glyph glyph-name="Aringacute" unicode="&#x1fa;" 
d="M301 931l35 125q14 58 28 80t40 22q24 0 41 -15.5t17 -37.5q0 -16 -12.5 -33t-48.5 -56l-83 -85h-17zM353 712q50 0 50 90q0 91 -53 91q-50 0 -50 -91q0 -90 53 -90zM171 265l-34 -92q-31 -81 -16.5 -115t84.5 -44v-14h-236v14q49 13 81 49.5t63 113.5l202 523
q-41 8 -63.5 36t-22.5 67q0 47 33.5 77.5t88.5 30.5q57 0 90 -30t33 -77q0 -37 -21.5 -64.5t-60.5 -37.5l222 -603q17 -45 37 -61t75 -24v-14h-358v14q70 3 90 20t5 58l-62 173h-230zM394 285l-102 289h-5l-108 -289h215z" />
    <glyph glyph-name="aringacute" unicode="&#x1fb;" horiz-adv-x="511" 
d="M170 -5q-67 0 -102.5 35t-35.5 82q0 31 16.5 59t46.5 45q43 23 128.5 34.5t90.5 13.5v81q0 54 -17.5 78.5t-56.5 24.5q-46 0 -73 -22q27 -27 27 -58t-18 -49.5t-51 -18.5q-29 0 -48.5 19.5t-19.5 47.5q0 46 52 73t152 27q93 0 139.5 -37.5t46.5 -118.5v-223
q0 -38 16.5 -47.5t56.5 6.5l6 -11q-62 -40 -107 -40q-46 0 -68.5 18.5t-28.5 57.5h-4q-69 -77 -148 -77zM242 50q44 0 72 44v150q-84 -13 -112.5 -37t-28.5 -79q0 -36 18 -57t51 -21zM220 778l35 125q14 58 28 80t40 22q24 0 41 -15.5t17 -37.5q0 -16 -12.5 -33t-48.5 -56
l-83 -85h-17zM259 531q-57 0 -89.5 29.5t-32.5 77.5q0 47 33.5 77.5t88.5 30.5q57 0 90 -30t33 -77t-33.5 -77.5t-89.5 -30.5zM261 548q50 0 50 90q0 91 -53 91q-50 0 -50 -91q0 -90 53 -90z" />
    <glyph glyph-name="AEacute" unicode="&#x1fc;" horiz-adv-x="1062" 
d="M558 766l35 125q14 58 28 80t40 22q24 0 41 -15.5t17 -37.5q0 -16 -12.5 -33t-48.5 -56l-83 -85h-17zM239 279l-75 -120q-37 -58 -37 -90q0 -42 69 -55v-14h-234v14q95 24 185 163l272 428q15 21 15 35q0 35 -116 44v13h657l3 -238l-15 -1q-30 67 -49 101.5t-46 65.5
t-58.5 42.5t-77.5 11.5h-104v-308h42q62 0 98 30.5t56 105.5h13v-292h-13q-20 75 -56 106.5t-98 31.5h-42v-334h99q104 0 155 48.5t109 185.5l15 -2l-5 -251h-623v14q61 2 82.5 15t21.5 42v208h-243zM482 299v361h-4l-226 -361h230z" />
    <glyph glyph-name="aeacute" unicode="&#x1fd;" horiz-adv-x="784" 
d="M551 470q103 0 157 -61.5t49 -160.5h-301v-19v-1q0 -92 38.5 -143t112.5 -51q44 0 76 20.5t62 61.5l11 -7q-74 -117 -204 -117q-67 0 -119 27.5t-80 75.5h-4q-30 -43 -77 -71.5t-106 -28.5q-65 0 -99.5 35t-34.5 82q0 31 16.5 59t46.5 45q43 23 133.5 34.5t95.5 13.5v81
q0 103 -84 103q-46 0 -73 -22q27 -27 27 -58t-18 -49.5t-51 -18.5q-29 0 -48.5 19.5t-19.5 47.5q0 46 52 73t152 27q101 0 145 -50q59 53 145 53zM545 451q-82 0 -88 -185h164q9 87 -10.5 136t-65.5 49zM242 50q22 0 46.5 13.5t35.5 33.5v147q-86 -14 -118.5 -38t-32.5 -78
q0 -36 18 -57t51 -21zM380 526l35 125q14 58 28 80t40 22q24 0 41 -15.5t17 -37.5q0 -16 -12.5 -33t-48.5 -56l-83 -85h-17z" />
    <glyph glyph-name="Oslashacute" unicode="&#x1fe;" horiz-adv-x="775" 
d="M387 -17q148 0 247.5 102t99.5 266q0 168 -105 270l92 112h-33l-78 -95q-92 76 -223 76q-147 0 -246 -102t-99 -265q0 -170 104 -272l-92 -111h33l78 94q92 -75 222 -75zM383 695q119 0 163 -134l-326 -395q-17 74 -17 183q0 183 44 264.5t136 81.5zM392 2
q-119 0 -163 133l325 395q18 -72 18 -181q0 -183 -44 -265t-136 -82zM356 766l35 125q14 58 28 80t40 22q24 0 41 -15.5t17 -37.5q0 -16 -12.5 -33t-48.5 -56l-83 -85h-17z" />
    <glyph glyph-name="oslashacute" unicode="&#x1ff;" horiz-adv-x="541" 
d="M71 -25h-28l60 72q-74 65 -74 183q0 109 67.5 174.5t174.5 65.5q88 0 149 -42l50 59h28l-61 -73q75 -64 75 -180q0 -109 -67 -175.5t-174 -66.5q-89 0 -151 42zM275 11q51 0 73 54.5t22 166.5q0 54 -6 95l-181 -219q21 -97 92 -97zM172 232q0 -54 6 -96l181 217
q-23 98 -93 98q-52 0 -73 -53.5t-21 -165.5zM241 526l35 125q14 58 28 80t40 22q24 0 41 -15.5t17 -37.5q0 -16 -12.5 -33t-48.5 -56l-83 -85h-17z" />
    <glyph glyph-name="Scommaaccent" unicode="&#x218;" horiz-adv-x="588" 
d="M231 -320l-8 11q86 53 90 119l-4 2q-11 -7 -26 -7q-25 0 -43 18t-18 47t19 49.5t48 20.5q36 0 58 -25t22 -66q0 -52 -36 -97t-102 -72zM51 -17v253h16q109 -230 247 -230q65 0 101.5 36t36.5 87q0 58 -42.5 93t-137.5 67q-50 17 -79 29.5t-64 36t-51.5 57.5t-16.5 80
q0 98 66.5 158t172.5 60q86 0 153 -38l44 44h12v-226h-16q-50 104 -100 152.5t-108 48.5q-50 0 -86.5 -31t-36.5 -85q0 -56 42.5 -89t136.5 -63q44 -14 73 -27t61.5 -36t49 -58t16.5 -81q0 -97 -61 -165.5t-181 -68.5q-95 0 -177 46l-59 -50h-12z" />
    <glyph glyph-name="scommaaccent" unicode="&#x219;" horiz-adv-x="437" 
d="M152 -320l-8 11q86 53 90 119l-4 2q-11 -7 -26 -7q-25 0 -43 18t-18 47t19 49.5t48 20.5q36 0 58 -25t22 -66q0 -52 -36 -97t-102 -72zM36 -8v172h14q50 -82 91.5 -117.5t93.5 -35.5q38 0 59 20t21 52q0 35 -26.5 55t-103.5 42q-82 23 -115.5 52.5t-33.5 84.5
q0 69 49.5 111t132.5 42q74 0 125 -34l28 34h12v-154h-14q-47 75 -79.5 105t-77.5 30q-34 0 -54.5 -20.5t-20.5 -54.5q0 -29 27.5 -46.5t83.5 -32.5q84 -21 123.5 -53.5t39.5 -92.5q0 -69 -51 -114t-135 -45q-28 0 -76.5 12t-69.5 25l-31 -37h-12z" />
    <glyph glyph-name="schwa" unicode="&#x259;" horiz-adv-x="498" 
d="M232 470q107 0 172 -62.5t65 -170.5q0 -110 -68 -177.5t-168 -67.5q-103 0 -157 61.5t-49 160.5h301v19v1q0 92 -38.5 143t-112.5 51q-44 0 -76 -20.5t-62 -61.5l-11 7q74 117 204 117zM239 11q80 0 88 185h-164q-9 -87 10.5 -136t65.5 -49z" />
    <glyph glyph-name="circumflex" unicode="&#x2c6;" horiz-adv-x="320" 
d="M15 526l142 204h13l135 -204h-16l-129 89l-129 -89h-16z" />
    <glyph glyph-name="caron" unicode="&#x2c7;" horiz-adv-x="320" 
d="M150 526l-135 204h16l129 -89l130 89h16l-143 -204h-13z" />
    <glyph glyph-name="breve" unicode="&#x2d8;" horiz-adv-x="336" 
d="M169 531q-58 0 -96.5 44t-44.5 122h15q14 -42 47 -63.5t78 -21.5t78.5 22t46.5 63h15q-5 -78 -43 -122t-96 -44z" />
    <glyph glyph-name="dotaccent" unicode="&#x2d9;" horiz-adv-x="233" 
d="M116 531q-36 0 -57 20.5t-21 56.5t21.5 58.5t56.5 22.5q36 0 57.5 -21.5t21.5 -56.5q0 -36 -21.5 -58t-57.5 -22z" />
    <glyph glyph-name="ring" unicode="&#x2da;" horiz-adv-x="275" 
d="M137 531q-57 0 -89.5 29.5t-32.5 77.5q0 47 33.5 77.5t88.5 30.5q57 0 90 -30t33 -77t-33.5 -77.5t-89.5 -30.5zM139 548q50 0 50 90q0 91 -53 91q-50 0 -50 -91q0 -90 53 -90z" />
    <glyph glyph-name="ogonek" unicode="&#x2db;" horiz-adv-x="269" 
d="M110 -246q-44 0 -70.5 22t-26.5 61t26 70t78 67l60 41h17l-34 -39q-54 -58 -54 -122q0 -30 15 -47.5t42 -17.5q32 0 66 19l7 -13q-51 -41 -126 -41z" />
    <glyph glyph-name="tilde" unicode="&#x2dc;" horiz-adv-x="355" 
d="M14 525q8 74 31 107.5t68 33.5q28 0 86.5 -27t75.5 -27q18 0 29.5 13t20.5 47h16q-7 -74 -30.5 -107.5t-68.5 -33.5q-28 0 -86.5 27t-75.5 27q-18 0 -29.5 -13t-20.5 -47h-16z" />
    <glyph glyph-name="hungarumlaut" unicode="&#x2dd;" horiz-adv-x="317" 
d="M149 526l50 126q22 58 37.5 78.5t40.5 20.5q21 0 34.5 -13t13.5 -33q0 -17 -13.5 -36t-56.5 -57l-95 -86h-11zM-13 526l51 126q22 58 37.5 78.5t40.5 20.5q20 0 33.5 -13t13.5 -33q0 -17 -14 -36t-56 -57l-95 -86h-11z" />
    <glyph glyph-name="commaaccent" unicode="&#x326;" horiz-adv-x="254" 
d="M63 -320l-8 11q86 53 90 119l-4 2q-11 -7 -26 -7q-25 0 -43 18t-18 47t19 49.5t48 20.5q36 0 58 -25t22 -66q0 -52 -36 -97t-102 -72z" />
    <glyph glyph-name="Wgrave" unicode="&#x1e80;" horiz-adv-x="1046" 
d="M523 509l-27 76q-18 55 -38.5 75.5t-67.5 23.5v13h330v-13q-60 -3 -76.5 -21t-1.5 -62l140 -428h6l117 376q21 65 4.5 94.5t-77.5 40.5v13h233v-13q-57 -10 -85.5 -43.5t-57.5 -119.5l-169 -534h-51l-168 490l-173 -490h-53l-199 598q-18 53 -39.5 72.5t-74.5 26.5v13
h333v-13q-57 -3 -71 -21.5t-1 -61.5l137 -431h6zM559 766l-82 85q-37 38 -49.5 55.5t-12.5 33.5q0 22 17 37.5t41 15.5q26 0 40 -22t28 -80l35 -125h-17z" />
    <glyph glyph-name="wgrave" unicode="&#x1e81;" horiz-adv-x="783" 
d="M393 324l-21 60q-12 35 -27.5 48t-48.5 18v12h263v-12q-31 -3 -44.5 -10.5t-13.5 -23.5q0 -9 3 -21l91 -281h4l74 227q12 37 12 57q0 23 -16 35t-52 17v12h190v-12q-73 -7 -97 -76l-130 -381h-71l-106 302l-118 -302h-69l-148 391q-13 34 -30 47.5t-53 18.5v12h268v-12
q-57 -6 -57 -33q0 -9 5 -22l102 -284h4zM416 526l-82 85q-37 38 -49.5 55.5t-12.5 33.5q0 22 17 37.5t41 15.5q26 0 40 -22t28 -80l35 -125h-17z" />
    <glyph glyph-name="Wacute" unicode="&#x1e82;" horiz-adv-x="1046" 
d="M520 766l35 125q14 58 28 80t40 22q24 0 41 -15.5t17 -37.5q0 -16 -12.5 -33t-48.5 -56l-83 -85h-17zM523 509l-27 76q-18 55 -38.5 75.5t-67.5 23.5v13h330v-13q-60 -3 -76.5 -21t-1.5 -62l140 -428h6l117 376q21 65 4.5 94.5t-77.5 40.5v13h233v-13
q-57 -10 -85.5 -43.5t-57.5 -119.5l-169 -534h-51l-168 490l-173 -490h-53l-199 598q-18 53 -39.5 72.5t-74.5 26.5v13h333v-13q-57 -3 -71 -21.5t-1 -61.5l137 -431h6z" />
    <glyph glyph-name="wacute" unicode="&#x1e83;" horiz-adv-x="783" 
d="M403 526l35 125q14 58 28 80t40 22q24 0 41 -15.5t17 -37.5q0 -16 -12.5 -33t-48.5 -56l-83 -85h-17zM393 324l-21 60q-12 35 -27.5 48t-48.5 18v12h263v-12q-31 -3 -44.5 -10.5t-13.5 -23.5q0 -9 3 -21l91 -281h4l74 227q12 37 12 57q0 23 -16 35t-52 17v12h190v-12
q-73 -7 -97 -76l-130 -381h-71l-106 302l-118 -302h-69l-148 391q-13 34 -30 47.5t-53 18.5v12h268v-12q-57 -6 -57 -33q0 -9 5 -22l102 -284h4z" />
    <glyph glyph-name="Wdieresis" unicode="&#x1e84;" horiz-adv-x="1046" 
d="M654 771q-32 0 -52.5 21t-20.5 53t20.5 53.5t52.5 21.5t52.5 -21.5t20.5 -53.5t-20.5 -53t-52.5 -21zM450 771q-31 0 -52 21t-21 53t21 53.5t52 21.5q32 0 53 -21.5t21 -53.5t-21 -53t-53 -21zM523 509l-27 76q-18 55 -38.5 75.5t-67.5 23.5v13h330v-13q-60 -3 -76.5 -21
t-1.5 -62l140 -428h6l117 376q21 65 4.5 94.5t-77.5 40.5v13h233v-13q-57 -10 -85.5 -43.5t-57.5 -119.5l-169 -534h-51l-168 490l-173 -490h-53l-199 598q-18 53 -39.5 72.5t-74.5 26.5v13h333v-13q-57 -3 -71 -21.5t-1 -61.5l137 -431h6z" />
    <glyph glyph-name="wdieresis" unicode="&#x1e85;" horiz-adv-x="783" 
d="M527 531q-32 0 -52.5 21t-20.5 53t20.5 53.5t52.5 21.5t52.5 -21.5t20.5 -53.5t-20.5 -53t-52.5 -21zM323 531q-31 0 -52 21t-21 53t21 53.5t52 21.5q32 0 53 -21.5t21 -53.5t-21 -53t-53 -21zM393 324l-21 60q-12 35 -27.5 48t-48.5 18v12h263v-12q-31 -3 -44.5 -10.5
t-13.5 -23.5q0 -9 3 -21l91 -281h4l74 227q12 37 12 57q0 23 -16 35t-52 17v12h190v-12q-73 -7 -97 -76l-130 -381h-71l-106 302l-118 -302h-69l-148 391q-13 34 -30 47.5t-53 18.5v12h268v-12q-57 -6 -57 -33q0 -9 5 -22l102 -284h4z" />
    <glyph glyph-name="Ygrave" unicode="&#x1ef2;" horiz-adv-x="691" 
d="M406 328l129 230q33 59 23.5 85.5t-72.5 40.5v13h231v-13q-52 -9 -88 -40t-82 -112l-127 -224v-237q0 -30 22 -42.5t85 -14.5v-14h-359v14q63 2 85 14.5t22 42.5v216l-176 315q-23 39 -46 56t-68 26v13h353v-13q-71 -4 -87 -25t10 -61zM378 766l-82 85q-37 38 -49.5 55.5
t-12.5 33.5q0 22 17 37.5t41 15.5q26 0 40 -22t28 -80l35 -125h-17z" />
    <glyph glyph-name="ygrave" unicode="&#x1ef3;" horiz-adv-x="505" 
d="M257 -19l-190 403q-16 36 -32.5 48.5t-53.5 17.5v12h275v-12q-42 -4 -53 -16t1 -38l115 -268l87 220q20 51 6.5 72.5t-68.5 29.5v12h193v-12q-65 -7 -93 -76l-175 -420q-63 -154 -159 -154q-43 0 -67.5 20.5t-24.5 56.5q0 27 18 47t48 20q26 0 44.5 -18.5t18.5 -46.5
q0 -35 -25 -58q38 4 68.5 36.5t60.5 109.5zM283 526l-82 85q-37 38 -49.5 55.5t-12.5 33.5q0 22 17 37.5t41 15.5q26 0 40 -22t28 -80l35 -125h-17z" />
    <glyph glyph-name="enspace" unicode="&#x2002;" horiz-adv-x="500" 
 />
    <glyph glyph-name="emspace" unicode="&#x2003;" horiz-adv-x="1000" 
 />
    <glyph glyph-name="threeperemspace" unicode="&#x2004;" horiz-adv-x="333" 
 />
    <glyph glyph-name="fourperemspace" unicode="&#x2005;" horiz-adv-x="250" 
 />
    <glyph glyph-name="thinspace" unicode="&#x2009;" horiz-adv-x="133" 
 />
    <glyph glyph-name="hairspace" unicode="&#x200a;" horiz-adv-x="75" 
 />
    <glyph glyph-name="endash" unicode="&#x2013;" horiz-adv-x="540" 
d="M55 252v22h430v-22h-430z" />
    <glyph glyph-name="emdash" unicode="&#x2014;" horiz-adv-x="790" 
d="M55 252v22h680v-22h-680z" />
    <glyph glyph-name="quoteleft" unicode="&#x2018;" horiz-adv-x="254" 
d="M133 417q-41 0 -65 27.5t-24 72.5q0 65 46.5 118.5t129.5 79.5l6 -12q-54 -28 -85.5 -68t-34.5 -73l4 -2q13 7 30 7q27 0 47.5 -20t20.5 -52t-21.5 -55t-53.5 -23z" />
    <glyph glyph-name="quoteright" unicode="&#x2019;" horiz-adv-x="254" 
d="M33 413l-6 12q54 28 85.5 68.5t34.5 72.5l-4 2q-14 -6 -29 -6q-28 0 -48 20t-20 52t21 55t54 23q40 0 64.5 -27.5t24.5 -72.5q0 -65 -47 -119t-130 -80z" />
    <glyph glyph-name="quotesinglbase" unicode="&#x201a;" horiz-adv-x="254" 
d="M33 -158l-6 12q54 28 85.5 68.5t34.5 72.5l-4 2q-13 -6 -29 -6q-28 0 -48 20t-20 52t21 55t54 23q40 0 64.5 -27.5t24.5 -72.5q0 -65 -47 -119t-130 -80z" />
    <glyph glyph-name="quotedblleft" unicode="&#x201c;" horiz-adv-x="462" 
d="M340 417q-40 0 -64.5 27.5t-24.5 72.5q0 65 47 118.5t130 79.5l6 -12q-54 -28 -85.5 -68t-34.5 -73l4 -2q13 7 30 7q27 0 47.5 -20t20.5 -52t-21.5 -55t-54.5 -23zM133 417q-41 0 -65 27.5t-24 72.5q0 65 46.5 118.5t129.5 79.5l6 -12q-54 -28 -85.5 -68t-34.5 -73l4 -2
q13 7 30 7q27 0 47.5 -20t20.5 -52t-21.5 -55t-53.5 -23z" />
    <glyph glyph-name="quotedblright" unicode="&#x201d;" horiz-adv-x="462" 
d="M241 413l-6 12q54 28 85.5 68.5t34.5 72.5l-4 2q-13 -6 -30 -6q-27 0 -47.5 20t-20.5 52t21.5 55t53.5 23q41 0 65 -27.5t24 -72.5q0 -66 -46.5 -119.5t-129.5 -79.5zM33 413l-6 12q54 28 85.5 68.5t34.5 72.5l-4 2q-14 -6 -29 -6q-28 0 -48 20t-20 52t21 55t54 23
q40 0 64.5 -27.5t24.5 -72.5q0 -65 -47 -119t-130 -80z" />
    <glyph glyph-name="quotedblbase" unicode="&#x201e;" horiz-adv-x="462" 
d="M241 -158l-6 12q54 28 85.5 68.5t34.5 72.5l-4 2q-13 -6 -30 -6q-27 0 -47.5 20t-20.5 52t21.5 55t53.5 23q41 0 65 -27.5t24 -72.5q0 -66 -46.5 -119.5t-129.5 -79.5zM33 -158l-6 12q54 28 85.5 68.5t34.5 72.5l-4 2q-13 -6 -29 -6q-28 0 -48 20t-20 52t21 55t54 23
q40 0 64.5 -27.5t24.5 -72.5q0 -65 -47 -119t-130 -80z" />
    <glyph glyph-name="dagger" unicode="&#x2020;" horiz-adv-x="574" 
d="M281 -108q-9 124 -29.5 250.5t-35.5 170.5l47 62q14 20 14 40q0 21 -13.5 35t-37.5 14q-30 0 -76 -23t-63 -23q-25 0 -43 12.5t-18 36.5q0 25 24 42.5t60 17.5q60 0 168 -65l3 3l-28 103q-22 80 -22 115q0 32 15 51t42 19q26 0 41 -19t15 -51q0 -35 -22 -115l-28 -103
l3 -3q108 65 168 65q36 0 60 -17.5t24 -42.5q0 -24 -18 -36.5t-43 -12.5q-17 0 -63 23t-76 23q-23 0 -37 -14t-14 -35q0 -20 14 -40l47 -62q-15 -45 -36 -171.5t-29 -249.5h-13z" />
    <glyph glyph-name="daggerdbl" unicode="&#x2021;" horiz-adv-x="588" 
d="M294 -110q-26 0 -41 18t-15 48q0 26 22 108l28 100l-3 3q-110 -64 -168 -64q-36 0 -60 17t-24 42t18 37.5t43 12.5q17 0 63 -23t76 -23q23 0 37 11t14 30q0 22 -16 51l-37 64l37 64q16 29 16 48q0 21 -13.5 32.5t-37.5 11.5q-30 0 -76 -23t-63 -23q-25 0 -43 12.5
t-18 36.5q0 25 24 42.5t60 17.5q60 0 168 -65l3 3l-28 101q-22 76 -22 107q0 30 15 48t42 18q26 0 41 -18t15 -48q0 -25 -22 -107l-28 -101l3 -3q108 65 168 65q36 0 60 -17.5t24 -42.5q0 -24 -18 -36.5t-43 -12.5q-17 0 -63 23t-76 23q-51 0 -51 -42q0 -21 16 -50l37 -64
l-37 -64q-16 -29 -16 -49q0 -43 51 -43q30 0 76 23t63 23q25 0 43 -12.5t18 -37.5t-24 -42t-60 -17q-58 0 -168 64l-3 -3l28 -100q22 -82 22 -108q0 -30 -15 -48t-42 -18z" />
    <glyph glyph-name="bullet" unicode="&#x2022;" horiz-adv-x="477" 
d="M238 194q-58 0 -97.5 39.5t-39.5 96.5t39.5 96.5t97.5 39.5q59 0 98.5 -39.5t39.5 -96.5t-39.5 -96.5t-98.5 -39.5z" />
    <glyph glyph-name="ellipsis" unicode="&#x2026;" horiz-adv-x="742" 
d="M615 -17q-34 0 -57 22.5t-23 55.5q0 32 23.5 55.5t57.5 23.5t57 -22.5t23 -55.5q0 -32 -23.5 -55.5t-57.5 -23.5zM371 -17q-35 0 -57.5 22.5t-22.5 55.5q0 32 23.5 55.5t57.5 23.5t57 -22.5t23 -55.5q0 -32 -23.5 -55.5t-57.5 -23.5zM126 -17q-34 0 -56.5 22.5
t-22.5 55.5q0 32 23.5 55.5t57.5 23.5t57 -22.5t23 -55.5q0 -32 -24 -55.5t-58 -23.5z" />
    <glyph glyph-name="guilsinglleft" unicode="&#x2039;" horiz-adv-x="307" 
d="M253 27l-196 169q-22 19 -22 29t22 30l196 169l12 -9l-120 -190l120 -190z" />
    <glyph glyph-name="guilsinglright" unicode="&#x203a;" horiz-adv-x="307" 
d="M54 26l-12 9l120 190l-120 190l12 8l196 -169q22 -19 22 -29t-22 -30z" />
    <glyph glyph-name="fraction" unicode="&#x2044;" horiz-adv-x="609" 
d="M43 -31l247 356l243 357h33l-246 -357l-244 -356h-33z" />
    <glyph glyph-name="Euro" unicode="&#x20ac;" horiz-adv-x="700" 
d="M461 269h-205q17 -98 73.5 -156.5t136.5 -58.5q55 0 103.5 30t80.5 82l17 -10q-84 -173 -254 -173q-131 0 -210 80t-93 206h-84v21h82q-1 11 -1 33q0 32 4 59h-85v21h89q24 121 114 200t221 79q89 0 147.5 -42t58.5 -100q0 -36 -22.5 -59.5t-56.5 -23.5q-36 0 -59 21.5
t-23 60.5q0 29 16.5 50t40.5 30q-13 17 -43 30.5t-63 13.5q-83 0 -134 -66.5t-61 -193.5h210v-21h-211v-33q0 -31 3 -59h208v-21z" />
    <glyph glyph-name="published" unicode="&#x2117;" horiz-adv-x="834" 
d="M417 -34q-162 0 -272.5 110t-110.5 273q0 161 110.5 271.5t272.5 110.5t272.5 -110.5t110.5 -271.5q0 -163 -110.5 -273t-272.5 -110zM417 -17q154 0 258.5 106.5t104.5 259.5t-104.5 259t-258.5 106t-258.5 -106t-104.5 -259t104.5 -259.5t258.5 -106.5zM249 157v13
q33 1 44.5 7t11.5 21v310q0 15 -11.5 21t-44.5 7v12h178q173 0 173 -113q0 -50 -42.5 -82t-132.5 -32h-31v-123q0 -17 10.5 -22.5t48.5 -6.5v-12h-204zM394 336h27q50 0 68.5 23t18.5 76q0 49 -19.5 74t-65.5 25h-29v-198z" />
    <glyph glyph-name="servicemark" unicode="&#x2120;" horiz-adv-x="606" 
d="M53 550h11q39 -68 85 -68q21 0 33 10.5t12 24.5q0 17 -14 27t-47 19q-25 8 -38.5 14t-26.5 21.5t-13 36.5q0 32 25 51.5t63 19.5q29 0 53 -11l14 13h8v-74h-11q-34 60 -70 60q-18 0 -29.5 -9t-11.5 -24q0 -16 13 -24.5t49 -19.5q17 -5 26.5 -9.5t21.5 -12.5t18 -20t6 -29
q0 -31 -22.5 -54t-65.5 -23q-33 0 -63 14l-18 -15h-8v82zM254 474v9q22 2 28.5 11.5t6.5 33.5v134q0 29 -35 30v10h104l57 -157h4l54 157h102v-10q-21 -2 -28.5 -5t-7.5 -11v-176q0 -14 36 -15v-11h-126v11q18 1 24 4t6 11v163h-4l-65 -189h-29l-72 190h-4v-136
q0 -24 6.5 -33t28.5 -12v-9h-86z" />
    <glyph glyph-name="trademark" unicode="&#x2122;" horiz-adv-x="643" 
d="M291 474v9q22 2 28.5 11.5t6.5 33.5v134q0 29 -35 30v10h104l57 -157h4l54 157h102v-10q-21 -2 -28.5 -5t-7.5 -11v-176q0 -14 36 -15v-11h-126v11q18 1 24 4t6 11v163h-4l-65 -189h-29l-72 190h-4v-136q0 -24 6.5 -33t28.5 -12v-9h-86zM85 474v11q38 0 38 15v190h-6
q-33 0 -65 -74h-12l4 86h218l3 -86h-11q-31 74 -65 74h-6v-190q0 -15 38 -15v-11h-136z" />
    <glyph glyph-name="minus" unicode="&#x2212;" horiz-adv-x="536" 
d="M54 316v22h428v-22h-428z" />
    <glyph glyph-name="registered.alt" horiz-adv-x="834" 
d="M417 -34q-162 0 -272.5 110t-110.5 273q0 161 110.5 271.5t272.5 110.5t272.5 -110.5t110.5 -271.5q0 -163 -110.5 -273t-272.5 -110zM417 -17q154 0 258.5 106.5t104.5 259.5t-104.5 259t-258.5 106t-258.5 -106t-104.5 -259t104.5 -259.5t258.5 -106.5zM377 361h34
q50 0 66.5 17.5t16.5 66.5q0 45 -19.5 67t-66.5 22h-31v-173zM377 347v-150q0 -16 11.5 -21.5t41.5 -6.5v-13h-198v13q34 1 45 7t11 21v311q0 15 -11 21t-45 7v12h197q81 0 119 -27.5t38 -68.5q0 -77 -116 -95v-2q56 -1 79.5 -22.5t28.5 -61.5l5 -52q4 -31 13.5 -40
t42.5 -10v-12q-18 -3 -51 -3q-55 0 -74.5 17t-22.5 56l-4 46q-4 43 -20 58.5t-62 15.5h-28z" />
    <glyph glyph-name="percent.alt" horiz-adv-x="863" 
d="M394 503q0 -79 -49.5 -128.5t-127.5 -49.5q-82 0 -130 48t-48 128q0 79 49.5 128t127.5 49q81 0 129.5 -47.5t48.5 -127.5zM150 -9l276 352l254 330h36l-274 -349l-256 -333h-36zM213 659q-74 0 -74 -156q0 -159 81 -159q74 0 74 158q0 157 -81 157zM472 161
q0 80 49.5 129t128.5 49q81 0 129 -47.5t48 -127.5q0 -79 -49.5 -128.5t-127.5 -49.5q-82 0 -130 47.5t-48 127.5zM653 5q74 0 74 158q0 157 -81 157q-74 0 -74 -157q0 -158 81 -158z" />
    <glyph glyph-name="NUL" horiz-adv-x="0" 
 />
    <glyph glyph-name="hfjslug" horiz-adv-x="694" 
d="M644 -200h-208l-8 14h-163l-8 -14h-207v303q14 0 23 9.5t9 22.5t-9.5 22.5t-22.5 9.5v554h100l30 79h334l29 -79h101v-921zM400 563v-172h15v78h38v14h-38v66h43v14h-58zM184 563v-172h15v79h47v-79h15v172h-15v-79h-47v79h-15zM460 394q10 -4 21 -4q31 0 31 36v137h-16
v-137q0 -22 -16 -22q-8 0 -20 5v-15zM371 465l-13 3q-4 -18 -8 -30h-1l-16 31q23 21 23 42q0 12 -7 21.5t-20 9.5q-12 0 -20 -9.5t-8 -21.5q0 -13 14 -39q-23 -18 -23 -47q0 -16 8 -26.5t21 -10.5q19 0 29 24h1l12 -24l12 6l-17 32q6 14 13 39zM523 323v-46h8v12l8 8l15 -20
h10l-20 26l18 20h-10l-20 -24h-1v24h-8zM488 292l10 -15h9l-12 17q10 4 10 14q0 15 -17 15h-20v-46h8v15h12zM426 276q10 0 17 7t7 17q0 9 -7 16.5t-17 7.5t-17 -7.5t-7 -16.5q0 -10 7 -17t17 -7zM370 301l-13 22h-9l18 -29v-17h8v17l18 29h-9zM193 323v-46h34v7h-26v13h23
v7h-23v12h26v7h-34zM132 323v-46h8v32l25 -32h7v46h-8v-32l-25 32h-7zM241 323l14 -47h8l11 34h1l11 -34h8l14 47h-8l-10 -35h-1l-11 35h-7l-11 -35h-1l-10 35h-8zM327 479q-12 22 -12 32q0 19 14 19q13 0 13 -19q0 -15 -15 -32zM342 423q-8 -21 -20 -21q-16 0 -16 25
q0 19 16 35zM487 299h-11v17h11q10 0 10 -8q0 -9 -10 -9zM426 283q-16 0 -16 17q0 6 4.5 11.5t11.5 5.5t11.5 -5.5t4.5 -11.5q0 -17 -16 -17z" />
    <glyph glyph-name="i.dot" horiz-adv-x="311" 
d="M159 541q-36 0 -57.5 20.5t-21.5 56.5t22 58.5t57 22.5t56.5 -21.5t21.5 -56.5q0 -37 -21.5 -58.5t-56.5 -21.5zM23 0v12q43 1 57.5 8.5t14.5 28.5v344q0 24 -16 36.5t-56 13.5v12l205 9v-415q0 -21 13.5 -28.5t56.5 -8.5v-12h-275z" />
    <glyph glyph-name="caron.alt" horiz-adv-x="143" 
d="M42 530l-12 133q-2 38 -2 50q0 29 14.5 42t35.5 13q22 0 35.5 -11.5t13.5 -31.5q0 -19 -17 -62l-54 -133h-14z" />
    </font>
</defs>
</svg>
